<svg width="16" height="16" viewBox="0 0 16 16" fill="none" xmlns="http://www.w3.org/2000/svg">
<path d="M6 5.99964C6 7.10402 5.10457 7.99929 4 7.99929C2.89543 7.99929 2 7.10402 2 5.99964C2 4.89527 2.89543 4 4 4C5.10457 4 6 4.89527 6 5.99964Z" fill="black"/>
<path d="M2 9C0.895431 9 0 9.89543 0 11V12H8V11C8 9.89543 7.10457 9 6 9H2Z" fill="black"/>
<path d="M9.5 5.5C9.22386 5.5 9 5.72386 9 6C9 6.27614 9.22386 6.5 9.5 6.5H14.5C14.7761 6.5 15 6.27614 15 6C15 5.72386 14.7761 5.5 14.5 5.5H9.5Z" fill="black"/>
<path d="M9.5 7.5C9.22386 7.5 9 7.72386 9 8C9 8.27614 9.22386 8.5 9.5 8.5H13.5C13.7761 8.5 14 8.27614 14 8C14 7.72386 13.7761 7.5 13.5 7.5H9.5Z" fill="black"/>
<path d="M9 10C9 9.72386 9.22386 9.5 9.5 9.5H15.5C15.7761 9.5 16 9.72386 16 10C16 10.2761 15.7761 10.5 15.5 10.5H9.5C9.22386 10.5 9 10.2761 9 10Z" fill="black"/>
</svg>
