<svg width="16" height="16" viewBox="0 0 16 16" fill="none" xmlns="http://www.w3.org/2000/svg">
<path fill-rule="evenodd" clip-rule="evenodd" d="M5.28571 2C2.91878 2 1 3.79086 1 6V13C1 13.5523 1.4797 14 2.07143 14H10.7143C13.0812 14 15 12.2091 15 10V6C15 3.79086 13.0812 2 10.7143 2H5.28571ZM4 6C4 5.44772 4.44772 5 5 5H11C11.5523 5 12 5.44772 12 6C12 6.55228 11.5523 7 11 7H5C4.44772 7 4 6.55228 4 6ZM4 10C4 9.44771 4.44772 9 5 9H8C8.55229 9 9 9.44771 9 10C9 10.5523 8.55229 11 8 11H5C4.44772 11 4 10.5523 4 10Z" fill="black"/>
</svg>
