<svg width="16" height="16" viewBox="0 0 16 16" fill="none" xmlns="http://www.w3.org/2000/svg">
<path d="M8 1C8.39887 1 8.72762 1.2993 8.77254 1.68489L8.77778 1.77531L8.77778 8.77414L10.5612 6.99686C10.8415 6.71737 11.2827 6.69588 11.5878 6.93237L11.6611 6.99687C11.9415 7.27636 11.963 7.71614 11.7258 8.02028L11.6611 8.09332L8.5562 11.1883C8.53238 11.2126 8.50696 11.2353 8.48013 11.2563C8.4347 11.2919 8.3862 11.3218 8.33563 11.3459C8.23402 11.3945 8.1202 11.4216 8.00001 11.4216L7.98795 11.4215C7.8984 11.4202 7.81253 11.4037 7.73277 11.3747C7.65869 11.3477 7.58791 11.3092 7.52323 11.259L7.52214 11.2581C7.497 11.2385 7.4731 11.2175 7.45057 11.1951L4.33892 8.09331C4.03518 7.79053 4.03519 7.29963 4.33893 6.99686C4.61931 6.71737 5.06049 6.69588 5.3656 6.93237L5.43887 6.99687L7.22223 8.77414L7.22222 1.77531C7.22222 1.34712 7.57045 1 8 1Z" fill="black"/>
<path d="M1.77778 13.4494C1.34822 13.4494 1 13.7965 1 14.2247C1 14.6529 1.34822 15 1.77778 15H14.2222C14.6518 15 15 14.6529 15 14.2247C15 13.7965 14.6518 13.4494 14.2222 13.4494H1.77778Z" fill="black"/>
</svg>
