<svg width="16" height="16" viewBox="0 0 16 16" fill="none" xmlns="http://www.w3.org/2000/svg">
<path fill-rule="evenodd" clip-rule="evenodd" d="M2.75 2C2.33579 2 2 2.33579 2 2.75V13.25C2 13.6642 2.33579 14 2.75 14H13.25C13.6642 14 14 13.6642 14 13.25V9.5C14 9.08579 13.6642 8.75 13.25 8.75C12.8358 8.75 12.5 9.08579 12.5 9.5V12.5H3.5V3.5H6.5C6.91421 3.5 7.25 3.16421 7.25 2.75C7.25 2.33579 6.91421 2 6.5 2H2.75ZM9.875 2C9.46079 2 9.125 2.33579 9.125 2.75C9.125 3.16421 9.46079 3.5 9.875 3.5H11.4393L6.71967 8.21967C6.42678 8.51256 6.42678 8.98744 6.71967 9.28033C7.01256 9.57322 7.48744 9.57322 7.78033 9.28033L12.5 4.56066V6.125C12.5 6.53921 12.8358 6.875 13.25 6.875C13.6642 6.875 14 6.53921 14 6.125V2.75C14 2.33579 13.6642 2 13.25 2H9.875Z" fill="black"/>
</svg>
