<svg width="16" height="16" viewBox="0 0 16 16" fill="none" xmlns="http://www.w3.org/2000/svg">
<path fill-rule="evenodd" clip-rule="evenodd" d="M7.99859 3.3C5.95203 3.3 4.22025 4.71603 3.72833 6.64843C3.60571 7.13012 3.11582 7.42121 2.63412 7.29859C2.15243 7.17597 1.86134 6.68607 1.98396 6.20438C2.67092 3.50581 5.09691 1.5 7.99859 1.5C10.1124 1.5 11.9737 2.56441 13.0943 4.18565L13.271 3.74346C13.4563 3.27977 13.9786 3.05356 14.4376 3.23821C14.8966 3.42286 15.1185 3.94844 14.9332 4.41214L13.9866 6.78064C13.8318 7.16774 13.4352 7.39927 13.0263 7.34119L10.5243 6.98581C10.0344 6.91623 9.69519 6.45917 9.76653 5.96494C9.83787 5.47071 10.2928 5.12646 10.7826 5.19603L11.6917 5.32516C10.9026 4.10315 9.53988 3.3 7.99859 3.3ZM6.23205 10.0311C6.16071 10.5254 5.70579 10.8696 5.21596 10.8L4.30689 10.6709C5.09597 11.8928 6.45869 12.6959 7.99993 12.6959C10.0465 12.6959 11.7783 11.2799 12.2702 9.34751C12.3928 8.86582 12.8827 8.57473 13.3644 8.69735C13.8461 8.81997 14.1372 9.30987 14.0146 9.79156C13.3276 12.4901 10.9016 14.4959 7.99993 14.4959C5.8862 14.4959 4.02488 13.4316 2.90434 11.8104L2.7276 12.2526C2.54228 12.7163 2.01996 12.9425 1.56096 12.7579C1.10196 12.5732 0.8801 12.0476 1.06542 11.5839L2.01203 9.21542C2.16674 8.82832 2.56337 8.59679 2.97229 8.65487L5.4743 9.01026C5.96413 9.07983 6.30339 9.53689 6.23205 10.0311Z" fill="black"/>
</svg>
