<svg width="16" height="16" viewBox="0 0 16 16" fill="none" xmlns="http://www.w3.org/2000/svg">
<path fill-rule="evenodd" clip-rule="evenodd" d="M1 8C1 11.866 4.13401 15 8 15C11.866 15 15 11.866 15 8C15 4.13401 11.866 1 8 1C4.13401 1 1 4.13401 1 8ZM13.6 8C13.6 11.0928 11.0928 13.6 8 13.6C6.94384 13.6 5.95597 13.3076 5.11291 12.7994L5.12987 12.7717L4.88034 9.31008C4.86639 9.11653 4.78341 8.93441 4.64649 8.79689L3.85656 8.00344L3.34585 7.46706C3.16994 7.28231 3.09136 7.02548 3.13377 6.77393L3.36932 5.37674L5.76734 3.682C5.88346 3.59994 5.97592 3.48876 6.03544 3.35963L6.3662 2.64208C6.88307 2.48467 7.43165 2.4 8 2.4C8.51264 2.4 9.0092 2.46888 9.48091 2.5979L8.88834 3.3804L8.05711 4.11872L7.19959 4.91919C7.19959 4.91919 6.81584 5.75975 6.93584 5.82941C7.10155 5.92559 8.24281 5.59441 8.24281 5.59441L9.33293 5.45136L10.5218 5.25052L10.6531 6.25047L9.80264 6.64783L8.43291 6.20627C8.37535 6.18772 8.31436 6.18229 8.25443 6.19039L7.32597 6.31586C7.24371 6.32698 7.16685 6.36311 7.1058 6.41935L6.06569 7.37766C5.95141 7.48295 5.90746 7.64436 5.95258 7.79306L6.33146 9.04169C6.37242 9.17668 6.48067 9.28062 6.6172 9.31607L7.86347 9.63965C7.98552 9.67134 8.08585 9.75808 8.13484 9.87427L8.66439 11.1301C8.67768 11.1616 8.68693 11.1947 8.6919 11.2285L8.84056 12.2402C8.86841 12.4297 9.02522 12.5738 9.2164 12.5855L9.79688 12.6212C9.94839 12.6305 10.0924 12.5542 10.1699 12.4237L11.141 10.7883C11.1815 10.7202 11.2011 10.6417 11.1974 10.5626L11.1715 10.0108C11.1705 9.98791 11.1713 9.96499 11.1741 9.94227L11.3488 8.52617C11.3622 8.41764 11.3312 8.30831 11.2627 8.22304L10.9012 7.77282C10.8264 7.67963 10.8203 7.54877 10.8862 7.44909C10.9817 7.3047 11.1853 7.28347 11.3086 7.40505L11.5179 7.61156C11.6652 7.75695 11.9032 7.75306 12.0458 7.60294C12.1781 7.4636 12.1816 7.24615 12.0539 7.10257L11.6084 6.60175L13.3041 6.66085L13.4123 6.55687C13.5347 7.01729 13.6 7.50102 13.6 8Z" fill="black"/>
</svg>
