<svg width="16" height="16" viewBox="0 0 16 16" fill="none" xmlns="http://www.w3.org/2000/svg">
<path d="M10.4771 3.48309C11.0404 2.91978 11.9536 2.91978 12.517 3.48309C13.0803 4.04639 13.0803 4.95968 12.517 5.52298L9.60281 8.43713C9.03951 9.00043 8.12621 9.00043 7.56291 8.43713C7.16055 8.03477 6.5082 8.03477 6.10584 8.43713C5.70348 8.83949 5.70348 9.49184 6.10584 9.8942C7.47386 11.2622 9.69186 11.2622 11.0599 9.8942L13.974 6.98006C15.342 5.61203 15.342 3.39404 13.974 2.02602C12.606 0.657995 10.388 0.657995 9.01998 2.02602L8.43715 2.60884C8.03479 3.0112 8.03479 3.66356 8.43715 4.06591C8.83951 4.46827 9.49187 4.46827 9.89422 4.06591L10.4771 3.48309Z" fill="black"/>
<path d="M6.3972 7.56287C6.9605 6.99957 7.87379 6.99957 8.4371 7.56287C8.83945 7.96523 9.49181 7.96523 9.89417 7.56287C10.2965 7.16052 10.2965 6.50816 9.89417 6.1058C8.52615 4.73778 6.30815 4.73778 4.94013 6.1058L2.02598 9.01995C0.657964 10.388 0.657964 12.606 2.02598 13.974C3.39401 15.342 5.612 15.342 6.98002 13.974L7.56285 13.3912C7.96521 12.9888 7.96521 12.3364 7.56285 11.9341C7.16049 11.5317 6.50814 11.5317 6.10578 11.9341L5.52295 12.5169C4.95965 13.0802 4.04636 13.0802 3.48306 12.5169C2.91975 11.9536 2.91975 11.0403 3.48306 10.477L6.3972 7.56287Z" fill="black"/>
</svg>
