<svg width="16" height="16" viewBox="0 0 16 16" fill="none" xmlns="http://www.w3.org/2000/svg">
<path d="M6 4C6 2.89543 6.89543 2 8 2C9.10457 2 10 2.89543 10 4V7.33333C10 8.4379 9.10457 9.33333 8 9.33333C6.89543 9.33333 6 8.4379 6 7.33333V4Z" fill="black"/>
<path d="M4 6C4.36819 6 4.66667 6.29848 4.66667 6.66667V7.33333C4.66667 9.17428 6.15905 10.6667 8 10.6667C9.84095 10.6667 11.3333 9.17428 11.3333 7.33333V6.66667C11.3333 6.29848 11.6318 6 12 6C12.3682 6 12.6667 6.29848 12.6667 6.66667V7.33333C12.6667 9.68488 10.9274 11.6302 8.66504 11.953C8.66612 11.9685 8.66667 11.9842 8.66667 12V13.3333C8.66667 13.7015 8.36819 14 8 14C7.63181 14 7.33334 13.7015 7.33334 13.3333V12C7.33334 11.9842 7.33389 11.9685 7.33497 11.953C5.07264 11.6302 3.33334 9.68488 3.33334 7.33333V6.66667C3.33334 6.29848 3.63181 6 4 6Z" fill="black"/>
</svg>
