<svg width="16" height="16" viewBox="0 0 16 16" fill="none" xmlns="http://www.w3.org/2000/svg">
<path d="M6.0953 3.38823L10 7.29293V4C10 2.89543 9.10457 2 8 2C7.10881 2 6.35376 2.58289 6.0953 3.38823Z" fill="black"/>
<path d="M2.86193 2.86189C3.12228 2.60154 3.54439 2.60154 3.80474 2.86189L13.1381 12.1952C13.3984 12.4556 13.3984 12.8777 13.1381 13.138C12.8777 13.3984 12.4556 13.3984 12.1953 13.138L10.396 11.3387C9.87612 11.6504 9.29057 11.8637 8.66503 11.9529C8.66611 11.9685 8.66666 11.9841 8.66666 12V13.3333C8.66666 13.7015 8.36819 14 8 14C7.63181 14 7.33333 13.7015 7.33333 13.3333V12C7.33333 11.9841 7.33388 11.9685 7.33496 11.9529C5.07264 11.6301 3.33333 9.68484 3.33333 7.33329V6.66663C3.33333 6.29844 3.63181 5.99996 4 5.99996C4.36819 5.99996 4.66666 6.29844 4.66666 6.66663V7.33329C4.66666 9.17424 6.15905 10.6666 8 10.6666C8.50443 10.6666 8.98269 10.5546 9.41125 10.354L8.35848 9.30125C8.24218 9.3223 8.12237 9.33329 8 9.33329C6.89543 9.33329 6 8.43786 6 7.33329V6.94277L2.86193 3.8047C2.60158 3.54435 2.60158 3.12224 2.86193 2.86189Z" fill="black"/>
<path d="M11.8529 9.9672C12.3663 9.21757 12.6667 8.31051 12.6667 7.33329V6.66663C12.6667 6.29844 12.3682 5.99996 12 5.99996C11.6318 5.99996 11.3333 6.29844 11.3333 6.66663V7.33329C11.3333 7.9409 11.1708 8.51054 10.8868 9.00108L11.8529 9.9672Z" fill="black"/>
</svg>
