<svg width="16" height="16" viewBox="0 0 16 16" fill="none" xmlns="http://www.w3.org/2000/svg">
<path d="M8.68801 3.30687L8.58624 3.30005C8.21681 3.30032 7.89523 3.57357 7.84447 3.94986C7.78908 4.36035 8.07696 4.73802 8.48745 4.7934C10.0887 5.00944 11.3002 6.39015 11.3002 8.03215C11.3002 9.83776 9.84437 11.3001 8.0502 11.3001C6.25603 11.3001 4.8002 9.83776 4.8002 8.03215C4.8002 7.52329 4.91585 7.03325 5.13181 6.59175L5.69057 8.12573L5.73181 8.21902C5.90369 8.54603 6.29506 8.70385 6.65186 8.57398C7.04109 8.43231 7.24178 8.00193 7.10011 7.6127L6.07405 4.79362L6.03281 4.70033C5.86094 4.37332 5.46956 4.2155 5.11277 4.34537L2.29369 5.37143L2.2004 5.41267C1.87338 5.58454 1.71557 5.97591 1.84543 6.33271L1.88668 6.426C2.05855 6.75302 2.44992 6.91083 2.80672 6.78097L3.54716 6.51126C3.38525 6.99468 3.3002 7.50706 3.3002 8.03215C3.3002 10.6647 5.4261 12.8001 8.0502 12.8001C10.6743 12.8001 12.8002 10.6647 12.8002 8.03215C12.8002 5.63804 11.0323 3.62316 8.68801 3.30687Z" fill="black"/>
</svg>
