<svg width="16" height="16" viewBox="0 0 16 16" fill="none" xmlns="http://www.w3.org/2000/svg">
<path fill-rule="evenodd" clip-rule="evenodd" d="M11.3828 11.9241C11.5007 11.8753 11.6112 11.803 11.7071 11.7071C11.9024 11.5118 12 11.2559 12 11L12 6C12 5.44772 11.5523 5 11 5C10.4477 5 10 5.44772 10 6V8.58579L5.70711 4.29289C5.31658 3.90237 4.68342 3.90237 4.29289 4.29289C3.90237 4.68342 3.90237 5.31658 4.29289 5.70711L8.58579 10L6 10C5.44772 10 5 10.4477 5 11C5 11.5523 5.44771 12 6 12H10.9992C11.0025 12 11.0059 12 11.0092 12C11.1364 11.9988 11.2634 11.9735 11.3828 11.9241Z" fill="black"/>
</svg>
