<svg width="16" height="16" viewBox="0 0 16 16" fill="none" xmlns="http://www.w3.org/2000/svg">
<path fill-rule="evenodd" clip-rule="evenodd" d="M7 3C7 2.44772 7.44772 2 8 2C8.55228 2 9 2.44772 9 3V13C9 13.5523 8.55228 14 8 14C7.44772 14 7 13.5523 7 13V3ZM3 6C3 5.44772 3.44772 5 4 5C4.55228 5 5 5.44772 5 6V10C5 10.5523 4.55228 11 4 11C3.44772 11 3 10.5523 3 10V6ZM12 5C11.4477 5 11 5.44772 11 6V10C11 10.5523 11.4477 11 12 11C12.5523 11 13 10.5523 13 10V6C13 5.44772 12.5523 5 12 5Z" fill="black"/>
</svg>
