<svg width="16" height="16" viewBox="0 0 16 16" fill="none" xmlns="http://www.w3.org/2000/svg">
<path fill-rule="evenodd" clip-rule="evenodd" d="M4.07509 2.8674L7.53991 2.37242C7.91382 2.31901 8.29106 2.44475 8.55814 2.71184L14.3564 8.51011C14.825 8.97874 14.825 9.73854 14.3564 10.2072L10.3966 14.167C9.92799 14.6356 9.16819 14.6356 8.69956 14.167L2.90129 8.36869C2.63421 8.10161 2.50846 7.72437 2.56188 7.35046L3.05685 3.88563C3.13228 3.35766 3.54711 2.94282 4.07509 2.8674ZM5.57062 5.38116C5.08246 5.86932 5.08246 6.66078 5.57062 7.14893C6.05877 7.63709 6.85023 7.63709 7.33838 7.14893C7.82654 6.66078 7.82654 5.86932 7.33838 5.38116C6.85023 4.89301 6.05877 4.89301 5.57062 5.38116Z" fill="black"/>
</svg>
