<svg width="16" height="16" viewBox="0 0 16 16" fill="none" xmlns="http://www.w3.org/2000/svg">
<path fill-rule="evenodd" clip-rule="evenodd" d="M8 2C4.68629 2 2 4.68629 2 8C2 11.3137 4.68629 14 8 14C11.3137 14 14 11.3137 14 8C14 4.68629 11.3137 2 8 2ZM7.33333 5.33333C7.33333 4.96514 7.63181 4.66667 8 4.66667C8.36819 4.66667 8.66667 4.96514 8.66667 5.33333V8C8.66667 8.36819 8.36819 8.66667 8 8.66667C7.63181 8.66667 7.33333 8.36819 7.33333 8V5.33333ZM8.66667 10.6667C8.66667 11.0349 8.36819 11.3333 8 11.3333C7.63181 11.3333 7.33333 11.0349 7.33333 10.6667C7.33333 10.2985 7.63181 10 8 10C8.36819 10 8.66667 10.2985 8.66667 10.6667Z" fill="black"/>
</svg>
