<svg width="16" height="16" viewBox="0 0 16 16" fill="none" xmlns="http://www.w3.org/2000/svg">
<path d="M3.73288 3.65656C3.50877 3.37239 3.56368 2.96854 3.85553 2.75453C4.14737 2.54052 4.56563 2.59739 4.78974 2.88156L8.23887 7.25504C8.35093 7.39712 8.56006 7.42556 8.70598 7.31855C8.8519 7.21155 8.87936 7.00962 8.7673 6.86754L6.12973 3.52311C5.90563 3.23895 5.96054 2.8351 6.25238 2.62109C6.54423 2.40708 6.96249 2.46395 7.1866 2.74812L10.9198 7.48177L10.4401 5.73461C10.3455 5.38999 10.557 5.03908 10.9126 4.95083C11.2682 4.86258 11.6332 5.0704 11.7278 5.41502C12.4402 8.00981 14.1737 11.43 11.4427 13.4326C9.69163 14.7166 7.18207 14.3754 5.83743 12.6704L2.1854 8.03966C1.9613 7.75549 2.01621 7.35164 2.30806 7.13763C2.5999 6.92362 3.01816 6.98049 3.24227 7.26466L5.06828 9.58003C5.18033 9.72211 5.38946 9.75055 5.53539 9.64354C5.68131 9.53654 5.70877 9.33461 5.59671 9.19253L2.95914 5.84811C2.73503 5.56394 2.78995 5.16009 3.08179 4.94608C3.37364 4.73207 3.7919 4.78894 4.016 5.07311L6.34924 8.03164C6.46129 8.17372 6.67042 8.20216 6.81635 8.09515C6.96227 7.98815 6.98973 7.78622 6.87767 7.64414L3.73288 3.65656Z" fill="black"/>
</svg>
