<svg width="24" height="24" viewBox="0 0 24 24" fill="none" xmlns="http://www.w3.org/2000/svg">
<path d="M20 6C20 5.44772 19.5523 5 19 5H8C7.44771 5 7 5.44772 7 6C7 6.55228 7.44771 7 8 7H19C19.5523 7 20 6.55228 20 6Z" fill="black"/>
<path d="M20 12C20 11.4477 19.5523 11 19 11H5C4.44771 11 4 11.4477 4 12C4 12.5523 4.44771 13 5 13H19C19.5523 13 20 12.5523 20 12Z" fill="black"/>
<path d="M20 18C20 17.4477 19.5523 17 19 17H13C12.4477 17 12 17.4477 12 18C12 18.5523 12.4477 19 13 19H19C19.5523 19 20 18.5523 20 18Z" fill="black"/>
</svg>
