<svg width="24" height="24" viewBox="0 0 24 24" fill="none" xmlns="http://www.w3.org/2000/svg">
<path d="M4.30506 20H4V18.8909L5.10292 17.7879C5.03557 18.0813 5 18.3866 5 18.7V19.3051L4.30506 20Z" fill="black"/>
<path d="M9 14.6667C8.70035 14.6667 8.4087 14.6998 8.12835 14.7625L9.07246 13.8184C9.32516 14.0433 9.60359 14.2396 9.90288 14.4022L9.6384 14.6667H9Z" fill="black"/>
<path d="M4 17.4766L8.4035 13.0731C8.20273 12.7916 8.03367 12.4858 7.9015 12.1609L4 16.0624V17.4766Z" fill="black"/>
<path d="M15.9193 8.3858C15.7608 8.08269 15.5687 7.80001 15.3479 7.5429L18.8909 4H20V4.30506L15.9193 8.3858Z" fill="black"/>
<path d="M16.4286 10.4667C16.4286 10.5488 16.4264 10.6304 16.422 10.7115L20 7.13349V5.71928L16.3048 9.4145C16.3857 9.75219 16.4286 10.1046 16.4286 10.4667Z" fill="black"/>
<path d="M15.8193 12.7284C15.4302 13.3956 14.874 13.9527 14.2077 14.34L13.881 14.6667H15C15.0959 14.6667 15.191 14.6701 15.2852 14.6767L20 9.96192V8.5477L15.8193 12.7284Z" fill="black"/>
<path d="M16.4404 14.9357C16.7678 15.0631 17.074 15.2326 17.3528 15.4375L20 12.7903V11.3761L16.4404 14.9357Z" fill="black"/>
<path d="M18.0791 16.1255C18.2958 16.3889 18.4798 16.6805 18.6251 16.9937L20 15.6188V14.2046L18.0791 16.1255Z" fill="black"/>
<path d="M19 18.7V19.4472L20 18.4472V17.033L18.9529 18.0801C18.9839 18.2823 19 18.4893 19 18.7Z" fill="black"/>
<path d="M13.7154 6.34703C14.0366 6.48321 14.3382 6.65645 14.6153 6.86136L17.4766 4H16.0624L13.7154 6.34703Z" fill="black"/>
<path d="M14.6482 4L12.6067 6.04147C12.4085 6.01413 12.2059 6 12 6C11.7099 6 11.4266 6.02804 11.1525 6.08154L13.234 4H14.6482Z" fill="black"/>
<path d="M4 13.234L7.66008 9.57391C7.60193 9.86259 7.57143 10.1612 7.57143 10.4667C7.57143 10.661 7.58377 10.8525 7.60772 11.0405L4 14.6482V13.234Z" fill="black"/>
<path d="M20 20V19.8614L19.8614 20H20Z" fill="black"/>
<path d="M11.8198 4L4 11.8198V10.4056L10.4056 4H11.8198Z" fill="black"/>
<path d="M4 8.99135L8.99135 4H7.57714L4 7.57714V8.99135Z" fill="black"/>
<path d="M6.16292 4L4 6.16292V4.74871L4.74871 4H6.16292Z" fill="black"/>
<path d="M15.4286 10.4667C15.4286 12.3813 13.8935 13.9333 12 13.9333C10.1065 13.9333 8.57143 12.3813 8.57143 10.4667C8.57143 8.55208 10.1065 7 12 7C13.8935 7 15.4286 8.55208 15.4286 10.4667Z" fill="black"/>
<path d="M9 15.6667C7.34315 15.6667 6 17.0247 6 18.7V20H18V18.7C18 17.0247 16.6569 15.6667 15 15.6667H9Z" fill="black"/>
</svg>
