<svg width="24" height="24" viewBox="0 0 24 24" fill="none" xmlns="http://www.w3.org/2000/svg">
<path d="M13.7998 20.4004C14.4624 20.4004 14.9998 20.9371 15 21.5996C15 22.2624 14.4625 22.7998 13.7998 22.7998H10.2002C9.53745 22.7998 9 22.2624 9 21.5996C9.00024 20.9371 9.5376 20.4004 10.2002 20.4004H13.7998ZM16.2002 16.7998C16.8628 16.7999 17.4004 17.3373 17.4004 18C17.4004 18.6627 16.8628 19.2001 16.2002 19.2002H7.7998C7.13717 19.2001 6.59964 18.6627 6.59961 18C6.59961 17.3373 7.13715 16.7999 7.7998 16.7998H16.2002ZM15.375 1.7998C18.0264 1.7998 19.352 1.80037 20.1758 2.4043C20.9995 3.00836 21 3.98042 21 5.9248V10.875C21 12.8193 20.9994 13.7914 20.1758 14.3955C19.352 14.9995 18.0264 15 15.375 15H8.625C5.97356 15 4.648 14.9995 3.82422 14.3955C3.0006 13.7914 3 12.8193 3 10.875V5.9248C3 3.98042 3.00049 3.00836 3.82422 2.4043C4.648 1.80037 5.97359 1.7998 8.625 1.7998H15.375ZM12.5439 5.36426C12.3283 4.90316 11.6715 4.90393 11.4561 5.36523L10.7559 6.86523C10.6963 6.99288 10.5934 7.09566 10.4658 7.15527L8.96484 7.85645C8.50353 8.072 8.50352 8.72782 8.96484 8.94336L10.4658 9.64355C10.5934 9.70309 10.6962 9.80609 10.7559 9.93359L11.4561 11.4346C11.6715 11.8962 12.3285 11.8962 12.5439 11.4346L13.2441 9.93359C13.3038 9.80609 13.4066 9.70309 13.5342 9.64355L15.0352 8.94336C15.4965 8.72782 15.4965 8.072 15.0352 7.85645L13.5342 7.15527C13.4066 7.09566 13.3037 6.99288 13.2441 6.86523L12.5439 5.36426Z" fill="black"/>
</svg>
