<svg width="24" height="24" viewBox="0 0 24 24" fill="none" xmlns="http://www.w3.org/2000/svg">
<path d="M17 4C17.5523 4 18 4.44772 18 5L18 19C18 19.5523 17.5523 20 17 20C16.4477 20 16 19.5523 16 19L16 5C16 4.44772 16.4477 4 17 4Z" fill="black"/>
<path d="M7 4C7.55228 4 8 4.44771 8 5L8 19C8 19.5523 7.55228 20 7 20C6.44772 20 6 19.5523 6 19L6 5C6 4.44771 6.44772 4 7 4Z" fill="black"/>
<circle cx="17" cy="10" r="3" transform="rotate(90 17 10)" fill="black"/>
<circle cx="7" cy="14" r="3" transform="rotate(90 7 14)" fill="black"/>
</svg>
