<svg width="24" height="24" viewBox="0 0 24 24" fill="none" xmlns="http://www.w3.org/2000/svg">
<path d="M17.9989 4.00024L21.9989 4L21.9995 13L17.9995 13.0002L17.9989 4.00024ZM1.99939 12.0012C1.99946 13.1418 3.02368 14.0612 4.49951 14.0011C5.52284 13.9593 6.94702 14.1109 8.04122 14.6834C7.28641 17.7301 7.46834 22.0009 9.44833 22.0008C10.7767 22.0007 11.0282 20.4948 11.4273 19.1098C12.4446 15.5747 14.0203 13.7238 15.9995 13.0004L15.9989 4.00037C12.3472 3.41642 10.8779 2.00068 7.41128 2.00089C4.74628 2.00105 2.99889 3.72533 2.99893 4.50116C2.49909 7.00119 1.99921 9.0917 1.99939 12.0012Z" fill="black"/>
</svg>
