<svg width="24" height="24" viewBox="0 0 24 24" fill="none" xmlns="http://www.w3.org/2000/svg">
<path fill-rule="evenodd" clip-rule="evenodd" d="M13.0382 9.62887C10.9437 7.36169 7.07445 7.21698 4.64419 9.01786C5.81935 6.01103 8.73725 3.94484 11.9829 4.00112C14.9408 3.977 17.9546 5.40806 19.3137 8.14153C20.7366 10.5534 19.9452 14.0507 16.9554 14.6295C16.132 14.8546 12.2787 14.6536 13.6697 13.1422C14.4132 12.0408 13.8536 10.5213 13.0382 9.62887ZM11.5832 10.079C12.2243 10.0728 11.8957 9.87061 11.554 9.6604C11.4526 9.59802 11.3501 9.53493 11.2714 9.47605C10.44 9.01779 9.46473 8.79268 8.5214 8.79268C5.44361 8.82484 3.21721 10.7624 4.26046 13.9702C5.01192 17.0896 7.70599 19.598 10.8877 19.9999C9.24888 18.9628 8.25759 17.0172 8.25759 15.0797C8.32155 13.0456 9.56865 10.6579 11.5832 10.079ZM11.1036 14.7501C10.552 14.131 10.1762 13.3914 10.0563 12.5633C9.81648 12.9331 9.61662 13.3351 9.47273 13.7693C8.73725 15.9802 10.0163 18.7378 12.1908 19.5417C14.0614 20.1688 16.1639 19.0513 17.5469 17.8293C17.5888 17.7726 17.6888 17.6682 17.8151 17.5364C18.3156 17.014 19.2293 16.0603 18.5782 15.9319C16.1639 17.1781 12.9662 16.8243 11.1036 14.7501Z" fill="black"/>
</svg>
