<svg width="24" height="24" viewBox="0 0 24 24" fill="none" xmlns="http://www.w3.org/2000/svg">
<path d="M19.6288 6.43351L19.1641 5.43642C19.0912 5.28003 18.9699 5.15373 18.8197 5.07785C18.4501 4.89118 18.0052 5.05172 17.826 5.43642L17.3612 6.43351C17.2336 6.70746 16.9829 6.89694 16.6932 6.93856L15.6362 7.0904C15.4707 7.11418 15.3177 7.19538 15.202 7.32087C14.9179 7.62892 14.9275 8.11836 15.2234 8.41408L15.9914 9.18163C16.2026 9.39274 16.2985 9.69981 16.2469 9.99988L16.0594 11.09C16.0299 11.2611 16.0567 11.4375 16.1354 11.5908C16.3287 11.9676 16.7789 12.1099 17.1408 11.9086L18.0824 11.3849C18.3402 11.2415 18.6498 11.2415 18.9076 11.3849L19.8489 11.9085C19.9961 11.9904 20.1656 12.0183 20.33 11.9877C20.7339 11.9124 21.0028 11.5105 20.9305 11.09L20.7431 9.99983C20.6915 9.69979 20.7874 9.39276 20.9986 9.18168L21.7666 8.41408C21.8872 8.29361 21.9652 8.13433 21.988 7.962C22.0441 7.539 21.7601 7.14877 21.3538 7.0904L20.2968 6.93856C20.0071 6.89694 19.7565 6.70746 19.6288 6.43351Z" fill="black"/>
<path d="M13 9C13 11.2091 11.2091 13 9 13C6.79086 13 5 11.2091 5 9C5 6.79086 6.79086 5 9 5C11.2091 5 13 6.79086 13 9Z" fill="black"/>
<path d="M5.5 15C3.567 15 2 16.567 2 18.5V20H16V18.5C16 16.567 14.433 15 12.5 15H5.5Z" fill="black"/>
</svg>
