<svg width="24" height="24" viewBox="0 0 24 24" fill="none" xmlns="http://www.w3.org/2000/svg">
<path fill-rule="evenodd" clip-rule="evenodd" d="M5 4C4.44772 4 4 4.44772 4 5V19C4 19.5523 4.44772 20 5 20H19C19.5523 20 20 19.5523 20 19V14C20 13.4477 19.5523 13 19 13C18.4477 13 18 13.4477 18 14V18H6V6H10C10.5523 6 11 5.55228 11 5C11 4.44772 10.5523 4 10 4H5ZM14.5 4C13.9477 4 13.5 4.44772 13.5 5C13.5 5.55228 13.9477 6 14.5 6H16.5858L10.2929 12.2929C9.90237 12.6834 9.90237 13.3166 10.2929 13.7071C10.6834 14.0976 11.3166 14.0976 11.7071 13.7071L18 7.41421V9.5C18 10.0523 18.4477 10.5 19 10.5C19.5523 10.5 20 10.0523 20 9.5V5C20 4.44772 19.5523 4 19 4H14.5Z" fill="black"/>
</svg>
