<svg width="24" height="24" viewBox="0 0 24 24" fill="none" xmlns="http://www.w3.org/2000/svg">
<path d="M12 4C7.582 4 4 7.582 4 12C4 16.418 7.582 20 12 20C16.418 20 20 16.418 20 12C20 7.582 16.418 4 12 4ZM17.3353 9.77133C16.4847 7.55733 14.362 6.70133 13.646 6.74667C15.9987 7.664 16.5613 10.786 16.3527 11.7073C16.148 10.6267 15.4953 9.696 15.1047 9.45067C17.3827 14.7873 11.8813 16.4273 10.2027 14.5753C10.6353 14.6873 11.49 14.632 12.13 14.204C12.7287 13.8027 12.7853 13.7787 13.17 13.7487C13.6273 13.7133 13.1427 12.8113 12.144 12.964C11.7333 13.0267 11.056 13.51 10.224 13.1913C9.21867 12.8073 9.25067 11.4353 10.288 11.848C10.5127 11.5567 10.3467 11.006 10.3467 11.006C10.648 10.73 11.028 10.5353 11.26 10.3987C11.412 10.3087 11.8127 10.0607 11.79 9.57867C11.708 9.51467 11.5767 9.43267 11.2793 9.45C10.122 9.52333 10.0447 9.10467 9.968 8.91133C10.02 8.466 10.3173 7.88867 10.8753 7.624C10.0373 7.49533 9.35533 7.88867 9.016 8.39333C8.47667 8.27733 8.146 8.27133 7.604 8.37267C7.39333 8.21267 7.16 7.926 7.01867 7.58533C8.24 6.208 10.018 5.33333 12 5.33333C15.9413 5.33333 17.5087 8.18867 17.3353 9.77133Z" fill="black"/>
</svg>
