<svg width="24" height="24" viewBox="0 0 24 24" fill="none" xmlns="http://www.w3.org/2000/svg">
<path d="M19.4552 10.9986C19.2775 11.3894 18.7225 11.3894 18.5448 10.9986L17.4375 8.5625L15.0014 7.45518C14.6106 7.27755 14.6106 6.72245 15.0014 6.54482L17.4375 5.4375L18.5448 3.0014C18.7225 2.61061 19.2775 2.6106 19.4552 3.0014L20.5625 5.4375L22.9986 6.54482C23.3894 6.72245 23.3894 7.27755 22.9986 7.45518L20.5625 8.5625L19.4552 10.9986Z" fill="black"/>
<path d="M9.45518 19.9986C9.27755 20.3894 8.72245 20.3894 8.54482 19.9986L6.5 15.5L2.0014 13.4552C1.61061 13.2775 1.61061 12.7225 2.0014 12.5448L6.5 10.5L8.54482 6.0014C8.72245 5.61061 9.27755 5.61061 9.45518 6.0014L11.5 10.5L15.9986 12.5448C16.3894 12.7225 16.3894 13.2775 15.9986 13.4552L11.5 15.5L9.45518 19.9986Z" fill="black"/>
</svg>
