<svg width="24" height="24" viewBox="0 0 24 24" fill="none" xmlns="http://www.w3.org/2000/svg">
<path d="M12 3C7.0275 3 3 6.96 3 11.844C3 15.7522 5.5785 19.0665 9.15375 20.235C9.60375 20.3182 9.76875 20.0445 9.76875 19.8097C9.76875 19.5998 9.76125 19.0433 9.7575 18.306C7.254 18.8393 6.726 17.1195 6.726 17.1195C6.3165 16.0988 5.72475 15.8258 5.72475 15.8258C4.9095 15.2775 5.78775 15.2887 5.78775 15.2887C6.6915 15.3503 7.16625 16.2 7.16625 16.2C7.96875 17.5522 9.273 17.1615 9.7875 16.9357C9.8685 16.3635 10.1003 15.9742 10.3575 15.753C8.35875 15.5317 6.258 14.7712 6.258 11.3827C6.258 10.4175 6.60675 9.6285 7.18425 9.00975C7.083 8.78625 6.77925 7.887 7.263 6.669C7.263 6.669 8.01675 6.432 9.738 7.57575C10.458 7.37925 11.223 7.28175 11.988 7.27725C12.753 7.28175 13.518 7.37925 14.238 7.57575C15.948 6.432 16.7017 6.669 16.7017 6.669C17.1855 7.887 16.8818 8.78625 16.7917 9.00975C17.3655 9.6285 17.7142 10.4175 17.7142 11.3827C17.7142 14.7803 15.6105 15.528 13.608 15.7455C13.923 16.011 14.2155 16.5533 14.2155 17.382C14.2155 18.5655 14.2043 19.5165 14.2043 19.8038C14.2043 20.0355 14.3617 20.3123 14.823 20.2238C18.4237 19.0627 21 15.7463 21 11.844C21 6.96 16.9703 3 12 3Z" fill="currentColor"/>
</svg>
