<svg width="24" height="24" viewBox="0 0 24 24" fill="none" xmlns="http://www.w3.org/2000/svg">
<path fill-rule="evenodd" clip-rule="evenodd" d="M2 12C2 17.5228 6.47715 22 12 22C17.5228 22 22 17.5228 22 12C22 6.47715 17.5228 2 12 2C6.47715 2 2 6.47715 2 12ZM20 12C20 16.4183 16.4183 20 12 20C10.4912 20 9.07996 19.5823 7.87559 18.8563L7.89981 18.8167L7.54335 13.8715C7.52342 13.595 7.40487 13.3349 7.20927 13.1384L6.0808 12.0049L5.35122 11.2387C5.09992 10.9747 4.98765 10.6078 5.04824 10.2485L5.38474 8.25249L8.81049 5.83143C8.97637 5.7142 9.10846 5.55537 9.19349 5.37091L9.666 4.34583C10.4044 4.12095 11.1881 4 12 4C12.7323 4 13.4417 4.09841 14.1156 4.28271L13.2691 5.40058L12.0816 6.45531L10.8566 7.59884C10.8566 7.59884 10.3083 8.79964 10.4798 8.89915C10.7165 9.03656 12.3469 8.56344 12.3469 8.56344L13.9042 8.35908L15.6026 8.07217L15.7901 9.50067L14.5752 10.0683L12.6184 9.43753C12.5362 9.41102 12.4491 9.40327 12.3635 9.41484L11.0371 9.59409C10.9196 9.60997 10.8098 9.66158 10.7226 9.74193L9.2367 11.1109C9.07344 11.2614 9.01065 11.4919 9.07511 11.7044L9.61637 13.4881C9.67488 13.681 9.82952 13.8295 10.0246 13.8801L11.805 14.3424C11.9793 14.3876 12.1226 14.5115 12.1926 14.6775L12.9491 16.4715C12.9681 16.5166 12.9813 16.5638 12.9884 16.6122L13.2008 18.0574C13.2406 18.3282 13.4646 18.534 13.7377 18.5508L14.567 18.6017C14.7834 18.6149 14.9891 18.5061 15.0998 18.3196L16.4872 15.9833C16.545 15.886 16.573 15.7739 16.5677 15.6609L16.5308 14.8725C16.5293 14.8399 16.5305 14.8071 16.5345 14.7747L16.7841 12.7517C16.8032 12.5966 16.7588 12.4404 16.661 12.3186L16.1445 11.6755C16.0376 11.5423 16.029 11.3554 16.1232 11.213C16.2596 11.0067 16.5505 10.9764 16.7265 11.1501L17.0255 11.4451C17.236 11.6528 17.576 11.6472 17.7796 11.4328C17.9686 11.2337 17.9737 10.9231 17.7913 10.718L17.1549 10.0025L19.5773 10.0869L19.7318 9.93838C19.9068 10.5961 20 11.2872 20 12Z" fill="black"/>
</svg>
