<svg width="24" height="24" viewBox="0 0 24 24" fill="none" xmlns="http://www.w3.org/2000/svg">
<path fill-rule="evenodd" clip-rule="evenodd" d="M18.6775 8.32434C19.0059 8.55888 19.1343 8.99113 18.949 9.34961C18.7478 9.73873 18.5148 10.1092 18.2528 10.4576C18.3126 10.4958 18.3692 10.5411 18.4215 10.5934L19.9453 12.1172C20.3358 12.5077 20.3358 13.1409 19.9452 13.5314C19.5547 13.9219 18.9215 13.9219 18.531 13.5314L17.0072 12.0076C16.9623 11.9626 16.9226 11.9145 16.888 11.864C16.7163 12.0014 16.5383 12.1318 16.3546 12.2549C15.9287 12.5401 15.478 12.7813 15.0094 12.9764L15.6152 14.7938C15.7898 15.3177 15.5067 15.884 14.9827 16.0587C14.4588 16.2333 13.8925 15.9502 13.7178 15.4262L13.0768 13.5031C12.7189 13.5526 12.3566 13.5775 11.9924 13.577C11.6335 13.5764 11.2764 13.5511 10.9236 13.5019L10.2822 15.4262C10.1076 15.9502 9.54124 16.2333 9.01729 16.0587C8.49335 15.884 8.21018 15.3177 8.38482 14.7938L8.9917 12.9731C8.51856 12.7755 8.06375 12.5309 7.63443 12.2414C7.4557 12.1209 7.28251 11.9934 7.1152 11.8593C7.0799 11.9116 7.03911 11.9613 6.99284 12.0076L5.46905 13.5314C5.07853 13.9219 4.44537 13.9219 4.05484 13.5314C3.66431 13.1409 3.6643 12.5077 4.05481 12.1172L5.5786 10.5934C5.63261 10.5394 5.69126 10.4928 5.75327 10.4537C5.48563 10.0974 5.24826 9.71781 5.04426 9.31894C4.86305 8.96462 4.98969 8.53875 5.31294 8.30661C5.76586 7.98135 6.4034 8.16881 6.70003 8.64097C7.16179 9.37596 7.77369 10.0103 8.5 10.5C9.53034 11.1946 10.7442 11.5666 11.9868 11.5685C13.2294 11.5704 14.4445 11.2022 15.4769 10.5107C16.2037 10.024 16.8168 9.39269 17.2806 8.66049C17.5807 8.18674 18.2211 7.99842 18.6775 8.32434Z" fill="black"/>
</svg>
