<svg width="24" height="24" viewBox="0 0 24 24" fill="none" xmlns="http://www.w3.org/2000/svg">
<path fill-rule="evenodd" clip-rule="evenodd" d="M6.7583 4.4196C6.23137 4.62452 5.78575 4.89774 5.34013 5.34336C4.89451 5.78573 4.62128 6.2346 4.41636 6.75828C4.21795 7.2657 4.08459 7.84794 4.04556 8.70014C4.00652 9.55235 3.99677 9.82557 3.99677 11.9984C3.99677 14.1712 4.00652 14.4444 4.04556 15.2966C4.08459 16.1488 4.2212 16.731 4.41636 17.2385C4.62128 17.7654 4.89451 18.211 5.34013 18.6566C5.78575 19.1023 6.23137 19.3755 6.7583 19.5804C7.26572 19.7788 7.84795 19.9122 8.70016 19.9512C9.55237 19.9902 9.82559 20 11.9984 20C14.1712 20 14.4444 19.9902 15.2966 19.9512C16.1488 19.9122 16.7311 19.7756 17.2385 19.5804C17.7654 19.3755 18.211 19.1023 18.6567 18.6566C19.1023 18.211 19.3755 17.7654 19.5804 17.2385C19.7788 16.731 19.9122 16.1488 19.9512 15.2966C19.9903 14.4444 20 14.1712 20 11.9984C20 9.82557 19.9903 9.55235 19.9512 8.70014C19.9122 7.84794 19.7756 7.2657 19.5804 6.75828C19.3755 6.2346 19.1023 5.78573 18.6599 5.34336C18.2143 4.89774 17.7687 4.62452 17.2417 4.4196C16.7343 4.22118 16.1521 4.08782 15.2999 4.04879C14.4477 4.00976 14.1744 4 12.0016 4C9.82884 4 9.55562 4.00976 8.70341 4.04879C7.84795 4.08457 7.26572 4.22118 6.7583 4.4196ZM15.2316 5.48648C16.0122 5.52226 16.4351 5.65237 16.718 5.76296C17.0921 5.90933 17.3588 6.08172 17.6386 6.36146C17.9183 6.64119 18.0907 6.90791 18.2371 7.28197C18.3476 7.56495 18.4778 7.9878 18.5135 8.76845C18.5526 9.6109 18.5591 9.86461 18.5591 12.0016C18.5591 14.1386 18.5493 14.3924 18.5135 15.2348C18.4778 16.0155 18.3476 16.4383 18.2371 16.7213C18.0907 17.0953 17.9183 17.3621 17.6386 17.6418C17.3588 17.9215 17.0921 18.0939 16.718 18.2403C16.4351 18.3509 16.0122 18.481 15.2316 18.5168C14.3891 18.5558 14.1354 18.5623 11.9984 18.5623C9.86137 18.5623 9.60766 18.5526 8.76521 18.5168C7.98457 18.481 7.56172 18.3509 7.27873 18.2403C6.90467 18.0939 6.63795 17.9215 6.35822 17.6418C6.07849 17.3621 5.9061 17.0953 5.75973 16.7213C5.64913 16.4383 5.51903 16.0155 5.48325 15.2348C5.44421 14.3924 5.43771 14.1386 5.43771 12.0016C5.43771 9.86461 5.44747 9.6109 5.48325 8.76845C5.51903 7.9878 5.64913 7.56495 5.75973 7.28197C5.9061 6.90791 6.07849 6.64119 6.35822 6.36146C6.63795 6.08172 6.90467 5.90933 7.27873 5.76296C7.56172 5.65237 7.98457 5.52226 8.76521 5.48648C9.60766 5.44745 9.86137 5.44094 11.9984 5.44094C14.1354 5.44094 14.3891 5.44745 15.2316 5.48648ZM7.89026 12.0016C7.89026 14.272 9.73128 16.1098 11.9984 16.1098C14.2655 16.1098 16.1066 14.2688 16.1066 12.0016C16.1066 9.73452 14.2688 7.89349 11.9984 7.89349C9.72803 7.89349 7.89026 9.73127 7.89026 12.0016ZM14.6656 12.0016C14.6656 13.4751 13.4719 14.6689 11.9984 14.6689C10.5249 14.6689 9.3312 13.4751 9.3312 12.0016C9.3312 10.5282 10.5249 9.33444 11.9984 9.33444C13.4719 9.33444 14.6656 10.5282 14.6656 12.0016ZM17.232 7.73085C17.232 8.26079 16.8024 8.69039 16.2724 8.69039C15.7425 8.69039 15.3129 8.26079 15.3129 7.73085C15.3129 7.2009 15.7425 6.7713 16.2724 6.7713C16.8024 6.7713 17.232 7.2009 17.232 7.73085Z" fill="black"/>
</svg>
