<svg width="24" height="24" viewBox="0 0 24 24" fill="none" xmlns="http://www.w3.org/2000/svg">
<path fill-rule="evenodd" clip-rule="evenodd" d="M3.28506 10.09C2.82648 9.46136 2.93247 8.55467 3.52181 8.06484C5.95817 6.03981 8.96713 4.95937 12.0539 5.00117C15.1407 5.04297 18.1216 6.20451 20.5064 8.29482C21.0833 8.80045 21.1666 9.7097 20.6924 10.3257C20.2182 10.9417 19.3662 11.0311 18.7893 10.5255C16.8788 8.85091 14.4907 7.92036 12.0178 7.88688C9.54488 7.85339 7.13432 8.71896 5.18249 10.3413C4.59315 10.8311 3.74365 10.7186 3.28506 10.09ZM7.05845 14.1943C6.65496 13.5241 6.83722 12.6312 7.46556 12.2002C8.81143 11.2768 10.3817 10.7961 11.9811 10.8177C13.5804 10.8394 15.1382 11.3625 16.4605 12.322C17.0778 12.7699 17.2376 13.6674 16.8175 14.3265C16.3973 14.9856 15.5563 15.1568 14.939 14.7089C14.0552 14.0676 13.014 13.7179 11.9449 13.7034C10.8759 13.689 9.82633 14.0103 8.92675 14.6275C8.29841 15.0585 7.46195 14.8646 7.05845 14.1943Z" fill="black"/>
<path fill-rule="evenodd" clip-rule="evenodd" d="M10.9932 18.5543C10.4621 17.9725 10.4716 17.0433 11.0144 16.479L11.0242 16.4687C11.567 15.9044 12.4375 15.9185 12.9686 16.5002C13.4998 17.082 13.4903 18.0112 12.9475 18.5756L12.9377 18.5858C12.3949 19.1502 11.5243 19.136 10.9932 18.5543Z" fill="black"/>
</svg>
