<svg width="24" height="24" viewBox="0 0 24 24" fill="none" xmlns="http://www.w3.org/2000/svg">
<g clip-path="url(#clip0_11097_8116)">
<path d="M8.77959 17.5574C8.71883 17.5574 8.66957 17.6067 8.66957 17.6674V19.2769C8.66957 19.553 8.44571 19.7769 8.16957 19.7769H6.54879C6.49356 19.7769 6.44879 19.8217 6.44879 19.8769V21.658C6.44879 21.8469 6.29563 22.0001 6.1067 22.0001H2.50173C2.22555 22.0001 2 21.7762 2 21.5C2 20.8268 2.00278 20.5569 2 19.8836C1.99963 19.8093 2.02223 19.7587 2.07427 19.7067C4.86738 16.9146 7.65901 14.1214 10.4508 11.328C10.5592 11.2196 10.5583 11.2202 10.4951 11.0849C10.0478 10.1272 9.77607 9.12005 9.78867 8.06323C9.80923 6.34466 10.464 4.88182 11.7024 3.69064C12.6177 2.81023 13.7107 2.25634 14.9663 2.07344C17.0458 1.77046 18.8244 2.40996 20.2904 3.8993C21.2191 4.8429 21.7709 5.9922 21.9431 7.30512C22.1774 9.09022 21.6842 10.6765 20.5314 12.0472C19.561 13.2011 18.3117 13.8881 16.8257 14.1446C16.0582 14.2771 15.3014 14.2204 14.5521 14.0234C14.4784 14.0039 14.4317 14.0128 14.3754 14.0693C13.238 15.2114 12.0978 16.3505 10.9596 17.4918C10.9122 17.5393 10.8659 17.5593 10.7985 17.5589C10.1256 17.5563 9.45249 17.5574 8.77959 17.5574ZM17.5601 4.21526C16.6444 4.21526 15.8926 4.96224 15.8931 5.87156C15.8937 6.76457 16.6683 7.54695 17.5553 7.55066C18.444 7.55437 19.2262 6.76865 19.2269 5.87156C19.2276 4.96206 18.4762 4.21526 17.5601 4.21526Z" fill="black"/>
</g>
<defs>
<clipPath id="clip0_11097_8116">
<rect width="20" height="20" fill="white" transform="translate(2 2)"/>
</clipPath>
</defs>
</svg>
