<svg width="24" height="24" viewBox="0 0 24 24" fill="none" xmlns="http://www.w3.org/2000/svg">
<path d="M18 5.5C18 4.67157 18.6716 4 19.5 4C20.3284 4 21 4.67157 21 5.5V19.5C21 20.3284 20.3284 21 19.5 21C18.6716 21 18 20.3284 18 19.5V5.5Z" fill="black"/>
<path d="M5.5 14C4.67157 14 4 14.6716 4 15.5V19.5C4 20.3284 4.67157 21 5.5 21C6.32843 21 7 20.3284 7 19.5V15.5C7 14.6716 6.32843 14 5.5 14Z" fill="black"/>
<path d="M12.5 9C11.6716 9 11 9.67157 11 10.5V19.5C11 20.3284 11.6716 21 12.5 21C13.3284 21 14 20.3284 14 19.5V10.5C14 9.67157 13.3284 9 12.5 9Z" fill="black"/>
</svg>
