<svg width="24" height="24" viewBox="0 0 24 24" fill="none" xmlns="http://www.w3.org/2000/svg">
<path fill-rule="evenodd" clip-rule="evenodd" d="M11 2C11 1.44772 11.4477 1 12 1C12.5523 1 13 1.44772 13 2V5C13 5.55228 12.5523 6 12 6C11.4477 6 11 5.55228 11 5V2ZM16 12C16 14.2091 14.2091 16 12 16C9.79086 16 8 14.2091 8 12C8 9.79086 9.79086 8 12 8C14.2091 8 16 9.79086 16 12ZM23 12C23 11.4477 22.5523 11 22 11H19C18.4477 11 18 11.4477 18 12C18 12.5523 18.4477 13 19 13H22C22.5523 13 23 12.5523 23 12ZM5 11C5.55228 11 6 11.4477 6 12C6 12.5523 5.55228 13 5 13H2C1.44772 13 1 12.5523 1 12C1 11.4477 1.44772 11 2 11H5ZM12 18C11.4477 18 11 18.4477 11 19V22C11 22.5523 11.4477 23 12 23C12.5523 23 13 22.5523 13 22V19C13 18.4477 12.5523 18 12 18ZM4.22182 5.63606C3.83129 5.24554 3.83129 4.61237 4.22182 4.22185C4.61234 3.83132 5.24551 3.83132 5.63603 4.22185L7.75735 6.34317C8.14787 6.73369 8.14787 7.36686 7.75735 7.75738C7.36683 8.14791 6.73366 8.14791 6.34314 7.75738L4.22182 5.63606ZM19.7782 4.22188C19.3876 3.83135 18.7545 3.83135 18.3639 4.22188L16.2426 6.3432C15.8521 6.73372 15.8521 7.36689 16.2426 7.75741C16.6331 8.14794 17.2663 8.14794 17.6568 7.75741L19.7782 5.63609C20.1687 5.24557 20.1687 4.6124 19.7782 4.22188ZM6.34313 16.2426C6.73365 15.8521 7.36681 15.8521 7.75734 16.2426C8.14786 16.6332 8.14786 17.2663 7.75734 17.6568L5.63602 19.7782C5.24549 20.1687 4.61233 20.1687 4.2218 19.7782C3.83128 19.3876 3.83128 18.7545 4.22181 18.3639L6.34313 16.2426ZM16.2426 16.2426C15.8521 16.6331 15.8521 17.2663 16.2426 17.6568L18.3639 19.7781C18.7545 20.1687 19.3876 20.1687 19.7782 19.7781C20.1687 19.3876 20.1687 18.7544 19.7782 18.3639L17.6568 16.2426C17.2663 15.8521 16.6332 15.8521 16.2426 16.2426Z" fill="black"/>
</svg>
