<svg width="24" height="24" viewBox="0 0 24 24" fill="none" xmlns="http://www.w3.org/2000/svg">
<path d="M15.0052 6.51989C15.6887 5.83647 16.7967 5.83647 17.4801 6.51989C18.1635 7.2033 18.1635 8.31134 17.4801 8.99476L13.9446 12.5303C13.2612 13.2137 12.1531 13.2137 11.4697 12.5303C10.9815 12.0421 10.1901 12.0421 9.70194 12.5303C9.21378 13.0185 9.21378 13.8099 9.70194 14.2981C11.3617 15.9578 14.0526 15.9578 15.7123 14.2981L19.2479 10.7625C20.9076 9.1028 20.9076 6.41185 19.2479 4.75212C17.5882 3.09239 14.8972 3.09239 13.2375 4.75212L12.5304 5.45923C12.0422 5.94738 12.0422 6.73884 12.5304 7.22699C13.0185 7.71515 13.81 7.71515 14.2981 7.22699L15.0052 6.51989Z" fill="black"/>
<path d="M10.0554 11.4696C10.7388 10.7862 11.8469 10.7862 12.5303 11.4696C13.0184 11.9578 13.8099 11.9578 14.2981 11.4696C14.7862 10.9815 14.7862 10.19 14.2981 9.70186C12.6383 8.04213 9.94738 8.04213 8.28765 9.70186L4.75212 13.2374C3.09239 14.8971 3.09239 17.5881 4.75212 19.2478C6.41185 20.9075 9.1028 20.9075 10.7625 19.2478L11.4696 18.5407C11.9578 18.0525 11.9578 17.2611 11.4696 16.7729C10.9815 16.2848 10.19 16.2848 9.70187 16.7729L8.99476 17.48C8.31134 18.1634 7.20331 18.1634 6.51989 17.48C5.83647 16.7966 5.83647 15.6886 6.51989 15.0052L10.0554 11.4696Z" fill="black"/>
</svg>
