<svg width="24" height="24" viewBox="0 0 24 24" fill="none" xmlns="http://www.w3.org/2000/svg">
<path d="M12 15.5996C12.6627 15.5996 13.2001 16.1371 13.2002 16.7998C13.2002 17.4625 12.6627 18 12 18H9C8.33726 18 7.7998 17.4625 7.7998 16.7998C7.7999 16.1371 8.33732 15.5996 9 15.5996H12ZM16.8564 8.36523C17.0719 7.90356 17.7279 7.90356 17.9434 8.36523L18.835 10.2754C18.8946 10.4029 18.9975 10.5049 19.125 10.5645L21.0352 11.4561C21.4968 11.6715 21.4968 12.3285 21.0352 12.5439L19.125 13.4346C18.9974 13.4941 18.8946 13.597 18.835 13.7246L17.9434 15.6348C17.7279 16.0964 17.0719 16.0964 16.8564 15.6348L15.9648 13.7246C15.9052 13.5971 15.8024 13.4941 15.6748 13.4346L13.7646 12.5439C13.3032 12.3284 13.3032 11.6716 13.7646 11.4561L15.6748 10.5645C15.8024 10.5049 15.9052 10.4029 15.9648 10.2754L16.8564 8.36523ZM9.59961 10.7998C10.2623 10.7998 10.7998 11.3373 10.7998 12C10.7998 12.6627 10.2624 13.2002 9.59961 13.2002H3.59961C2.93704 13.2 2.40039 12.6626 2.40039 12C2.40042 11.3374 2.93706 10.8 3.59961 10.7998H9.59961ZM12 6C12.6627 6.00001 13.2002 6.53746 13.2002 7.2002C13.2001 7.86284 12.6627 8.40038 12 8.40039H9C8.33732 8.40039 7.79991 7.86285 7.7998 7.2002C7.7998 6.53745 8.33726 6 9 6H12Z" fill="black"/>
</svg>
