<svg width="24" height="24" viewBox="0 0 24 24" fill="none" xmlns="http://www.w3.org/2000/svg">
<path d="M21 9C21 8.44772 20.5523 8 20 8H17.4142L20.7071 4.70711C21.0976 4.31658 21.0976 3.68342 20.7071 3.29289C20.3166 2.90237 19.6834 2.90237 19.2929 3.29289L16 6.58579V4C16 3.44772 15.5523 3 15 3C14.4477 3 14 3.44772 14 4V9C14 9.55229 14.4477 10 15 10H20C20.5523 10 21 9.55229 21 9Z" fill="black"/>
<path d="M8 17.4142V20C8 20.5523 8.44772 21 9 21C9.55228 21 10 20.5523 10 20V15C10 14.4477 9.55228 14 9 14H4C3.44772 14 3 14.4477 3 15C3 15.5523 3.44772 16 4 16H6.58579L3.29289 19.2929C2.90237 19.6834 2.90237 20.3166 3.29289 20.7071C3.68342 21.0976 4.31658 21.0976 4.70711 20.7071L8 17.4142Z" fill="black"/>
</svg>
