<svg width="24" height="24" viewBox="0 0 24 24" fill="none" xmlns="http://www.w3.org/2000/svg">
<path fill-rule="evenodd" clip-rule="evenodd" d="M17.0085 7.83243C16.6645 5.13807 14.5074 3.11955 11.9631 3.11111C10.6147 3.10664 9.37835 3.66746 8.46507 4.59638L19.8935 15.5872C19.9626 15.4149 20.0006 15.2248 20 15.025C19.9977 14.2386 19.3989 13.5991 18.6626 13.5967L17.8626 13.594L17.0085 7.83243ZM7.4164 6.12304C7.42368 6.10717 7.43103 6.09134 7.43845 6.07556L18.2185 16.4429L18.1181 16.4426L18.8392 17.1379C19.1926 17.4787 19.2028 18.0414 18.8621 18.3948C18.5213 18.7482 17.9586 18.7584 17.6052 18.4176L15.5482 16.4341L5.33744 16.4002C4.60106 16.3978 4.00227 15.7583 4.00001 14.9719C3.99774 14.1855 4.59286 13.55 5.32924 13.5525L6.12924 13.5551L6.90257 8.09723L5.16077 6.41763C4.80738 6.07687 4.79715 5.51415 5.13792 5.16076C5.47868 4.80738 6.0414 4.79715 6.39479 5.13791L7.4164 6.12304ZM12.0167 20.8888C13.6531 20.8937 14.9756 19.6408 14.9705 18.0906L9.04462 18.0731L9.05019 18.2381C9.14509 19.7118 10.4387 20.8842 12.0167 20.8888Z" fill="black"/>
</svg>
