<svg width="24" height="24" viewBox="0 0 24 24" fill="none" xmlns="http://www.w3.org/2000/svg">
<path fill-rule="evenodd" clip-rule="evenodd" d="M6 4C4.89543 4 4 4.89543 4 6V18C4 19.1046 4.89543 20 6 20H18C19.1046 20 20 19.1046 20 18V6C20 4.89543 19.1046 4 18 4H6ZM7 7C6.44772 7 6 7.44772 6 8C6 8.55228 6.44772 9 7 9H17C17.5523 9 18 8.55228 18 8C18 7.44772 17.5523 7 17 7H7ZM6 12C6 11.4477 6.44772 11 7 11H10C10.5523 11 11 11.4477 11 12C11 12.5523 10.5523 13 10 13H7C6.44772 13 6 12.5523 6 12ZM18 14.7243V17.7C18 17.8657 17.8657 18 17.7 18H14.7243C14.457 18 14.3231 17.6769 14.5121 17.4879L17.4879 14.5121C17.6769 14.3231 18 14.457 18 14.7243Z" fill="black"/>
</svg>
