<svg width="24" height="24" viewBox="0 0 24 24" fill="none" xmlns="http://www.w3.org/2000/svg">
<path d="M12.0188 20C13.8597 20.0054 15.3475 18.7619 15.3419 17.0179H8.68147C8.78823 18.6758 10.2436 19.9948 12.0188 20Z" fill="black"/>
<path d="M17.0085 7.30388C16.6645 4.84776 14.5074 3.00771 11.9631 3.00002C9.41883 2.99233 7.27333 4.81938 6.94482 7.27347L6.12924 13.3662L5.32924 13.3637C4.59286 13.3615 3.99774 13.9408 4.00001 14.6577C4.00227 15.3745 4.60106 15.9575 5.33744 15.9597L18.6708 16C19.4071 16.0022 20.0023 15.4229 20 14.706C19.9977 13.9892 19.3989 13.4063 18.6626 13.404L17.8626 13.4016L17.0085 7.30388Z" fill="black"/>
</svg>
