<svg width="24" height="24" viewBox="0 0 24 24" fill="none" xmlns="http://www.w3.org/2000/svg">
<path d="M12 2C17.5228 2 22 6.47715 22 12C22 17.5228 17.5228 22 12 22C6.47715 22 2 17.5228 2 12C2 6.47715 6.47715 2 12 2ZM5.07324 16C6.09813 17.771 7.78107 19.1111 9.78906 19.6875C8.95069 18.4199 8.32848 17.188 7.88867 16H5.07324ZM16.1357 16C15.6969 17.1854 15.0758 18.4141 14.2402 19.6787C16.2353 19.0977 17.9069 17.7623 18.9268 16H16.1357ZM10.042 16C10.5061 17.0739 11.1492 18.2031 12.0117 19.3818C12.8744 18.203 13.5182 17.074 13.9824 16H10.042ZM4.25195 10C4.08743 10.6392 4 11.3094 4 12C4 12.6906 4.08743 13.3608 4.25195 14H7.30469C7.00429 12.5847 6.95879 11.2458 7.10449 10H4.25195ZM16.9199 10C17.0656 11.2458 17.0201 12.5846 16.7197 14H19.748C19.9126 13.3608 20 12.6906 20 12C20 11.3094 19.9126 10.6392 19.748 10H16.9199ZM9.125 10C8.95667 11.1912 8.99055 12.5307 9.3584 14H14.666C15.0339 12.5308 15.0687 11.1912 14.9004 10H9.125ZM9.23828 4.48926C7.47352 5.13837 6.00311 6.39322 5.07324 8H7.51758C7.92242 6.6471 8.54147 5.46835 9.23828 4.48926ZM14.7959 4.50293C15.4887 5.47932 16.1039 6.6534 16.5068 8H18.9268C18.003 6.40371 16.5453 5.15563 14.7959 4.50293ZM12.0117 4.31445C11.1281 5.16464 10.2092 6.42036 9.62793 8H14.3965C13.8151 6.42004 12.8955 5.16464 12.0117 4.31445Z" fill="black"/>
</svg>
