<svg width="24" height="24" viewBox="0 0 24 24" fill="none" xmlns="http://www.w3.org/2000/svg">
<path d="M6.02457 4V8H5.12469V4.99998H4.10001V3.99998C4.62075 3.99449 4.95519 3.99611 5.33226 3.99794C5.53796 3.99894 5.75634 4 6.02457 4Z" fill="black"/>
<path d="M9 6C9 5.44772 9.44772 5 10 5H19C19.5523 5 20 5.44772 20 6C20 6.55228 19.5523 7 19 7H10C9.44772 7 9 6.55228 9 6Z" fill="black"/>
<path d="M9 12C9 11.4477 9.44772 11 10 11H19C19.5523 11 20 11.4477 20 12C20 12.5523 19.5523 13 19 13H10C9.44772 13 9 12.5523 9 12Z" fill="black"/>
<path d="M9 18C9 17.4477 9.44772 17 10 17H19C19.5523 17 20 17.4477 20 18C20 18.5523 19.5523 19 19 19H10C9.44772 19 9 18.5523 9 18Z" fill="black"/>
<path d="M4.89331 11.2107C4.89331 10.81 5.11664 10.5013 5.56987 10.5013C5.99682 10.5013 6.21358 10.7772 6.21358 11.0859C6.21358 11.3815 6.06907 11.6048 5.70781 11.8216L5.00498 12.242C4.24303 12.7017 4.00657 13.3126 4 14.0614H7.15287V13.2798H5.11007C5.17576 13.1156 5.3137 12.9973 5.47791 12.8922L6.29897 12.393C6.82445 12.0712 7.1266 11.6245 7.1266 11.0728C7.1266 10.3305 6.542 9.69995 5.58957 9.69995C4.59773 9.69995 4.03284 10.3765 4.03284 11.1253C4.04873 11.1253 4.19345 11.1407 4.36015 11.1584C4.58655 11.1824 4.85352 11.2107 4.89331 11.2107Z" fill="black"/>
<path d="M5.57496 18.3055C5.39104 18.3055 5.27938 18.3384 5.18742 18.3712L4.78674 17.7406L5.90338 16.7817H4.03793V16H7.05287V16.7291L5.94936 17.6487C6.59307 17.675 7.18424 18.1676 7.18424 18.9493C7.18424 19.6849 6.57994 20.3615 5.54868 20.3615C4.55684 20.3615 3.95254 19.7178 3.89999 19.0018L4.7736 18.831C4.79331 19.2645 5.10203 19.5798 5.54868 19.5798C6.00191 19.5798 6.27122 19.2908 6.27122 18.9361C6.27122 18.5354 5.9822 18.3055 5.57496 18.3055Z" fill="black"/>
</svg>
