<svg width="24" height="24" viewBox="0 0 24 24" fill="none" xmlns="http://www.w3.org/2000/svg">
<path d="M16.5175 4.20743C15.1387 3.40267 13.6327 3.00037 12 3.00037C10.367 3.00037 8.86115 3.40267 7.48232 4.20743C6.10348 5.01221 5.01166 6.10403 4.20706 7.48268C3.4023 8.86168 3 10.3676 3 12.0004C3 13.8207 3.49588 15.473 4.48821 16.9572C5.48035 18.4418 6.78102 19.5394 8.39057 20.2501C8.35918 19.4142 8.40999 18.7229 8.54292 18.1761L9.70302 13.2776C9.50768 12.8949 9.41009 12.4184 9.41009 11.848C9.41009 11.184 9.57805 10.6291 9.91396 10.184C10.2497 9.73854 10.66 9.51579 11.1444 9.51579C11.5349 9.51579 11.8358 9.64455 12.0468 9.90267C12.2577 10.1604 12.3633 10.4847 12.3633 10.8752C12.3633 11.1176 12.3182 11.4126 12.2286 11.7601C12.1386 12.1078 12.0215 12.51 11.8771 12.9671C11.7326 13.4241 11.6291 13.7892 11.5665 14.0628C11.4569 14.5392 11.5469 14.9474 11.836 15.2873C12.1249 15.6272 12.5078 15.7971 12.9845 15.7971C13.8205 15.7971 14.506 15.3324 15.0413 14.4026C15.5764 13.4729 15.8439 12.344 15.8439 11.0157C15.8439 9.99243 15.514 9.16023 14.8537 8.51964C14.1935 7.8792 13.2734 7.5587 12.094 7.5587C10.7735 7.5587 9.7051 7.9827 8.88891 8.83007C8.07253 9.67784 7.66432 10.6916 7.66432 11.8709C7.66432 12.5741 7.86367 13.1642 8.26196 13.6407C8.39473 13.797 8.43772 13.9648 8.39091 14.1443C8.37512 14.1913 8.34395 14.3085 8.29714 14.4958C8.25037 14.6832 8.21898 14.8046 8.20337 14.8591C8.14078 15.1093 7.99243 15.1874 7.7579 15.0935C7.15628 14.8435 6.69919 14.41 6.38686 13.7928C6.07435 13.1757 5.91818 12.4609 5.91818 11.6484C5.91818 11.1249 6.00206 10.6014 6.17002 10.078C6.33798 9.55455 6.59951 9.04878 6.95523 8.56029C7.31053 8.0724 7.73643 7.64044 8.23268 7.26552C8.72875 6.89042 9.3323 6.5899 10.0433 6.36296C10.7541 6.1366 11.5199 6.02325 12.3402 6.02325C13.4496 6.02325 14.4457 6.26938 15.3285 6.76144C16.2112 7.25371 16.8851 7.89055 17.35 8.67171C17.8147 9.45291 18.0473 10.2887 18.0473 11.1796C18.0473 12.3515 17.844 13.4062 17.4379 14.3438C17.0317 15.2814 16.4574 16.0176 15.7152 16.5527C14.9728 17.0878 14.129 17.3554 13.1838 17.3554C12.7072 17.3554 12.2619 17.2441 11.8478 17.0214C11.4335 16.7986 11.1484 16.535 10.9923 16.2303C10.6407 17.6129 10.4298 18.4375 10.3594 18.7029C10.2109 19.2577 9.90616 19.8981 9.44527 20.6247C10.2812 20.8747 11.1328 20.9996 12 20.9996C13.6328 20.9996 15.1387 20.5973 16.5175 19.7928C17.8963 18.988 18.9881 17.8962 19.7929 16.5171C20.5975 15.1383 21 13.6326 21 11.9996C21 10.3666 20.5975 8.86096 19.7929 7.48194C18.9883 6.10403 17.8963 5.01221 16.5175 4.20743Z" fill="black"/>
</svg>
