<svg width="24" height="24" viewBox="0 0 24 24" fill="none" xmlns="http://www.w3.org/2000/svg">
<path fill-rule="evenodd" clip-rule="evenodd" d="M4 5C3.44772 5 3 5.44772 3 6C3 6.55228 3.44772 7 4 7H20C20.5523 7 21 6.55228 21 6C21 5.44772 20.5523 5 20 5H4ZM4 11C3.44772 11 3 11.4477 3 12C3 12.5523 3.44772 13 4 13H20C20.5523 13 21 12.5523 21 12C21 11.4477 20.5523 11 20 11H4ZM3 18C3 17.4477 3.44772 17 4 17H11C11.5523 17 12 17.4477 12 18C12 18.5523 11.5523 19 11 19H4C3.44772 19 3 18.5523 3 18ZM15.75 15.433C15.4167 15.2406 15 15.4811 15 15.866V20.1962C15 20.5811 15.4167 20.8216 15.75 20.6292L19.5 18.4641C19.8333 18.2717 19.8333 17.7905 19.5 17.5981L15.75 15.433Z" fill="black"/>
</svg>
