<svg width="24" height="24" viewBox="0 0 24 24" fill="none" xmlns="http://www.w3.org/2000/svg">
<circle cx="12" cy="12" r="6" fill="white"/>
<path fill-rule="evenodd" clip-rule="evenodd" d="M12 3C7.02944 3 3 7.02944 3 12C3 16.9706 7.02944 21 12 21C16.9706 21 21 16.9706 21 12C21 7.02944 16.9706 3 12 3ZM16.6402 8.23178C16.2159 7.87821 15.5853 7.93554 15.2318 8.35982L10.932 13.517L9.70711 12.2929L9.6129 12.2097C9.22061 11.9047 8.65338 11.9324 8.29289 12.2929C7.90237 12.6834 7.90237 13.3166 8.29289 13.7071L10.2929 15.7071L10.3859 15.7894C10.8047 16.1163 11.4187 16.0597 11.7682 15.6402L16.7682 9.64018L16.8425 9.53883C17.1108 9.12054 17.0318 8.55815 16.6402 8.23178Z" fill="black"/>
</svg>
