<svg width="24" height="24" viewBox="0 0 24 24" fill="none" xmlns="http://www.w3.org/2000/svg">
<path fill-rule="evenodd" clip-rule="evenodd" d="M11.99 2C6.47 2 2 6.48 2 12C2 17.52 6.47 22 11.99 22C17.52 22 22 17.52 22 12C22 6.48 17.52 2 11.99 2ZM15.5 11C16.3284 11 17 10.3284 17 9.5C17 8.67157 16.3284 8 15.5 8C14.6716 8 14 8.67157 14 9.5C14 10.3284 14.6716 11 15.5 11ZM10 9.5C10 10.3284 9.32843 11 8.5 11C7.67157 11 7 10.3284 7 9.5C7 8.67157 7.67157 8 8.5 8C9.32843 8 10 8.67157 10 9.5ZM8.65179 17.4598C8.39781 17.787 7.92666 17.8464 7.59945 17.5924C7.27224 17.3384 7.21288 16.8673 7.46686 16.5401C8.54896 15.146 10.2121 14.3132 12.0114 14.3132C13.8032 14.3132 15.4602 15.139 16.5429 16.5233C16.7981 16.8495 16.7404 17.3209 16.4142 17.5761C16.0879 17.8313 15.6165 17.7737 15.3614 17.4474C14.56 16.4228 13.3368 15.8132 12.0114 15.8132C10.6805 15.8132 9.45271 16.428 8.65179 17.4598Z" fill="black"/>
</svg>
