<svg width="24" height="24" viewBox="0 0 24 24" fill="none" xmlns="http://www.w3.org/2000/svg">
<path d="M16 3C16.9145 3 17.7014 2.99777 18.3281 3.08203C18.9835 3.17018 19.6115 3.36933 20.1211 3.87891C20.6307 4.38849 20.8298 5.01647 20.918 5.67188C21.0022 6.29862 21 7.08546 21 8V12C21 12.9145 21.0022 13.7014 20.918 14.3281C20.8298 14.9835 20.6307 15.6115 20.1211 16.1211C19.6115 16.6307 18.9835 16.8298 18.3281 16.918C17.7014 17.0022 16.9145 17 16 17H8C7.08546 17 6.29862 17.0022 5.67188 16.918C5.01647 16.8298 4.38849 16.6307 3.87891 16.1211C3.36933 15.6115 3.17018 14.9835 3.08203 14.3281C2.99777 13.7014 3 12.9145 3 12V8C3 7.08546 2.99777 6.29862 3.08203 5.67188C3.17018 5.01647 3.36933 4.38849 3.87891 3.87891C4.38849 3.36933 5.01647 3.17018 5.67188 3.08203C6.29862 2.99777 7.08546 3 8 3H16Z" stroke="currentColor" stroke-width="2"/>
<path fill-rule="evenodd" clip-rule="evenodd" d="M6.53379 8.97322C6.24415 8.59139 6.3111 8.04065 6.68331 7.74311C8.22209 6.51307 10.1225 5.85679 12.0721 5.88218C14.0217 5.90757 15.9044 6.61312 17.4106 7.88281C17.7749 8.18994 17.8275 8.74223 17.528 9.11639C17.2286 9.49056 16.6904 9.5449 16.3261 9.23777C15.1194 8.22059 13.6111 7.65535 12.0493 7.63502C10.4874 7.61468 8.96493 8.14044 7.73218 9.12585C7.35996 9.42339 6.82343 9.35505 6.53379 8.97322ZM8.91701 11.4663C8.66217 11.0591 8.77729 10.5168 9.17414 10.255C10.0242 9.69413 11.016 9.40211 12.0261 9.41527C13.0362 9.42842 14.0201 9.74617 14.8552 10.329C15.2451 10.6011 15.3461 11.1462 15.0807 11.5466C14.8153 11.9469 14.2842 12.0509 13.8943 11.7788C13.336 11.3893 12.6784 11.1769 12.0033 11.1681C11.3281 11.1593 10.6652 11.3545 10.097 11.7294C9.70016 11.9912 9.17186 11.8734 8.91701 11.4663Z" fill="currentColor"/>
<path fill-rule="evenodd" clip-rule="evenodd" d="M11.4022 14.1146C11.0667 13.7612 11.0727 13.1968 11.4155 12.854L11.4217 12.8478C11.7645 12.505 12.3144 12.5136 12.6498 12.8669C12.9853 13.2203 12.9793 13.7847 12.6365 14.1275L12.6303 14.1337C12.2874 14.4765 11.7376 14.468 11.4022 14.1146Z" fill="currentColor"/>
<path fill-rule="evenodd" clip-rule="evenodd" d="M7 21C7 21.5523 7.5625 22 7.94416 22H16.0558C16.4375 22 17 21.5523 17 21C17 20.4477 16.4375 20 16.0558 20H7.94416C7.5625 20 7 20.4477 7 21Z" fill="currentColor"/>
</svg>
