<svg width="24" height="24" viewBox="0 0 24 24" fill="none" xmlns="http://www.w3.org/2000/svg">
<path fill-rule="evenodd" clip-rule="evenodd" d="M21.9348 13.1582C21.8643 13.7732 21.3454 14.2384 20.7264 14.2416C20.7014 14.2416 20.6764 14.2416 20.6514 14.2416H20.5597C20.0041 14.2443 19.5074 14.5886 19.3099 15.1079C19.1124 15.6272 19.2547 16.2145 19.6681 16.5858C20.1433 17.0239 20.2014 17.7539 19.8014 18.2617C19.3233 18.8557 18.778 19.3924 18.1764 19.8609C17.9622 20.0286 17.6984 20.1204 17.4263 20.1217C17.0816 20.1208 16.7526 19.9768 16.518 19.7242C16.2448 19.443 15.8683 19.2861 15.4763 19.29C15.3166 19.2893 15.1582 19.319 15.0096 19.3775C14.4892 19.5962 14.1578 20.1134 14.1763 20.6775C14.1968 21.3183 13.7217 21.8674 13.0846 21.9392C12.3368 22.0222 11.582 22.0203 10.8346 21.9334C10.1903 21.858 9.71791 21.2915 9.75955 20.6442C9.7878 20.0747 9.45868 19.5478 8.93453 19.3233C8.78362 19.2624 8.62226 19.2316 8.45952 19.2325C8.06777 19.2291 7.69156 19.3856 7.41784 19.6659C6.98008 20.1481 6.24269 20.2065 5.73448 19.7992C5.15022 19.3267 4.62179 18.789 4.15945 18.1967C3.75954 17.6952 3.81789 16.9694 4.29278 16.5383C4.70742 16.1548 4.84322 15.5556 4.63446 15.0308C4.43458 14.5363 3.9593 14.2086 3.4261 14.1974H3.3761C2.7319 14.206 2.17711 13.7448 2.06775 13.1099C1.97608 12.3546 1.97608 11.591 2.06775 10.8357C2.13401 10.2017 2.68078 9.72782 3.31777 9.75235C3.8941 9.77464 4.42832 9.45149 4.67612 8.93067C4.89414 8.4029 4.75744 7.79508 4.33445 7.41147C3.85927 6.97369 3.80118 6.24389 4.20112 5.73644C4.67755 5.14348 5.21994 4.60668 5.81781 4.13642C6.03526 3.96887 6.30165 3.87725 6.57616 3.87558C6.92142 3.87664 7.25062 4.02161 7.48451 4.27559C7.75876 4.55479 8.13484 4.71033 8.52619 4.70643C8.68559 4.70811 8.84389 4.67984 8.99287 4.62309C9.51381 4.40366 9.84532 3.88552 9.82621 3.32057C9.80616 2.68025 10.2813 2.1319 10.9179 2.06055C11.6657 1.97791 12.4205 1.97987 13.1679 2.06638C13.8116 2.14213 14.2837 2.70792 14.243 3.35474C14.211 3.92559 14.5412 4.45495 15.068 4.67726C15.2191 4.73744 15.3803 4.76799 15.543 4.76726C15.9346 4.77063 16.3106 4.61448 16.5847 4.33475C17.0197 3.85433 17.7534 3.79519 18.2597 4.19975C18.8473 4.6707 19.3786 5.20787 19.8431 5.80061C20.2457 6.30422 20.1873 7.03412 19.7097 7.46731C19.2946 7.84298 19.156 8.43672 19.3619 8.95736C19.5677 9.47801 20.0749 9.81637 20.6347 9.80652C21.2747 9.80106 21.8247 10.2594 21.9348 10.8899C22.0217 11.6435 22.0217 12.4046 21.9348 13.1582ZM12.016 16C10.3968 16.0065 8.93335 15.036 8.3092 13.5419C7.68504 12.0477 8.02331 10.3247 9.16602 9.17739C10.3087 8.0301 12.0304 7.68494 13.5271 8.30311C15.0237 8.92127 16 10.3808 16 12.0001C16.0033 14.2043 14.2203 15.9945 12.016 16Z" fill="black"/>
</svg>
