<svg width="24" height="24" viewBox="0 0 24 24" fill="none" xmlns="http://www.w3.org/2000/svg">
<path fill-rule="evenodd" clip-rule="evenodd" d="M3 6C3 4.34315 4.34315 3 6 3H18C19.6569 3 21 4.34315 21 6V18C21 19.6569 19.6569 21 18 21H6C4.34315 21 3 19.6569 3 18V6ZM16 14.5857L13.4142 12L16 9.41421C16.3905 9.02369 16.3905 8.39052 16 8C15.6094 7.60948 14.9763 7.60948 14.5857 8L12 10.5858L9.41421 8.00001C9.02369 7.60949 8.39052 7.60949 8 8.00001C7.60948 8.39054 7.60948 9.0237 8 9.41423L10.5858 12L8.08578 14.5C7.69526 14.8905 7.69526 15.5236 8.08578 15.9142C8.47631 16.3047 9.10947 16.3047 9.5 15.9142L12 13.4142L14.5858 16C14.9763 16.3905 15.6095 16.3905 16 16C16.3905 15.6094 16.3905 14.9763 16 14.5857Z" fill="black"/>
</svg>
