<svg width="24" height="24" viewBox="0 0 24 24" fill="none" xmlns="http://www.w3.org/2000/svg">
<path d="M19.7071 4.29289C19.3166 3.90237 18.6834 3.90237 18.2929 4.29289C17.9024 4.68342 17.9024 5.31658 18.2929 5.70711L18.5863 6.0005C17.2857 6.01883 16.0424 6.54343 15.1213 7.46447L7.46446 15.1213C6.90186 15.6839 6.1388 16 5.34315 16H3C2.44772 16 2 16.4477 2 17C2 17.5523 2.44772 18 3 18H5.34315C6.66923 18 7.941 17.4732 8.87868 16.5355L16.5355 8.87868C17.0812 8.33305 17.8153 8.0193 18.5849 8.00086L18.2929 8.29289C17.9024 8.68342 17.9024 9.31658 18.2929 9.70711C18.6834 10.0976 19.3166 10.0976 19.7071 9.70711L21.7071 7.70711C22.0976 7.31658 22.0976 6.68342 21.7071 6.29289L19.7071 4.29289Z" fill="black"/>
<path d="M8.87868 7.46447L11.2929 9.87868L9.87868 11.2929L7.46446 8.87868C6.90186 8.31607 6.1388 8 5.34315 8H3C2.44772 8 2 7.55229 2 7C2 6.44772 2.44772 6 3 6H5.34315C6.66923 6 7.941 6.52678 8.87868 7.46447Z" fill="black"/>
<path d="M15.1213 16.5355L12.7071 14.1213L14.1213 12.7071L16.5355 15.1213C17.0812 15.667 17.8153 15.9807 18.5849 15.9991L18.2929 15.7071C17.9024 15.3166 17.9024 14.6834 18.2929 14.2929C18.6834 13.9024 19.3166 13.9024 19.7071 14.2929L21.7071 16.2929C22.0976 16.6834 22.0976 17.3166 21.7071 17.7071L19.7071 19.7071C19.3166 20.0976 18.6834 20.0976 18.2929 19.7071C17.9024 19.3166 17.9024 18.6834 18.2929 18.2929L18.5863 17.9995C17.2857 17.9812 16.0424 17.4566 15.1213 16.5355Z" fill="black"/>
</svg>
