<svg width="24" height="24" viewBox="0 0 24 24" fill="none" xmlns="http://www.w3.org/2000/svg">
<path d="M10.4749 15.855L15.4039 12.8084C15.5281 12.7316 15.6329 12.628 15.7105 12.5052C15.9927 12.0587 15.8554 11.4706 15.4039 11.1915L10.4749 8.14491C10.3217 8.05021 10.1447 8 9.96398 8C9.43159 8 9 8.42682 9 8.95333V15.0465C9 15.2252 9.05077 15.4003 9.14653 15.5518C9.4287 15.9983 10.0234 16.134 10.4749 15.855Z" fill="black"/>
<path fill-rule="evenodd" clip-rule="evenodd" d="M22 12C22 17.5228 17.5228 22 12 22C6.47715 22 2 17.5228 2 12C2 6.47715 6.47715 2 12 2C17.5228 2 22 6.47715 22 12ZM12 20C16.4183 20 20 16.4183 20 12C20 7.58172 16.4183 4 12 4C7.58172 4 4 7.58172 4 12C4 16.4183 7.58172 20 12 20Z" fill="black"/>
</svg>
