<svg width="24" height="24" viewBox="0 0 24 24" fill="none" xmlns="http://www.w3.org/2000/svg">
<path d="M20.0193 11.9635C20.0124 10.0734 19.4712 8.23111 18.4684 6.64522L18.4463 6.61043C18.4166 6.5638 18.3905 6.51555 18.3682 6.46612C18.1698 6.02678 18.2651 5.49479 18.6514 5.19072C19.0812 4.85245 19.7076 4.92461 20.0093 5.38081C20.0454 5.43527 20.0809 5.49 20.116 5.54498C20.148 5.59508 20.1795 5.64539 20.2107 5.69591C21.3681 7.57043 21.9918 9.73581 21.9999 11.9563C22.008 14.1768 21.4 16.3467 20.2563 18.2296C20.2255 18.2804 20.1943 18.3309 20.1627 18.3812C20.128 18.4365 20.0928 18.4914 20.0572 18.5462C19.7589 19.0045 19.133 19.0813 18.7007 18.7461C18.3122 18.4449 18.2131 17.9136 18.4082 17.4728C18.4302 17.4232 18.4559 17.3748 18.4853 17.3279L18.5071 17.293C19.4984 15.6999 20.0262 13.8537 20.0193 11.9635Z" fill="black"/>
<path d="M11.6281 5.69416C12.6209 4.98502 14 5.69471 14 6.91476V17.0852C14 18.3053 12.6209 19.0149 11.6281 18.3058L7.39116 15.2794C7.13676 15.0977 6.83194 15 6.5193 15H3.5C2.67157 15 2 14.3284 2 13.5V10.5C2 9.67155 2.67157 8.99998 3.5 8.99998H6.5193C6.83194 8.99998 7.13676 8.9023 7.39116 8.72058L11.6281 5.69416Z" fill="black"/>
</svg>
