<svg width="24" height="24" viewBox="0 0 24 24" fill="none" xmlns="http://www.w3.org/2000/svg">
<path fill-rule="evenodd" clip-rule="evenodd" d="M11.9995 2.85999C12.3739 2.85999 12.7169 3.06907 12.8884 3.40181L15.3714 8.21893L20.7201 9.09189C21.0896 9.15219 21.3944 9.41379 21.5101 9.76982C21.6258 10.1258 21.5329 10.5167 21.2694 10.7826L17.4554 14.6327L18.278 19.9894C18.3348 20.3594 18.1802 20.7301 17.8774 20.9502C17.5745 21.1702 17.1741 21.2027 16.8398 21.0343L11.9995 18.5966L7.15923 21.0343C6.82489 21.2027 6.42451 21.1702 6.12165 20.9502C5.8188 20.7301 5.66421 20.3594 5.72103 19.9894L6.54362 14.6327L2.72957 10.7826C2.46612 10.5167 2.37326 10.1258 2.48894 9.76982C2.60462 9.41379 2.90946 9.15219 3.27892 9.09189L8.62758 8.21893L11.1106 3.40181C11.2822 3.06907 11.6252 2.85999 11.9995 2.85999ZM11.9995 6.04255L10.1746 9.58293C10.0294 9.86451 9.75943 10.0607 9.44678 10.1117L5.51574 10.7533L8.3189 13.5829C8.54185 13.808 8.64498 14.1254 8.59689 14.4385L7.99232 18.3754L11.5497 16.5839C11.8326 16.4414 12.1664 16.4414 12.4493 16.5839L16.0067 18.3754L15.4021 14.4385C15.354 14.1254 15.4572 13.808 15.6801 13.5829L18.4833 10.7533L14.5522 10.1117C14.2396 10.0607 13.9696 9.86451 13.8244 9.58293L11.9995 6.04255Z" fill="black"/>
</svg>
