<svg width="24" height="24" viewBox="0 0 24 24" fill="none" xmlns="http://www.w3.org/2000/svg">
<path d="M12.4484 3.54182C12.2769 3.20908 11.9339 3 11.5595 3C11.1852 3 10.8422 3.20908 10.6707 3.54182L8.18761 8.35895L2.83895 9.23191C2.46949 9.29221 2.16465 9.55381 2.04897 9.90983C1.93329 10.2659 2.02615 10.6567 2.2896 10.9226L6.10365 14.7727L5.28105 20.1294C5.22423 20.4994 5.37883 20.8701 5.68168 21.0902C5.98453 21.3102 6.38492 21.3427 6.71926 21.1743L11.5595 18.7367L16.3998 21.1743C16.7341 21.3427 17.1345 21.3102 17.4374 21.0902C17.7402 20.8701 17.8948 20.4994 17.838 20.1294L17.0154 14.7727L20.8295 10.9226C21.0929 10.6567 21.1858 10.2659 21.0701 9.90983C20.9544 9.55381 20.6496 9.29221 20.2801 9.23191L14.9315 8.35895L12.4484 3.54182Z" fill="black"/>
</svg>
