<svg width="24" height="24" viewBox="0 0 24 24" fill="none" xmlns="http://www.w3.org/2000/svg">
<path fill-rule="evenodd" clip-rule="evenodd" d="M11.9585 2.00003C14.8208 2.00952 17.2475 4.28036 17.6346 7.31151L18.5954 13.7933L19.4954 13.7963C20.3238 13.799 20.9974 14.5184 21 15.4031C21.0025 16.2878 20.333 17.0027 19.5046 17L4.50462 16.9503C3.67619 16.9475 3.00255 16.2281 3.00001 15.3434C2.99746 14.4587 3.66697 13.7438 4.4954 13.7465L5.39539 13.7495L6.31292 7.27397C6.6825 4.24533 9.09618 1.99054 11.9585 2.00003ZM15.3419 18.8519C15.3475 20.5959 13.8597 22.0054 12.0188 22C10.2436 21.9947 8.78823 20.6758 8.68146 19.0178L8.6752 18.8323L15.3419 18.8519ZM13.596 8.27529C13.8767 7.95071 14.3774 7.90685 14.7143 8.17734C15.0252 8.42702 15.088 8.85727 14.875 9.17728L14.8159 9.25481L11.992 12.7247C11.7145 13.0456 11.227 13.089 10.8944 12.8389L10.8206 12.7759L9.23256 11.2459C8.92248 10.9471 8.92248 10.4627 9.23256 10.164C9.51879 9.88818 9.96918 9.86696 10.2807 10.1003L10.3555 10.164L11.3281 11.1004L13.596 8.27529Z" fill="black"/>
</svg>
