<svg width="24" height="24" viewBox="0 0 24 24" fill="none" xmlns="http://www.w3.org/2000/svg">
<path d="M15.5828 9.84695C16.1886 10.2467 17 9.81685 17 9.09622V7.99998H19.001C19.5532 7.99998 20.0009 8.44777 20.001 8.99998L20 15C20 15.5523 19.5523 16 19 16H16.103C15.5507 16 15.103 16.4477 15.103 17C15.103 17.5523 15.5507 18 16.103 18H19C20.6568 18 21.9999 16.6568 22 15L22.001 8.99998C22.001 7.34313 20.6578 5.99998 19.001 5.99998H17V4.90378C17 4.18315 16.1886 3.75331 15.5828 4.15305L12.4059 6.24927C11.8647 6.60641 11.8647 7.39359 12.4059 7.75073L15.5828 9.84695Z" fill="black"/>
<path d="M7 19.0962V18L5 18C3.34315 18 2 16.6569 2 15L2.00098 9.00002C2.00107 7.34324 3.34418 6.00002 5.00098 6.00002L7.89795 6.00002C8.45024 6.00002 8.89795 6.44773 8.89795 7.00002C8.89795 7.5523 8.45023 8.00002 7.89795 8.00002H5.00098C4.44869 8.00002 4.00098 8.44773 4.00098 9.00002L4 15C4.00009 15.5522 4.44777 16 5 16H7V14.9038C7 14.1831 7.81145 13.7533 8.41725 14.1531L11.5941 16.2493C12.1353 16.6064 12.1353 17.3936 11.5941 17.7507L8.41725 19.8469C7.81145 20.2467 7 19.8169 7 19.0962Z" fill="black"/>
</svg>
