<svg width="24" height="24" viewBox="0 0 24 24" fill="none" xmlns="http://www.w3.org/2000/svg">
<path d="M14.7666 20H9.23332C8.40489 20 7.73332 19.3284 7.73332 18.5C7.73332 17.6716 8.40489 17 9.23331 17H10.4V7H7.19998V8.40001C7.19998 9.28366 6.48364 10 5.59999 10C4.71634 10 4 9.28366 4 8.40001V6C4 4.89543 4.89543 4 6 4H18C19.1046 4 20 4.89543 20 6V8.39999C20 9.28365 19.2837 10 18.4 10C17.5163 10 16.8 9.28365 16.8 8.39999V7H13.6V17H14.7666C15.5951 17 16.2666 17.6716 16.2666 18.5C16.2666 19.3284 15.5951 20 14.7666 20Z" fill="black"/>
</svg>
