<svg width="24" height="24" viewBox="0 0 24 24" fill="none" xmlns="http://www.w3.org/2000/svg">
<path fill-rule="evenodd" clip-rule="evenodd" d="M17.3508 8.73918C17.9441 8.39596 18.3993 7.85172 18.6138 7.20339C18.0583 7.5212 17.4444 7.7524 16.7887 7.87635C16.2661 7.33687 15.5191 7 14.6924 7C13.1073 7 11.8213 8.24341 11.8213 9.77681C11.8213 9.99451 11.8459 10.2059 11.8952 10.4092C9.50807 10.2932 7.39209 9.18888 5.97458 7.5069C5.72724 7.91845 5.5859 8.39596 5.5859 8.90444C5.5859 9.86739 6.09292 10.7175 6.86371 11.2157C6.39367 11.2022 5.94993 11.0758 5.56207 10.8693V10.9034C5.56207 12.2493 6.55227 13.372 7.86705 13.6262C7.62628 13.6914 7.37237 13.7239 7.11023 13.7239C6.92534 13.7239 6.74456 13.7073 6.56953 13.6747C6.9352 14.7775 7.99525 15.5807 9.25251 15.6022C8.26971 16.3474 7.03052 16.7915 5.68533 16.7915C5.4536 16.7915 5.22434 16.7788 5 16.7534C6.27123 17.54 7.78159 18 9.40289 18C14.6867 18 17.5751 13.7692 17.5751 10.0994C17.5751 9.97862 17.5726 9.85785 17.5677 9.73947C18.129 9.34778 18.6162 8.85915 19 8.3022C18.4856 8.52308 17.9317 8.67244 17.3508 8.73918Z" fill="black"/>
</svg>
