<svg width="24" height="24" viewBox="0 0 24 24" fill="none" xmlns="http://www.w3.org/2000/svg">
<path fill-rule="evenodd" clip-rule="evenodd" d="M12 22.0716L8.17974 23L5.84093 19.7953L2.32676 18.013L2.56376 14.0315L1 10.3725L3.70191 7.47719L4.82026 3.65352L8.72283 3.19914L12 1L15.2772 3.19914L19.1797 3.65352L20.2981 7.47719L23 10.3725L21.4362 14.0315L21.6732 18.013L18.1591 19.7953L15.8203 23L12 22.0716ZM16.7809 9.62473C17.1259 9.19347 17.056 8.56418 16.6247 8.21917C16.1934 7.87416 15.5641 7.94408 15.2191 8.37534L10.3291 14.4879L8.21899 12.305C7.83514 11.9079 7.20206 11.8972 6.80498 12.281C6.40789 12.6649 6.39716 13.298 6.78101 13.6951L9.68101 16.6951C9.88076 16.9017 10.1598 17.0124 10.4468 16.9989C10.7339 16.9855 11.0013 16.8492 11.1809 16.6247L16.7809 9.62473Z" fill="black"/>
</svg>
