<svg width="24" height="24" viewBox="0 0 24 24" fill="none" xmlns="http://www.w3.org/2000/svg">
<path fill-rule="evenodd" clip-rule="evenodd" d="M12 3C7.02944 3 3 7.02944 3 12C3 16.9706 7.02944 21 12 21C16.9706 21 21 16.9706 21 12C21 7.02944 16.9706 3 12 3ZM11 8C11 7.44772 11.4477 7 12 7C12.5523 7 13 7.44772 13 8V12C13 12.5523 12.5523 13 12 13C11.4477 13 11 12.5523 11 12V8ZM13 16C13 16.5523 12.5523 17 12 17C11.4477 17 11 16.5523 11 16C11 15.4477 11.4477 15 12 15C12.5523 15 13 15.4477 13 16Z" fill="black"/>
</svg>
