<svg width="24" height="24" viewBox="0 0 24 24" fill="none" xmlns="http://www.w3.org/2000/svg">
<path d="M5.59934 5.48495C5.26318 5.05871 5.34555 4.45293 5.78332 4.13192C6.22108 3.8109 6.84848 3.89621 7.18463 4.32246L12.3583 10.8827C12.5264 11.0958 12.8401 11.1385 13.059 10.9779C13.2779 10.8174 13.3191 10.5146 13.151 10.3014L9.19462 5.28479C8.85846 4.85854 8.94083 4.25277 9.3786 3.93175C9.81637 3.61074 10.4438 3.69605 10.7799 4.1223L16.3797 11.2228L15.6601 8.60204C15.5182 8.08511 15.8355 7.55875 16.3689 7.42637C16.9023 7.29399 17.4498 7.60573 17.5917 8.12265C18.6603 12.0148 21.2605 17.1451 17.1641 20.149C14.5375 22.0751 10.7731 21.5632 8.75617 19.0057L3.27813 12.0596C2.94197 11.6334 3.02434 11.0276 3.46211 10.7066C3.89988 10.3856 4.52727 10.4709 4.86343 10.8971L7.60244 14.3702C7.77052 14.5833 8.08422 14.6259 8.3031 14.4654C8.52199 14.3049 8.56317 14.002 8.39509 13.7889L4.43874 8.77228C4.10258 8.34603 4.18495 7.74026 4.62271 7.41924C5.06048 7.09823 5.68787 7.18354 6.02403 7.60978L9.52389 12.0476C9.69197 12.2607 10.0057 12.3034 10.2245 12.1429C10.4434 11.9823 10.4846 11.6795 10.3165 11.4663L5.59934 5.48495Z" fill="black"/>
</svg>
