<svg width="24" height="24" viewBox="0 0 24 24" fill="none" xmlns="http://www.w3.org/2000/svg">
<path d="M15.3863 4.09389C15.768 3.69468 16.401 3.68044 16.8002 4.06208C18.9567 6.12363 20.2 8.97101 20.2 12.0143C20.2 15.0393 18.9716 17.8712 16.8377 19.9304C16.4403 20.3139 15.8072 20.3026 15.4237 19.9052C15.0402 19.5078 15.0515 18.8748 15.4489 18.4912C17.1961 16.8051 18.2 14.4909 18.2 12.0143C18.2 9.52276 17.1839 7.19578 15.4181 5.50775C15.0189 5.12611 15.0047 4.49311 15.3863 4.09389Z" fill="black"/>
<path d="M12.5729 6.95204C12.9506 6.54911 13.5835 6.52866 13.9864 6.90636C15.3886 8.22075 16.2 10.0538 16.2 12.0143C16.2 13.9742 15.389 15.8068 13.9875 17.1211C13.5846 17.4989 12.9518 17.4786 12.574 17.0757C12.1962 16.6729 12.2165 16.04 12.6194 15.6622C13.6218 14.7222 14.2 13.4157 14.2 12.0143C14.2 10.6125 13.6215 9.30563 12.6186 8.36552C12.2157 7.98781 12.1952 7.35498 12.5729 6.95204Z" fill="black"/>
<path d="M4.836 16.8186L10.9718 13.0104C11.1264 12.9145 11.2569 12.7849 11.3534 12.6314C11.7047 12.0733 11.5338 11.3381 10.9718 10.9893L4.836 7.18107C4.64528 7.0627 4.4249 6.99994 4.2 6.99994C3.53726 6.99994 3 7.53346 3 8.1916V15.8081C3 16.0315 3.0632 16.2503 3.1824 16.4397C3.53365 16.9978 4.274 17.1675 4.836 16.8186Z" fill="black"/>
</svg>
