<svg width="16" height="16" viewBox="0 0 16 16" fill="none" xmlns="http://www.w3.org/2000/svg">
<path d="M12.9497 7.29301C12.9895 7.3328 13.0244 7.37575 13.0561 7.42007C13.0613 7.42729 13.067 7.4341 13.072 7.44147L13.0775 7.44976C13.083 7.45815 13.0881 7.46679 13.0934 7.47531C13.1045 7.49328 13.1159 7.51116 13.1258 7.52986C13.1498 7.57487 13.1686 7.6219 13.1852 7.66935C13.1904 7.68402 13.1959 7.69857 13.2004 7.71354C13.2477 7.87226 13.2549 8.0402 13.2218 8.20175C13.2128 8.24576 13.2005 8.2885 13.1859 8.33019C13.1694 8.37756 13.1497 8.42406 13.1258 8.46899C13.1159 8.48772 13.1045 8.50554 13.0934 8.52354C13.0533 8.58862 13.0062 8.65081 12.9497 8.70722L9.41421 12.2428C9.02369 12.6333 8.39052 12.6333 8 12.2428C7.60948 11.8522 7.60948 11.2191 8 10.8285L9.82853 9.00001H3.75736C3.20507 9.00001 2.75747 8.5524 2.75747 8.00012C2.75747 7.44783 3.20507 7.00022 3.75736 7.00022H9.82853L8 5.17169C7.60948 4.78116 7.60948 4.148 8 3.75748C8.39052 3.36695 9.02369 3.36695 9.41421 3.75748L12.9497 7.29301Z" fill="black"/>
</svg>
