<svg width="16" height="16" viewBox="0 0 16 16" fill="none" xmlns="http://www.w3.org/2000/svg">
<path fill-rule="evenodd" clip-rule="evenodd" d="M12.5355 3.46452C12.9261 3.85505 12.9261 4.48821 12.5355 4.87874L9.41421 8.00006L12.5355 11.1214C12.9261 11.5119 12.9261 12.1451 12.5355 12.5356C12.145 12.9261 11.5118 12.9261 11.1213 12.5356L8 9.41427L4.87868 12.5356C4.48815 12.9261 3.85499 12.9261 3.46446 12.5356C3.07394 12.1451 3.07394 11.5119 3.46446 11.1214L6.58578 8.00006L3.46446 4.87874C3.07394 4.48821 3.07394 3.85505 3.46446 3.46452C3.85499 3.074 4.48815 3.074 4.87868 3.46452L8 6.58584L11.1213 3.46452C11.5118 3.074 12.145 3.074 12.5355 3.46452Z" fill="black"/>
</svg>
