<svg width="16" height="16" viewBox="0 0 16 16" fill="none" xmlns="http://www.w3.org/2000/svg">
<path fill-rule="evenodd" clip-rule="evenodd" d="M3.83321 1C3.0969 1 2.5 1.5969 2.5 2.33321V13.6668C2.5 14.4031 3.0969 15 3.83321 15H12.1668C12.9031 15 13.5 14.4031 13.5 13.6668V5.04521C13.5 4.69578 13.3628 4.36032 13.118 4.11102L10.4544 1.39902C10.2037 1.14378 9.86097 1 9.50322 1H3.83321ZM9.60118 2.63032C9.26665 2.2897 8.68743 2.52657 8.68743 3.004V5.36667C8.68743 5.66119 8.92619 5.89995 9.22071 5.89995H11.5412C12.014 5.89995 12.253 5.3303 11.9217 4.99299L9.60118 2.63032Z" fill="black"/>
</svg>
