<svg width="16" height="16" viewBox="0 0 16 16" fill="none" xmlns="http://www.w3.org/2000/svg">
<path fill-rule="evenodd" clip-rule="evenodd" d="M11.9241 4.61722C11.8757 4.50014 11.804 4.3904 11.7092 4.29502C11.7078 4.2936 11.7064 4.29219 11.705 4.29078C11.5242 4.11106 11.2751 4 11 4H10.9998H6C5.44772 4 5 4.44772 5 5C5 5.55228 5.44772 6 6 6H8.58579L4.29289 10.2929C3.90237 10.6834 3.90237 11.3166 4.29289 11.7071C4.68342 12.0976 5.31658 12.0976 5.70711 11.7071L10 7.41421V10C10 10.5523 10.4477 11 11 11C11.5523 11 12 10.5523 12 10V5C12 4.86441 11.973 4.73512 11.9241 4.61722Z" fill="black"/>
</svg>
