<svg width="16" height="16" viewBox="0 0 16 16" fill="none" xmlns="http://www.w3.org/2000/svg">
<path fill-rule="evenodd" clip-rule="evenodd" d="M9.04065 8.90898V9.53641H6.84553V8.7934C6.87805 8.32007 6.96748 7.92379 7.11382 7.60457C7.26016 7.28535 7.43089 7.01291 7.62602 6.78726C7.82114 6.5616 8.0271 6.36622 8.2439 6.2011C8.4607 6.03599 8.66125 5.87087 8.84553 5.70576C9.02981 5.54064 9.17886 5.35902 9.29268 5.16088C9.4065 4.96274 9.45799 4.71507 9.44715 4.41787C9.44715 3.91152 9.3252 3.53726 9.0813 3.29509C8.8374 3.05292 8.49864 2.93184 8.06504 2.93184C7.77236 2.93184 7.52033 2.98963 7.30894 3.10521C7.09756 3.22079 6.92412 3.37489 6.78862 3.56753C6.65312 3.76016 6.55285 3.98582 6.4878 4.2445C6.42276 4.50318 6.39024 4.78112 6.39024 5.07832H4C4.01084 4.48391 4.11111 3.93903 4.30081 3.44369C4.49051 2.94835 4.7561 2.51905 5.09756 2.1558C5.43902 1.79255 5.85095 1.5091 6.33333 1.30546C6.81572 1.10182 7.35501 1 7.95122 1C8.72087 1 9.36314 1.10732 9.87805 1.32197C10.393 1.53662 10.8076 1.80356 11.122 2.12278C11.4363 2.442 11.6612 2.78599 11.7967 3.15474C11.9322 3.5235 12 3.86749 12 4.18671C12 4.71507 11.9322 5.14987 11.7967 5.49111C11.6612 5.83235 11.4932 6.12405 11.2927 6.36622C11.0921 6.60838 10.8699 6.81478 10.626 6.98539C10.3821 7.15601 10.1518 7.32663 9.93496 7.49725C9.71816 7.66787 9.52575 7.86325 9.35772 8.0834C9.1897 8.30356 9.08401 8.57875 9.04065 8.90898ZM9.17073 13.0714C9.17073 13.7735 8.59647 14.3428 7.89431 14.3428C7.19214 14.3428 6.61789 13.7735 6.61789 13.0714C6.61789 12.3692 7.19214 11.8 7.89431 11.8C8.59647 11.8 9.17073 12.3692 9.17073 13.0714Z" fill="black"/>
</svg>
