<svg width="16" height="16" viewBox="0 0 16 16" fill="none" xmlns="http://www.w3.org/2000/svg">
<path fill-rule="evenodd" clip-rule="evenodd" d="M8 15C11.866 15 15 11.866 15 8C15 4.13401 11.866 1 8 1C4.13401 1 1 4.13401 1 8C1 11.866 4.13401 15 8 15ZM8.76459 4.49876L9.2957 5.6383C9.44161 5.95138 9.72805 6.16793 10.0592 6.21549L11.2672 6.38903C11.7315 6.45574 12.056 6.90171 11.9919 7.38515C11.9658 7.58209 11.8767 7.76412 11.7389 7.9018L10.8612 8.77906C10.6198 9.0203 10.5102 9.37118 10.5692 9.71409L10.7833 10.9599C10.866 11.4406 10.5587 11.8999 10.097 11.986C9.90921 12.021 9.71554 11.9891 9.54724 11.8955L8.47147 11.297C8.17683 11.1331 7.82306 11.1331 7.52841 11.297L6.45232 11.8955C6.03868 12.1256 5.52422 11.963 5.30323 11.5324C5.21332 11.3571 5.18271 11.1555 5.21635 10.9599L5.43065 9.71415C5.48965 9.37121 5.38007 9.02028 5.13866 8.779L4.26097 7.9018C3.92282 7.56384 3.91185 7.00448 4.23647 6.65243C4.36872 6.50901 4.54356 6.41621 4.73273 6.38903L5.94074 6.21549C6.27185 6.16793 6.55829 5.95138 6.7042 5.6383L7.23531 4.49876C7.44022 4.05911 7.94867 3.87564 8.37097 4.08897C8.54264 4.17569 8.68129 4.32003 8.76459 4.49876Z" fill="black"/>
</svg>
