<svg width="16" height="16" viewBox="0 0 16 16" fill="none" xmlns="http://www.w3.org/2000/svg">
<path fill-rule="evenodd" clip-rule="evenodd" d="M13.9609 8.69492C13.9186 9.06389 13.6072 9.34304 13.2359 9.34493C13.2209 9.34493 13.2059 9.34493 13.1909 9.34493H13.1359C12.8025 9.34655 12.5045 9.55311 12.386 9.8647C12.2675 10.1763 12.3529 10.5287 12.6009 10.7515C12.8861 11.0143 12.9209 11.4523 12.6809 11.757C12.3941 12.1134 12.0669 12.4354 11.7059 12.7165C11.5775 12.8171 11.4191 12.8722 11.2559 12.873C11.0491 12.8724 10.8517 12.7861 10.711 12.6345C10.5471 12.4658 10.3212 12.3716 10.086 12.374C9.99017 12.3735 9.89514 12.3913 9.80599 12.4265C9.49377 12.5577 9.29489 12.868 9.30601 13.2065C9.31833 13.591 9.03327 13.9204 8.65103 13.9635C8.20236 14.0133 7.74949 14.0121 7.30108 13.96C6.91457 13.9148 6.63112 13.5748 6.6561 13.1865C6.67305 12.8448 6.47559 12.5286 6.16111 12.394C6.07057 12.3574 5.97376 12.3389 5.87612 12.3395C5.64108 12.3374 5.41537 12.4313 5.25114 12.5995C4.9885 12.8888 4.54609 12.9239 4.24118 12.6795C3.89064 12.396 3.5736 12.0734 3.29621 11.718C3.05627 11.4171 3.09129 10.9816 3.37621 10.723C3.62497 10.4928 3.70645 10.1333 3.5812 9.81844C3.46128 9.52177 3.17613 9.32511 2.85622 9.31843H2.82622C2.43972 9.32355 2.10687 9.04687 2.04125 8.66592C1.98625 8.21275 1.98625 7.75458 2.04125 7.3014C2.081 6.921 2.40905 6.63668 2.79122 6.65139C3.13701 6.66477 3.45752 6.47088 3.6062 6.15839C3.737 5.84173 3.65498 5.47704 3.4012 5.24687C3.11611 4.9842 3.08126 4.54633 3.32121 4.24186C3.60705 3.88608 3.93247 3.56401 4.29118 3.28185C4.42164 3.18132 4.58147 3.12635 4.74616 3.12534C4.95331 3.12598 5.15082 3.21296 5.29114 3.36535C5.45569 3.53287 5.68132 3.6262 5.91612 3.62385C6.01176 3.62486 6.10673 3.6079 6.19611 3.57385C6.50867 3.44219 6.70756 3.13131 6.6961 2.79234C6.68406 2.40815 6.96911 2.07914 7.35107 2.03633C7.79976 1.98675 8.25261 1.98792 8.70103 2.03983C9.08721 2.08528 9.37045 2.42475 9.34601 2.81284C9.32683 3.15535 9.52495 3.47296 9.84099 3.60635C9.93165 3.64246 10.0284 3.66079 10.126 3.66035C10.3609 3.66237 10.5866 3.56869 10.751 3.40085C11.012 3.11259 11.4521 3.07711 11.7559 3.31985C12.1085 3.60241 12.4272 3.92472 12.7059 4.28036C12.9475 4.58252 12.9124 5.02046 12.6259 5.28037C12.3768 5.50577 12.2937 5.86202 12.4172 6.1744C12.5407 6.48679 12.845 6.68981 13.1809 6.68389C13.5649 6.68062 13.8948 6.95562 13.9609 7.3339C14.013 7.78608 14.013 8.24275 13.9609 8.69492ZM8.00992 10.4C7.03841 10.4039 6.1604 9.8216 5.78593 8.92511C5.41146 8.02862 5.61441 6.99479 6.3 6.30642C6.98559 5.61805 8.01855 5.41095 8.91649 5.78185C9.81443 6.15275 10.4002 7.02846 10.4002 8.00003C10.4022 9.32257 9.3324 10.3967 8.00992 10.4Z" fill="black"/>
</svg>
