<svg width="16" height="16" viewBox="0 0 16 16" fill="none" xmlns="http://www.w3.org/2000/svg">
<path fill-rule="evenodd" clip-rule="evenodd" d="M12.1542 3.30909C11.7365 2.94781 11.1049 2.99356 10.7437 3.41128C10.3824 3.829 10.4281 4.46051 10.8459 4.8218C11.738 5.59345 12.3 6.73055 12.3 8.00003C12.3 9.26952 11.738 10.4066 10.8459 11.1783C10.4281 11.5395 10.3824 12.1711 10.7437 12.5888C11.1049 13.0065 11.7365 13.0523 12.1542 12.691C13.4669 11.5556 14.3 9.87455 14.3 8.00003C14.3 6.12552 13.4669 4.44446 12.1542 3.30909ZM3 6L6.4855 3.9087C7.15203 3.50879 8 3.9889 8 4.76619V7.00011V9.00011V11.2338C8 12.0111 7.15203 12.4912 6.4855 12.0913L3.00018 10.0001H2C1.44772 10.0001 1 9.55239 1 9.00011V7.00011C1 6.44782 1.44772 6.00011 2 6.00011H3V6Z" fill="black"/>
</svg>
