<svg width="16" height="16" viewBox="0 0 16 16" fill="none" xmlns="http://www.w3.org/2000/svg">
<path fill-rule="evenodd" clip-rule="evenodd" d="M6.4855 3.9087L3 6V6.00011H2C1.44772 6.00011 1 6.44782 1 7.00011V9.00011C1 9.55239 1.44772 10.0001 2 10.0001H3.00018L6.4855 12.0913C7.15203 12.4912 8 12.0111 8 11.2338V9.00011V7.00011V4.76619C8 3.9889 7.15203 3.50879 6.4855 3.9087ZM10.5555 6.05548C10.8484 5.76258 11.3233 5.76258 11.6161 6.05548L12.4999 6.93928L13.3839 6.05536C13.6768 5.76247 14.1516 5.76247 14.4445 6.05536C14.7374 6.34826 14.7374 6.82313 14.4445 7.11602L13.5606 7.99994L14.4446 8.8839C14.7375 9.1768 14.7375 9.65167 14.4446 9.94456C14.1517 10.2375 13.6768 10.2375 13.3839 9.94456L12.4999 9.0606L11.6161 9.94445C11.3232 10.2373 10.8483 10.2373 10.5554 9.94445C10.2625 9.65156 10.2625 9.17668 10.5554 8.88379L11.4393 7.99994L10.5555 7.11614C10.2626 6.82324 10.2626 6.34837 10.5555 6.05548Z" fill="black"/>
</svg>
