<svg width="16" height="16" viewBox="0 0 16 16" fill="none" xmlns="http://www.w3.org/2000/svg">
<path fill-rule="evenodd" clip-rule="evenodd" d="M1.17957 12.0114L6.85433 2.63819C6.97377 2.44337 7.14194 2.2823 7.34262 2.17051C7.54329 2.05873 7.7697 2 8 2C8.2303 2 8.45671 2.05873 8.65738 2.17051C8.85806 2.2823 9.02623 2.44337 9.14567 2.63819L14.8204 12.0114C14.9374 12.2118 14.9993 12.4391 15 12.6706C15.0006 12.9021 14.94 13.1297 14.8242 13.3308C14.7083 13.532 14.5412 13.6995 14.3396 13.8169C14.1379 13.9343 13.9087 13.9975 13.6748 14H2.32524C2.09128 13.9975 1.86207 13.9343 1.66042 13.8169C1.45877 13.6995 1.2917 13.532 1.17583 13.3308C1.05997 13.1297 0.99935 12.9021 1.00001 12.6706C1.00066 12.4391 1.06257 12.2118 1.17957 12.0114ZM7.29998 5.99997C7.29998 5.63179 7.59846 5.33331 7.96665 5.33331H8.03331C8.4015 5.33331 8.69998 5.63179 8.69998 5.99997V8.66664C8.69998 9.03483 8.4015 9.33331 8.03331 9.33331H7.96665C7.59846 9.33331 7.29998 9.03483 7.29998 8.66664V5.99997ZM8.69998 11.3334C8.69998 11.7016 8.38658 12.0001 7.99998 12.0001C7.61338 12.0001 7.29998 11.7016 7.29998 11.3334C7.29998 10.9652 7.61338 10.6667 7.99998 10.6667C8.38658 10.6667 8.69998 10.9652 8.69998 11.3334Z" fill="black"/>
</svg>
