<svg width="24" height="24" viewBox="0 0 24 24" fill="none" xmlns="http://www.w3.org/2000/svg">
<path d="M13 5.5C13 4.67157 13.6716 4 14.5 4C15.3284 4 16 4.67157 16 5.5V19.5C16 20.3284 15.3284 21 14.5 21C13.6716 21 13 20.3284 13 19.5V5.5Z" fill="black"/>
<path d="M4.5 10C3.67157 10 3 10.6716 3 11.5V19.5C3 20.3284 3.67157 21 4.5 21C5.32843 21 6 20.3284 6 19.5V11.5C6 10.6716 5.32843 10 4.5 10Z" fill="black"/>
<path d="M9.5 13C8.67157 13 8 13.6716 8 14.5V19.5C8 20.3284 8.67157 21 9.5 21C10.3284 21 11 20.3284 11 19.5V14.5C11 13.6716 10.3284 13 9.5 13Z" fill="black"/>
<path d="M19.5 8C18.6716 8 18 8.67157 18 9.5V19.5C18 20.3284 18.6716 21 19.5 21C20.3284 21 21 20.3284 21 19.5V9.5C21 8.67157 20.3284 8 19.5 8Z" fill="black"/>
</svg>
