<svg width="24" height="24" viewBox="0 0 24 24" fill="none" xmlns="http://www.w3.org/2000/svg">
<path d="M18.7305 10.3192L18.6391 10.2329L12.6391 5.2329L12.5793 5.18671L12.4836 5.12612L12.4068 5.08778L12.3173 5.05289L12.2419 5.031L12.1762 5.01679L12.087 5.00493L11.9985 5.0011L11.8904 5.00693L11.8214 5.01699L11.716 5.04189L11.5912 5.08778L11.5143 5.12609L11.41 5.19264L11.3588 5.2329L5.35877 10.2329L5.2674 10.3192C4.92811 10.6823 4.90437 11.2497 5.23074 11.6413C5.5571 12.0329 6.11949 12.1119 6.53779 11.8437L6.63914 11.7693L10.999 8.1367L10.9746 17.999C10.9746 18.5513 11.4223 18.999 11.9746 18.999C12.4874 18.999 12.9101 18.613 12.9678 18.1157L12.9746 17.999L12.999 8.1367L17.3588 11.7693C17.783 12.1229 18.4136 12.0656 18.7672 11.6413C19.0935 11.2497 19.0698 10.6823 18.7305 10.3192Z" fill="black"/>
</svg>
