<svg width="24" height="24" viewBox="0 0 24 24" fill="none" xmlns="http://www.w3.org/2000/svg">
<path d="M18.7305 13.6809L18.6391 13.7672L12.6391 18.7672L12.5793 18.8134L12.4836 18.874L12.4068 18.9124L12.3173 18.9473L12.2419 18.9691L12.1762 18.9834L12.087 18.9952L11.9985 18.999L11.8904 18.9932L11.8214 18.9832L11.716 18.9582L11.5912 18.9124L11.5143 18.8741L11.41 18.8075L11.3588 18.7672L5.35877 13.7672L5.2674 13.6809C4.92811 13.3179 4.90437 12.7505 5.23074 12.3588C5.5571 11.9672 6.11949 11.8882 6.53779 12.1565L6.63914 12.2308L10.999 15.8634L10.9746 6.0011C10.9746 5.44881 11.4223 5.0011 11.9746 5.0011C12.4874 5.0011 12.9101 5.38714 12.9678 5.88448L12.9746 6.0011L12.999 15.8634L17.3588 12.2308C17.783 11.8772 18.4136 11.9346 18.7672 12.3588C19.0935 12.7505 19.0698 13.3179 18.7305 13.6809Z" fill="black"/>
</svg>
