<svg width="24" height="24" viewBox="0 0 24 24" fill="none" xmlns="http://www.w3.org/2000/svg">
<path d="M10.3181 5.26846L10.2318 5.35984L5.2318 11.3598L5.18561 11.4197L5.12502 11.5154L5.08668 11.5922L5.05179 11.6816L5.02991 11.7571L5.01569 11.8227L5.00383 11.912L5 12.0005L5.00583 12.1086L5.01589 12.1776L5.04079 12.283L5.08668 12.4078L5.12499 12.4846L5.19155 12.589L5.2318 12.6402L10.2318 18.6402L10.3181 18.7316C10.6812 19.0709 11.2486 19.0946 11.6402 18.7682C12.0318 18.4419 12.1108 17.8795 11.8426 17.4612L11.7682 17.3598L8.1356 13L17.9979 13.0244C18.5502 13.0244 18.9979 12.5767 18.9979 12.0244C18.9979 11.5116 18.6119 11.0889 18.1146 11.0311L17.9979 11.0244L8.1356 11L11.7682 6.64021C12.1218 6.21593 12.0645 5.58537 11.6402 5.2318C11.2486 4.90544 10.6812 4.92918 10.3181 5.26846Z" fill="black"/>
</svg>
