<svg width="24" height="24" viewBox="0 0 24 24" fill="none" xmlns="http://www.w3.org/2000/svg">
<g clip-path="url(#clip0_7030_7708)">
<path d="M8.00592 20C5.93006 19.9179 4.35326 18.8334 3.16224 16.9929C2.82239 16.4661 3.03977 16.0179 3.646 16.0179C5.39119 16.0214 6.76898 15.2208 7.81916 13.6951C9.13877 11.7793 11.4412 12.1009 12.4546 13.4488C13.1864 14.4203 13.3487 15.905 12.8037 17.01C11.9127 18.8266 10.0052 20.0137 8.00592 20Z" fill="black"/>
<path d="M12.7854 9.89442C12.9415 9.75416 13.0946 9.61048 13.2507 9.4668L12.6874 9.99363C12.7149 9.95942 12.7486 9.92863 12.7854 9.89442Z" fill="black"/>
<path d="M16.5972 11.256C16.2757 11.6528 15.9451 12.0497 15.6175 12.4431C15.4582 12.6346 15.3297 12.7852 15.2164 12.8844L16.5972 11.256Z" fill="black"/>
<path d="M20.9602 5.75159C20.8928 6.08 20.7336 6.37421 20.5254 6.6171L16.5972 11.256L15.2164 12.8844C15.1429 12.9562 15.0786 13.0075 15.0173 13.0383C14.7357 13.1888 14.5366 12.9733 14.108 12.4123C13.7161 11.9025 13.2813 11.4202 12.8159 10.996C12.5955 10.7976 12.4883 10.6128 12.4883 10.4281C12.4883 10.281 12.5557 10.1373 12.6874 9.99362L13.2507 9.46679L18.569 4.51661C18.771 4.32845 19.0007 4.17451 19.2517 4.08556C19.6314 3.95214 20.158 3.91451 20.6112 4.41398C21.0214 4.86555 21.0429 5.36501 20.9602 5.75159Z" fill="black"/>
</g>
<defs>
<clipPath id="clip0_7030_7708">
<rect width="18" height="16" fill="white" transform="translate(3 4)"/>
</clipPath>
</defs>
</svg>
