<svg width="24" height="24" viewBox="0 0 24 24" fill="none" xmlns="http://www.w3.org/2000/svg">
<path fill-rule="evenodd" clip-rule="evenodd" d="M5.5 7.5C6.32843 7.5 7 6.82843 7 6C7 5.17157 6.32843 4.5 5.5 4.5C4.67157 4.5 4 5.17157 4 6C4 6.82843 4.67157 7.5 5.5 7.5ZM9 6C9 5.44772 9.44772 5 10 5H19C19.5523 5 20 5.44772 20 6C20 6.55228 19.5523 7 19 7H10C9.44772 7 9 6.55228 9 6ZM9 12C9 11.4477 9.44772 11 10 11H19C19.5523 11 20 11.4477 20 12C20 12.5523 19.5523 13 19 13H10C9.44772 13 9 12.5523 9 12ZM9 18C9 17.4477 9.44772 17 10 17H19C19.5523 17 20 17.4477 20 18C20 18.5523 19.5523 19 19 19H10C9.44772 19 9 18.5523 9 18ZM7 12C7 12.8284 6.32843 13.5 5.5 13.5C4.67157 13.5 4 12.8284 4 12C4 11.1716 4.67157 10.5 5.5 10.5C6.32843 10.5 7 11.1716 7 12ZM5.5 19.5C6.32843 19.5 7 18.8284 7 18C7 17.1716 6.32843 16.5 5.5 16.5C4.67157 16.5 4 17.1716 4 18C4 18.8284 4.67157 19.5 5.5 19.5Z" fill="black"/>
</svg>
