<svg width="24" height="24" viewBox="0 0 24 24" fill="none" xmlns="http://www.w3.org/2000/svg">
<path d="M20.4639 4C21.3122 4.00001 21.9999 4.68743 22 5.51953V18.4805C21.9999 19.3197 21.3115 20 20.4639 20H3.53613C2.68779 20 2.00007 19.3126 2 18.4805V5.51953C2.00007 4.68031 2.68848 4.00001 3.53613 4H20.4639ZM8.83496 9.01758C8.2121 9.0176 7.67655 9.15187 7.22852 9.41895C6.78057 9.68603 6.43791 10.0641 6.20117 10.5527C5.96453 11.0413 5.84668 11.604 5.84668 12.2402C5.84671 13.1796 6.10493 13.9286 6.62207 14.4873C7.13931 15.0461 7.85873 15.3261 8.78027 15.3262C9.21377 15.3262 9.60413 15.2648 9.9502 15.1436C10.296 15.0224 10.583 14.8628 10.8105 14.6641C11.0381 14.4653 11.2073 14.2557 11.3184 14.0361C11.4295 13.8164 11.4854 13.6092 11.4854 13.416C11.4853 13.2532 11.4248 13.0999 11.3047 12.9561C11.1845 12.8122 11.0336 12.7403 10.8516 12.7402C10.6987 12.7402 10.5694 12.7894 10.4639 12.8877C10.3582 12.9862 10.259 13.1226 10.168 13.2969C10.004 13.5924 9.81563 13.8121 9.60254 13.9561C9.38945 14.1 9.13362 14.1719 8.83496 14.1719C8.6128 14.1719 8.4084 14.1281 8.22266 14.0391C8.03701 13.9501 7.87912 13.8187 7.74805 13.6465C7.61692 13.4741 7.51648 13.2658 7.44727 13.0215C7.37809 12.7773 7.34379 12.5093 7.34375 12.2178C7.34375 11.5965 7.47848 11.1061 7.74805 10.748C8.01758 10.3903 8.37284 10.2109 8.81348 10.2109C9.11936 10.211 9.37183 10.2838 9.57031 10.4277C9.76867 10.5717 9.95863 10.7875 10.1406 11.0752C10.2426 11.2229 10.335 11.3302 10.417 11.3965C10.4989 11.4627 10.6019 11.4961 10.7256 11.4961C10.9149 11.4961 11.0761 11.4313 11.209 11.3027C11.3419 11.174 11.4091 11.0166 11.4092 10.8311C11.4092 10.6492 11.3498 10.4524 11.2314 10.2422C11.1131 10.032 10.9417 9.83402 10.7178 9.64844C10.4937 9.4628 10.2198 9.31178 9.89746 9.19434C9.57515 9.07696 9.22098 9.01758 8.83496 9.01758ZM15.4854 9.01758C14.8625 9.01758 14.3269 9.15191 13.8789 9.41895C13.4308 9.68604 13.0883 10.064 12.8516 10.5527C12.6149 11.0414 12.4961 11.6039 12.4961 12.2402C12.4961 13.1797 12.7552 13.9285 13.2725 14.4873C13.7897 15.0461 14.5091 15.3262 15.4307 15.3262C15.864 15.3261 16.2536 15.2648 16.5996 15.1436C16.9455 15.0224 17.2324 14.8628 17.46 14.6641C17.6876 14.4652 17.8576 14.2558 17.9688 14.0361C18.0799 13.8164 18.1348 13.6092 18.1348 13.416C18.1347 13.2533 18.0751 13.0999 17.9551 12.9561C17.8349 12.8121 17.6831 12.7402 17.501 12.7402C17.3481 12.7403 17.2188 12.7893 17.1133 12.8877C17.0077 12.9862 16.9094 13.1227 16.8184 13.2969C16.6545 13.5923 16.4659 13.8121 16.2529 13.9561C16.0399 14.1 15.7839 14.1718 15.4854 14.1719C15.2632 14.1719 15.0588 14.128 14.873 14.0391C14.6873 13.95 14.5286 13.8189 14.3975 13.6465C14.2664 13.4741 14.1659 13.2658 14.0967 13.0215C14.0275 12.7773 13.9932 12.5093 13.9932 12.2178C13.9932 11.5965 14.1279 11.1061 14.3975 10.748C14.667 10.3902 15.0223 10.211 15.4629 10.2109C15.7689 10.2109 16.0212 10.2838 16.2197 10.4277C16.4182 10.5717 16.6089 10.7873 16.791 11.0752C16.8929 11.2228 16.9845 11.3302 17.0664 11.3965C17.1484 11.4628 17.2521 11.4961 17.376 11.4961C17.5652 11.496 17.7265 11.4314 17.8594 11.3027C17.9923 11.174 18.0585 11.0166 18.0586 10.8311C18.0586 10.6492 17.9993 10.4524 17.8809 10.2422C17.7625 10.0321 17.5911 9.83397 17.3672 9.64844C17.1432 9.46293 16.87 9.31173 16.5479 9.19434C16.2256 9.07693 15.8713 9.01762 15.4854 9.01758Z" fill="black"/>
</svg>
