<svg width="24" height="24" viewBox="0 0 24 24" fill="none" xmlns="http://www.w3.org/2000/svg">
<path fill-rule="evenodd" clip-rule="evenodd" d="M3 10C3 6.68629 5.68629 4 9 4H15C18.3137 4 21 6.68629 21 10V14C21 17.3137 18.3137 20 15 20H5C3.89543 20 3 19.1046 3 18V10ZM7 10C7 9.44772 7.44772 9 8 9H15C15.5523 9 16 9.44772 16 10C16 10.5523 15.5523 11 15 11H8C7.44772 11 7 10.5523 7 10ZM8 13C7.44772 13 7 13.4477 7 14C7 14.5523 7.44772 15 8 15H11C11.5523 15 12 14.5523 12 14C12 13.4477 11.5523 13 11 13H8Z" fill="black"/>
</svg>
