<svg width="24" height="24" viewBox="0 0 24 24" fill="none" xmlns="http://www.w3.org/2000/svg">
<path d="M5.93133 6.78736C7.55133 4.90201 9.77333 4 11.9793 4C14.838 4 17.6693 5.51535 19.124 8.36937C17.3093 8.37003 14.468 8.36937 12.9287 8.36937C11.8127 8.37003 11.092 8.3447 10.3113 8.75537C9.394 9.23804 8.70133 10.1334 8.46 11.1847L5.93133 6.78736ZM9.338 12.0001C9.338 13.4667 10.5307 14.6601 11.9967 14.6601C13.4627 14.6601 14.6553 13.4667 14.6553 12.0001C14.6553 10.5334 13.4627 9.33937 11.9967 9.33937C10.5307 9.33937 9.338 10.5334 9.338 12.0001ZM13.0287 15.4821C11.5367 15.9261 9.79 15.4334 8.83333 13.7827C8.10333 12.5221 6.174 9.16071 5.29667 7.63269C4.41 8.99271 4 10.4954 4 11.9707C4 15.6028 6.484 19.0708 10.4487 19.8495L13.0287 15.4821ZM14.4673 9.33937C15.71 10.4954 15.9813 12.3674 15.1387 13.8187C14.5047 14.9128 12.48 18.3294 11.4987 19.9841C16.2913 20.2795 20 16.4108 20 12.0027C20 11.1274 19.8533 10.2294 19.54 9.33937H14.4673Z" fill="black"/>
</svg>
