<svg width="24" height="24" viewBox="0 0 24 24" fill="none" xmlns="http://www.w3.org/2000/svg">
<path fill-rule="evenodd" clip-rule="evenodd" d="M15.1247 9.93595L17.326 11.2519C17.9338 11.6153 18.1421 12.4201 17.7911 13.0495C17.5735 13.4399 17.1918 13.6711 16.7882 13.7037L16.9524 14.4368C17.1075 15.154 17.2354 15.8237 17.3362 16.4457L17.4279 17.0519C17.7446 19.3148 17.6618 20.8785 17.1798 21.7429C16.7119 21.9853 15.9801 22.0557 15.0838 21.9566C15.643 20.2993 15.7426 18.7706 15.3825 17.3694C14.9729 19.2895 14.5136 20.7573 14.0044 21.7729C12.8689 21.5163 11.5717 21.0456 10.2557 20.3635C11.032 19.7468 11.7198 18.6315 12.3193 17.0181C11.5238 18.4448 10.3728 19.2939 8.86633 19.5654C7.81806 18.9017 6.79064 18.1043 5.85613 17.1745C6.55332 16.8668 7.28818 16.2591 8.06055 15.3524C6.91903 15.9098 5.872 16.1784 4.91944 16.1582C4.13195 15.2242 3.44327 14.1799 2.90909 13.0268C7.18872 13.5306 11.7064 12.8767 13.3701 11.6968C13.1687 11.3093 13.1607 10.8264 13.3886 10.4176C13.7396 9.78821 14.5169 9.57256 15.1247 9.93595ZM6.85692 7.62541L7.90157 8.8536L9.45112 9.17626L8.26498 10.2579L7.95336 11.8624L6.90871 10.6342L5.35916 10.3116L6.5453 9.22989L6.85692 7.62541ZM20.6223 2.58585C21.0344 2.8322 21.2027 3.35926 21.0137 3.81143L18.2961 10.3124L15.4131 8.58887L19.4106 2.85455C19.6881 2.45643 20.2116 2.34034 20.6223 2.58585ZM12.7648 4.41164L13.3916 5.14856L14.3213 5.34216L13.6096 5.99117L13.4227 6.95386L12.7959 6.21694L11.8661 6.02334L12.5778 5.37434L12.7648 4.41164ZM7.96525 2L8.90543 3.10537L10.3 3.39577L9.2325 4.36928L8.95204 5.81332L8.01186 4.70795L6.61726 4.41755L7.68479 3.44404L7.96525 2Z" fill="black"/>
</svg>
