<svg width="24" height="24" viewBox="0 0 24 24" fill="none" xmlns="http://www.w3.org/2000/svg">
<path d="M4 6C4 5.44772 4.44772 5 5 5H13C13.5523 5 14 5.44772 14 6C14 6.55228 13.5523 7 13 7H5C4.44772 7 4 6.55228 4 6Z" fill="black"/>
<path d="M5 17C4.44772 17 4 17.4477 4 18C4 18.5523 4.44772 19 5 19H13C13.5523 19 14 18.5523 14 18C14 17.4477 13.5523 17 13 17H5Z" fill="black"/>
<path d="M5 12H19M19 12L16.5 9M19 12L16.5 15" stroke="black" stroke-width="2" stroke-linecap="round" stroke-linejoin="round"/>
</svg>
