<svg width="24" height="24" viewBox="0 0 24 24" fill="none" xmlns="http://www.w3.org/2000/svg">
<path fill-rule="evenodd" clip-rule="evenodd" d="M8 2C9.65685 2 11 3.34315 11 5V7.89844L13.1924 5.70703C14.3639 4.53563 16.263 4.53567 17.4346 5.70703L18.1426 6.41406C19.3136 7.58552 19.3136 9.48476 18.1426 10.6562L10.8418 17.9551C10.8367 17.9702 10.8305 17.985 10.8252 18H19C19.5523 18 20 17.5523 20 17V16C20 15.4477 19.5523 15 19 15H13.7979L15.7979 13H19C20.6569 13 22 14.3431 22 16V17C22 18.6569 20.6569 20 19 20H7C5.34315 20 4 18.6569 4 17V5C4 3.34315 5.34315 2 7 2H8ZM7 4C6.44772 4 6 4.44772 6 5V17C6 17.5523 6.44772 18 7 18H8C8.55228 18 9 17.5523 9 17V5C9 4.44772 8.55228 4 8 4H7ZM16.0205 7.12109C15.63 6.73078 14.9969 6.73074 14.6064 7.12109L11 10.7275V14.9697L16.7275 9.24219C17.1179 8.85165 17.118 8.21861 16.7275 7.82812L16.0205 7.12109Z" fill="black"/>
</svg>
