<svg width="24" height="24" viewBox="0 0 24 24" fill="none" xmlns="http://www.w3.org/2000/svg">
<path d="M19 17H17.5627V6.38495C17.5627 5.83267 17.115 5.38495 16.5627 5.38495H9V4C9 3.44772 9.44772 3 10 3H19.0004C19.5527 3 20 3.44771 20 4V16C20 16.5523 19.5523 17 19 17Z" fill="black"/>
<path fill-rule="evenodd" clip-rule="evenodd" d="M16 8C16 7.44772 15.5523 7 15 7H5C4.44771 7 4 7.44772 4 8V20C4 20.5523 4.44772 21 5 21H15C15.5523 21 16 20.5523 16 20V8ZM14 10C14 9.44772 13.5523 9 13 9H7C6.44771 9 6 9.44772 6 10C6 10.5523 6.44771 11 7 11H13C13.5523 11 14 10.5523 14 10ZM13 13C13.5523 13 14 13.4477 14 14C14 14.5523 13.5523 15 13 15H7C6.44771 15 6 14.5523 6 14C6 13.4477 6.44771 13 7 13H13ZM14 18C14 17.4477 13.5523 17 13 17H7C6.44771 17 6 17.4477 6 18C6 18.5523 6.44771 19 7 19H13C13.5523 19 14 18.5523 14 18Z" fill="black"/>
</svg>
