<svg width="24" height="24" viewBox="0 0 24 24" fill="none" xmlns="http://www.w3.org/2000/svg">
<path d="M10 4.00024C10.5523 4.00024 11 4.44796 11 5.00024C10.9999 5.55243 10.5522 6.00024 10 6.00024H7C6.44772 6.00024 6 6.44796 6 7.00024V17.0002C6.00011 17.5524 6.44778 18.0002 7 18.0002H17C17.5522 18.0002 17.9999 17.5524 18 17.0002V14.0002C18 13.448 18.4477 13.0002 19 13.0002C19.5523 13.0002 20 13.448 20 14.0002V17.0002C19.9999 18.657 18.6568 20.0002 17 20.0002H7C5.34322 20.0002 4.00011 18.657 4 17.0002V7.00024C4 5.34339 5.34315 4.00024 7 4.00024H10ZM17.293 3.70728C17.6835 3.31682 18.3165 3.31676 18.707 3.70728L20.293 5.29419C20.6833 5.68476 20.6835 6.31782 20.293 6.70825L13.293 13.7073C13.1055 13.8948 12.8511 14.0002 12.5859 14.0002H10.5C10.2239 14.0002 10.0001 13.7763 10 13.5002V11.4143C10 11.1491 10.1055 10.8948 10.293 10.7073L17.293 3.70728Z" fill="black"/>
</svg>
