<svg width="24" height="24" viewBox="0 0 24 24" fill="none" xmlns="http://www.w3.org/2000/svg">
<path fill-rule="evenodd" clip-rule="evenodd" d="M7.89115 2.00001C7.04301 1.99985 6.21876 1.99969 5.53893 2.09109C4.77252 2.19413 3.89797 2.44517 3.17154 3.1716C2.44511 3.89803 2.19407 4.77258 2.09103 5.53899C1.99962 6.21882 1.99979 7.04307 1.99995 7.89121V12.1088C1.99979 12.957 1.99962 13.7812 2.09103 14.4611C2.19407 15.2275 2.44511 16.102 3.17154 16.8285C3.89797 17.5549 4.77252 17.8059 5.53893 17.909C6.21876 18.0004 7.04301 18.0002 7.89115 18H16.1088C16.9569 18.0002 17.7812 18.0004 18.461 17.909C19.2274 17.8059 20.102 17.5549 20.8284 16.8285C21.5548 16.102 21.8059 15.2275 21.9089 14.4611C22.0003 13.7812 22.0001 12.957 22 12.1089V7.89121C22.0001 7.04308 22.0003 6.21881 21.9089 5.53899C21.8059 4.77258 21.5548 3.89803 20.8284 3.1716C20.102 2.44517 19.2274 2.19413 18.461 2.09109C17.7812 1.99969 16.9569 1.99985 16.1088 2.00001H7.89115ZM3.99997 8.00003C3.99997 6.11441 3.99997 5.1716 4.58575 4.58581C5.17154 4.00003 6.11435 4.00003 7.99997 4.00003H16C17.8856 4.00003 18.8284 4.00003 19.4142 4.58581C20 5.1716 20 6.11441 20 8.00003V12C20 13.8856 20 14.8285 19.4142 15.4142C18.8284 16 17.8856 16 16 16H7.99997C6.11435 16 5.17154 16 4.58575 15.4142C3.99997 14.8285 3.99997 13.8856 3.99997 12V8.00003Z" fill="black"/>
<path d="M7.9441 22C7.56244 22 6.99994 21.5523 6.99994 21C6.99994 20.4477 7.56244 20 7.9441 20H16.0558C16.4374 20 16.9999 20.4477 16.9999 21C16.9999 21.5523 16.4374 22 16.0558 22H7.9441Z" fill="black"/>
</svg>
