<svg width="24" height="24" viewBox="0 0 24 24" fill="none" xmlns="http://www.w3.org/2000/svg">
<path d="M8.04111 4H5.65946C4.55827 4 3.53783 4.56615 2.97127 5.49143L2.42213 6.38826C2.1936 6.76149 2.05336 7.16901 2 7.5839H5.45939L8.04111 4Z" fill="black"/>
<path d="M2.04392 8.60787C2.13669 9.03575 2.32339 9.44739 2.60237 9.81189L9.49205 18.8134C10.0028 19.4808 10.7217 19.8763 11.4791 20L5.4134 8.60787H2.04392Z" fill="black"/>
<path d="M12.5209 20C13.2783 19.8763 13.9972 19.4808 14.508 18.8134L21.3976 9.81189C21.6766 9.44739 21.8633 9.03575 21.9561 8.60787H18.5866L12.5209 20Z" fill="black"/>
<path d="M22 7.5839C21.9466 7.16901 21.8064 6.76149 21.5779 6.38826L21.0287 5.49143C20.4622 4.56615 19.4417 4 18.3405 4H15.9589L18.5406 7.5839H22Z" fill="black"/>
<path d="M9.3202 4H14.6798L17.2615 7.5839H6.73849L9.3202 4Z" fill="black"/>
<path d="M12 18.7647L6.59206 8.60787H17.4079L12 18.7647Z" fill="black"/>
</svg>
