<svg width="24" height="24" viewBox="0 0 24 24" fill="none" xmlns="http://www.w3.org/2000/svg">
<path fill-rule="evenodd" clip-rule="evenodd" d="M10.3603 13.6394L9.98253 15.1643C9.74814 16.1104 9.62394 17.183 9.63 18.1395C10.5625 15.1328 11.9915 12.9683 13.9994 11.7516L13.999 5.62765C13.03 5.38234 12.2129 5.09828 11.497 4.84939C11.3231 4.78895 11.1552 4.73059 10.9926 4.67535C9.82382 4.27845 8.82835 4.0008 7.4114 4.00089C6.51428 4.00095 5.80094 4.29127 5.3369 4.60952C5.14843 4.73877 5.02305 4.85765 4.95101 4.93879C4.89754 5.2058 4.84478 5.46541 4.79318 5.71932C4.35872 7.85737 4.00641 9.59113 3.9995 11.9295C4.05249 11.9597 4.18097 12.0124 4.41803 12.0027M15.9989 4.00037C14.4298 3.74945 13.2637 3.34496 12.1689 2.96522C10.7158 2.4612 9.38837 2.00077 7.41128 2.00089C4.74628 2.00105 2.99889 3.72533 2.99893 4.50116C2.94336 4.77914 2.88778 5.05206 2.83288 5.32161C2.39411 7.47621 1.99923 9.41521 1.99939 12.0012C1.99946 13.1418 3.02368 14.0612 4.49951 14.0011C5.52284 13.9593 6.94702 14.1109 8.04122 14.6834C7.28641 17.7301 7.46834 22.0009 9.44833 22.0008C10.633 22.0007 10.9612 20.8029 11.3015 19.5614C11.3427 19.4108 11.3842 19.2596 11.4273 19.1098C12.4446 15.5747 14.0203 13.7238 15.9995 13.0004L15.9989 4.00037ZM17.9989 4.00024L17.9995 13.0002L21.9995 13L21.9989 4L17.9989 4.00024Z" fill="black"/>
</svg>
