<svg width="24" height="24" viewBox="0 0 24 24" fill="none" xmlns="http://www.w3.org/2000/svg">
<path d="M13.6177 6.04234C12.9509 5.86601 12.2655 6.25654 12.0868 6.9146L9.49858 16.4469C9.3199 17.1049 9.71563 17.7813 10.3825 17.9577C11.0493 18.134 11.7347 17.7435 11.9134 17.0854L14.5016 7.55314C14.6803 6.89508 14.2846 6.21867 13.6177 6.04234Z" fill="currentColor"/>
<path d="M7.88404 7.42196C8.3722 7.9037 8.3722 8.68475 7.88404 9.16648L5.01791 11.9949L7.88404 14.8233C8.3722 15.3051 8.3722 16.0861 7.88404 16.5679C7.39588 17.0496 6.60442 17.0496 6.11626 16.5679L2.36624 12.8672C1.87808 12.3854 1.87808 11.6044 2.36624 11.1227L6.11626 7.42196C6.60442 6.94022 7.39588 6.94022 7.88404 7.42196Z" fill="currentColor"/>
<path d="M16.1162 16.5679C15.628 16.0862 15.628 15.3051 16.1162 14.8234L18.9823 11.995L16.1162 9.16654C15.628 8.6848 15.628 7.90375 16.1162 7.42201C16.6043 6.94027 17.3958 6.94027 17.8839 7.42201L21.6339 11.1227C22.1221 11.6044 22.1221 12.3855 21.6339 12.8672L17.8839 16.5679C17.3958 17.0497 16.6043 17.0497 16.1162 16.5679Z" fill="currentColor"/>
</svg>
