<svg width="24" height="24" viewBox="0 0 24 24" fill="none" xmlns="http://www.w3.org/2000/svg">
<path fill-rule="evenodd" clip-rule="evenodd" d="M2 12C2 6.48 6.47 2 11.99 2C17.52 2 22 6.48 22 12C22 17.52 17.52 22 11.99 22C6.47 22 2 17.52 2 12ZM16.412 14.4707C16.0848 14.2168 15.6136 14.2761 15.3596 14.6033C14.5587 15.6352 13.3309 16.25 12 16.25C10.6747 16.25 9.45142 15.6403 8.65007 14.6158C8.39488 14.2895 7.92351 14.2319 7.59725 14.4871C7.27098 14.7423 7.21336 15.2136 7.46855 15.5399C8.55123 16.9242 10.2082 17.75 12 17.75C13.7993 17.75 15.4625 16.9172 16.5446 15.5231C16.7985 15.1959 16.7392 14.7247 16.412 14.4707ZM17 9.5C17 10.3284 16.3284 11 15.5 11C14.6716 11 14 10.3284 14 9.5C14 8.67157 14.6716 8 15.5 8C16.3284 8 17 8.67157 17 9.5ZM8.5 11C9.32843 11 10 10.3284 10 9.5C10 8.67157 9.32843 8 8.5 8C7.67157 8 7 8.67157 7 9.5C7 10.3284 7.67157 11 8.5 11Z" fill="black"/>
</svg>
