<svg width="24" height="24" viewBox="0 0 24 24" fill="none" xmlns="http://www.w3.org/2000/svg">
<path fill-rule="evenodd" clip-rule="evenodd" d="M5 5C5 4.44772 5.44772 4 6 4H12C12.5523 4 13 4.44772 13 5C13 5.55228 12.5523 6 12 6H7V18H12C12.5523 18 13 18.4477 13 19C13 19.5523 12.5523 20 12 20H6C5.44772 20 5 19.5523 5 19V5Z" fill="black"/>
<path fill-rule="evenodd" clip-rule="evenodd" d="M16.2929 8.29289C16.6834 7.90237 17.3166 7.90237 17.7071 8.29289L20.7071 11.2929C21.0976 11.6834 21.0976 12.3166 20.7071 12.7071L17.7071 15.7071C17.3166 16.0976 16.6834 16.0976 16.2929 15.7071C15.9024 15.3166 15.9024 14.6834 16.2929 14.2929L17.5858 13H12C11.4477 13 11 12.5523 11 12C11 11.4477 11.4477 11 12 11H17.5858L16.2929 9.70711C15.9024 9.31658 15.9024 8.68342 16.2929 8.29289Z" fill="black"/>
</svg>
