<svg width="24" height="24" viewBox="0 0 24 24" fill="none" xmlns="http://www.w3.org/2000/svg">
<rect x="4" y="9.55078" width="13" height="10" rx="2" fill="black"/>
<path fill-rule="evenodd" clip-rule="evenodd" d="M8.07031 5.48272C8.3562 4.41579 9.45358 3.78277 10.5205 4.06866L19.2139 6.39776C20.2804 6.68383 20.9136 7.78027 20.6279 8.84698L19.0742 14.6429C19.0538 14.7189 19.0283 14.7922 19 14.8636V11.5511C19 9.34194 17.2091 7.55108 15 7.55108H7.51562L8.07031 5.48272Z" fill="black"/>
<path d="M11 4C11.5523 3.04355 12.7759 2.7163 13.7324 3.26855L21.5264 7.76855C22.4827 8.32083 22.8107 9.54355 22.2588 10.5L19.2588 15.6963C18.9888 16.164 18.5574 16.4795 18.0762 16.6172L19.5596 11.082C20.1311 8.94841 18.8649 6.75553 16.7314 6.18359L10.6758 4.56055L11 4Z" fill="#D9D9D9"/>
</svg>
