<svg width="24" height="24" viewBox="0 0 24 24" fill="none" xmlns="http://www.w3.org/2000/svg">
<path d="M6.37041 8.20005C6.37041 9.94701 7.75299 11.367 9.4707 11.3995C9.3809 11.0145 9.33339 10.6129 9.33339 10.2C9.33339 8.3749 10.2621 6.7694 11.667 5.84149C11.1045 5.31894 10.3545 5 9.53096 5C7.78544 5 6.37041 6.43271 6.37041 8.20005Z" fill="black"/>
<path d="M10.1408 13.0001H6.76548C5.23815 13.0001 4 14.2538 4 15.8002V17.0002H7.02853C7.32558 15.207 8.60454 13.751 10.2865 13.2182C10.2362 13.1468 10.1876 13.0741 10.1408 13.0001Z" fill="black"/>
<path d="M8.93836 17.8C8.93836 17.5221 8.97835 17.2536 9.05282 17.0002C9.39281 15.8436 10.4511 15 11.7038 15L17.2347 15C18.4756 15 19.5256 15.8276 19.8758 16.9674L19.8856 17C19.9601 17.2535 20.0001 17.522 20.0001 17.8V19H8.93836V17.8Z" fill="black"/>
<path d="M14.469 13.4001C16.2145 13.4001 17.6295 11.9674 17.6295 10.2001C17.6295 8.43274 16.2145 7.00003 14.469 7.00003C12.7235 7.00003 11.3084 8.43274 11.3084 10.2001C11.3084 11.9674 12.7235 13.4001 14.469 13.4001Z" fill="black"/>
</svg>
