<svg width="24" height="24" viewBox="0 0 24 24" fill="none" xmlns="http://www.w3.org/2000/svg">
<path d="M10.9997 3C10.9997 2.44772 11.4475 2 11.9997 2C12.552 2 12.9997 2.44772 12.9997 3V11.5C12.9997 11.7761 13.2236 12 13.4997 12C13.7759 12 13.9997 11.7761 13.9997 11.5V5C13.9997 4.44772 14.4475 4 14.9997 4C15.552 4 15.9997 4.44772 15.9997 5V14.2L17.0767 11.6154C17.2891 11.1056 17.8746 10.8645 18.3844 11.0769C18.8942 11.2894 19.1352 11.8748 18.9228 12.3846C17.3234 16.2232 16.1678 22 10.9997 22C7.68604 22 4.99975 19.3137 4.99975 16V7C4.99975 6.44772 5.44746 6 5.99975 6C6.55203 6 6.99975 6.44772 6.99975 7V11.5C6.99975 11.7761 7.2236 12 7.49975 12C7.77589 12 7.99975 11.7761 7.99975 11.5V5C7.99975 4.44772 8.44746 4 8.99975 4C9.55203 4 9.99975 4.44772 9.99975 5V10.75C9.99975 11.0261 10.2236 11.25 10.4997 11.25C10.7759 11.25 10.9997 11.0261 10.9997 10.75V3Z" fill="black"/>
</svg>
