<svg width="24" height="24" viewBox="0 0 24 24" fill="none" xmlns="http://www.w3.org/2000/svg">
<path fill-rule="evenodd" clip-rule="evenodd" d="M12 21C16.9706 21 21 16.9706 21 12C21 7.02944 16.9706 3 12 3C7.02944 3 3 7.02944 3 12C3 16.9706 7.02944 21 12 21ZM12.6055 14.3066H10.8594V16H12.6055V14.3066ZM9.88672 7.7207C9.15625 8.18555 8.76758 8.97461 8.7207 10.0879H10.4141C10.4141 9.76367 10.5078 9.45117 10.6953 9.15039C10.8867 8.84961 11.209 8.69922 11.6621 8.69922C12.123 8.69922 12.4395 8.82227 12.6113 9.06836C12.7871 9.31055 12.875 9.58008 12.875 9.87695C12.875 10.1348 12.7969 10.3711 12.6406 10.5859C12.5547 10.7109 12.4414 10.8262 12.3008 10.9316L11.873 11.2656C11.4512 11.5938 11.1895 11.8848 11.0879 12.1387C10.9863 12.3887 10.9238 12.8438 10.9004 13.5039H12.4824C12.4863 13.1914 12.5117 12.9609 12.5586 12.8125C12.6328 12.5781 12.7832 12.373 13.0098 12.1973L13.4258 11.875C13.8477 11.5469 14.1328 11.2773 14.2812 11.0664C14.5352 10.7188 14.6621 10.291 14.6621 9.7832C14.6621 8.95508 14.3691 8.33008 13.7832 7.9082C13.2012 7.48633 12.4688 7.27539 11.5859 7.27539C10.9141 7.27539 10.3477 7.42383 9.88672 7.7207Z" fill="black"/>
</svg>
