<svg width="24" height="24" viewBox="0 0 24 24" fill="none" xmlns="http://www.w3.org/2000/svg">
<path fill-rule="evenodd" clip-rule="evenodd" d="M14.8061 9.58023L13.1848 10.3953C13.9102 7.30271 16.6862 5 20 5C20.5523 5 21 4.55228 21 4C21 3.44772 20.5523 3 20 3C15.6938 3 12.094 6.02427 11.2086 10.0647L9.95196 8.98422C9.5332 8.62415 8.90182 8.67173 8.54175 9.0905C8.18168 9.50926 8.22926 10.1406 8.64803 10.5007L11.3819 12.8514C11.688 13.1146 12.1224 13.1679 12.4831 12.9866L15.7044 11.3671C16.1979 11.1191 16.3968 10.518 16.1487 10.0245C15.9007 9.53108 15.2995 9.33216 14.8061 9.58023ZM6 4C4.89543 4 4 4.89543 4 6V18C4 19.1046 4.89543 20 6 20H18C19.1046 20 20 19.1046 20 18V10C20 9.44772 19.5523 9 19 9C18.4477 9 18 9.44772 18 10V18H6V6L10 6C10.5523 6 11 5.55228 11 5C11 4.44772 10.5523 4 10 4H6Z" fill="black"/>
</svg>
