<svg width="24" height="24" viewBox="0 0 24 24" fill="none" xmlns="http://www.w3.org/2000/svg">
<path fill-rule="evenodd" clip-rule="evenodd" d="M6.8198 3.23861C5.43434 3.11222 4.20875 4.1329 4.08237 5.51835L3.92676 7.22412H3.59692C2.71497 7.22412 2 7.93909 2 8.82104V18.4026C2 19.2845 2.71497 19.9995 3.59692 19.9995H16.3723C17.0473 19.9995 17.6244 19.5808 17.8582 18.9889L18.292 19.0285C19.6774 19.1549 20.903 18.1342 21.0294 16.7487L21.9055 7.14424C22.0319 5.75878 21.0112 4.53319 19.6258 4.40681L6.8198 3.23861ZM17.9692 17.1683L18.4576 17.2128C18.8403 17.2477 19.1788 16.9658 19.2137 16.5831L20.0899 6.9786C20.1248 6.59592 19.8428 6.25739 19.4602 6.22248L6.65416 5.05428C6.27148 5.01937 5.93295 5.3013 5.89804 5.68398L5.75755 7.22412H16.3723C17.2543 7.22412 17.9692 7.93909 17.9692 8.82104V17.1683ZM11.9597 11.8296C11.7223 11.5242 11.3731 11.5474 11.155 11.8938L9.99677 13.7329L9.94288 13.8087C9.69515 14.1174 9.26967 14.1728 8.94342 13.9151L8.21603 13.3405L8.13993 13.2872C7.80243 13.0793 7.37199 13.169 7.14514 13.507L5.06492 16.6065L5.01157 16.6926C4.7215 17.2033 4.96913 17.6041 5.59168 17.6041H14.3776L14.4784 17.6004C15.0628 17.5555 15.2686 17.1156 14.9413 16.592L12.0088 11.9L11.9597 11.8296ZM6.39154 9.61951C7.05267 9.61951 7.58923 10.1561 7.58923 10.8172C7.58923 11.4791 7.05267 12.0149 6.39154 12.0149C5.73041 12.0149 5.19385 11.4791 5.19385 10.8172C5.19385 10.1561 5.73041 9.61951 6.39154 9.61951Z" fill="black"/>
</svg>
