<svg width="24" height="24" viewBox="0 0 24 24" fill="none" xmlns="http://www.w3.org/2000/svg">
<path fill-rule="evenodd" clip-rule="evenodd" d="M6.5 10C8.433 10 10 8.433 10 6.5C10 4.567 8.433 3 6.5 3C4.567 3 3 4.567 3 6.5C3 8.433 4.567 10 6.5 10ZM17.4341 3.75971C17.2422 3.42381 16.7578 3.4238 16.5659 3.75971L13.4275 9.25193C13.237 9.58526 13.4777 10 13.8616 10H20.1384C20.5223 10 20.763 9.58526 20.5725 9.25193L17.4341 3.75971ZM3 15C3 14.4477 3.44772 14 4 14H9C9.55229 14 10 14.4477 10 15V20C10 20.5523 9.55228 21 9 21H4C3.44772 21 3 20.5523 3 20V15ZM17.3536 13.6036C17.1583 13.4083 16.8417 13.4083 16.6464 13.6036L13.1036 17.1464C12.9083 17.3417 12.9083 17.6583 13.1036 17.8536L16.6464 21.3964C16.8417 21.5917 17.1583 21.5917 17.3536 21.3964L20.8964 17.8536C21.0917 17.6583 21.0917 17.3417 20.8964 17.1464L17.3536 13.6036Z" fill="black"/>
</svg>
