<svg width="24" height="24" viewBox="0 0 24 24" fill="none" xmlns="http://www.w3.org/2000/svg">
<path fill-rule="evenodd" clip-rule="evenodd" d="M17.8817 9.16637L20.8817 7.18018C21.3158 6.89279 21.9445 6.95597 22.286 7.32129C22.4246 7.46963 22.5 7.6529 22.5 7.84164V16.1584C22.5 16.6232 22.0523 17 21.5 17C21.2757 17 21.058 16.9366 20.8817 16.8199L17.8817 14.8337C17.6407 14.6741 17.5 14.4303 17.5 14.1722V9.82783C17.5 9.56975 17.6407 9.32594 17.8817 9.16637Z" fill="black"/>
<path fill-rule="evenodd" clip-rule="evenodd" d="M6.51613 7.71429C5.01962 7.71429 3.80645 8.86555 3.80645 10.2857V16.2857H11.4839C12.9804 16.2857 14.1935 15.1344 14.1935 13.7143V10.2857C14.1935 8.86555 12.9804 7.71429 11.4839 7.71429H6.51613ZM2 10.2857C2 7.91878 4.02194 6 6.51613 6H11.4839C13.9781 6 16 7.91878 16 10.2857V13.7143C16 16.0812 13.9781 18 11.4839 18H2.90323C2.40439 18 2 17.6162 2 17.1429V10.2857ZM7.42213 12H6.06729C5.56845 12 5.16406 12.3838 5.16406 12.8572C5.16406 13.309 5.53252 13.6792 5.99988 13.7119L6.06729 13.7143H7.42213C7.92096 13.7143 8.32535 13.3305 8.32535 12.8572C8.32535 12.4053 7.95689 12.0351 7.48954 12.0024L7.42213 12ZM5.96693 9.42856H11.587L11.6469 9.43091C12.0623 9.46363 12.3899 9.83383 12.3899 10.2857C12.3899 10.7591 12.0304 11.1428 11.587 11.1428H5.96693L5.90701 11.1405C5.49158 11.1078 5.16406 10.7376 5.16406 10.2857C5.16406 9.81232 5.52352 9.42856 5.96693 9.42856Z" fill="black"/>
</svg>
