<svg width="24" height="24" viewBox="0 0 24 24" fill="none" xmlns="http://www.w3.org/2000/svg">
<path d="M3.70703 5.70703C4.09751 5.31655 4.73056 5.31664 5.12109 5.70703L17.8896 18.4756C18.2802 18.8661 18.2802 19.4991 17.8896 19.8896C17.4991 20.2802 16.8661 20.2802 16.4756 19.8896L15.1426 18.5566C14.1486 18.8473 13.0937 19 12 19C7.45455 19 3.57273 16.39 2 12C2.57106 10.406 3.4467 9.04683 4.54785 7.96191L3.70703 7.12109C3.31665 6.73056 3.31657 6.09751 3.70703 5.70703ZM7.19824 10.6123C7.07046 11.0533 7 11.5186 7 12C7 14.7556 9.24444 17 12 17C12.4812 17 12.9459 16.9284 13.3867 16.8008L11.5527 14.9668C10.2561 14.7719 9.22667 13.7431 9.03223 12.4463L7.19824 10.6123ZM12 5C16.5455 5 20.4273 7.61 22 12C21.2534 14.0839 19.9862 15.767 18.375 16.96L16.1699 14.7549C16.6942 13.9643 17 13.0169 17 12C17 9.24444 14.7556 7 12 7C10.9826 7 10.0349 7.30639 9.24414 7.83105L7.40137 5.9873C8.79503 5.3424 10.3542 5 12 5ZM12 9C13.6533 9 15 10.3467 15 12C15 12.4622 14.8948 12.9004 14.707 13.292L10.708 9.29297C11.0996 9.1052 11.5378 9 12 9Z" fill="black"/>
</svg>
