<svg width="24" height="24" viewBox="0 0 24 24" fill="none" xmlns="http://www.w3.org/2000/svg">
<path fill-rule="evenodd" clip-rule="evenodd" d="M13.6392 10.3613L14.0171 8.83643C14.2515 7.89037 14.3758 6.81775 14.3698 5.8613C13.4371 8.8679 12.0079 11.0323 10 12.2489V18.3728C10.969 18.6182 11.7861 18.9023 12.502 19.1512C12.6758 19.2117 12.8437 19.2701 13.0064 19.3253C14.1751 19.7223 15.1706 20 16.5875 20C17.4846 20 18.198 19.7097 18.662 19.3915C18.8505 19.2623 18.9759 19.1434 19.048 19.0622C19.1014 18.7952 19.1542 18.5356 19.2058 18.2817C19.6404 16.1437 19.9928 14.41 19.9999 12.0716C19.9469 12.0414 19.8184 11.9887 19.5814 11.9983M8 20C9.56907 20.251 10.7352 20.6556 11.83 21.0354C13.283 21.5395 14.6104 22 16.5875 22C19.2525 22 21 20.2758 21 19.5C21.0556 19.222 21.1112 18.9491 21.1661 18.6796C21.605 16.525 22 14.586 22 12C22 10.8594 20.9758 9.94 19.5 10C18.4767 10.0417 17.0525 9.89 15.9583 9.3175C16.7133 6.27083 16.5317 2 14.5517 2C13.367 2 13.0387 3.19772 12.6984 4.43927C12.6571 4.58983 12.6157 4.74104 12.5725 4.89083C11.555 8.42583 9.97917 10.2767 8 11V20ZM6 20V11H2V20H6Z" fill="black"/>
</svg>
