<svg width="24" height="24" viewBox="0 0 24 24" fill="none" xmlns="http://www.w3.org/2000/svg">
<path d="M12.1404 2.94421C17.4846 2.94421 21.7875 6.43171 21.7875 10.7634C21.7875 12.873 20.7471 14.7288 19.1154 16.1913C16.4712 18.8067 11.9154 21.4509 11.4375 21.2538C10.65 20.9442 12.0279 19.2567 11.4654 18.5259C11.3808 18.4134 11.0712 18.4413 10.5087 18.3567C5.86827 17.7375 2.54907 14.6721 2.54907 10.7346C2.54907 6.40291 6.82407 2.94421 12.1395 2.94421H12.1404ZM6.65667 13.35H8.28837C8.57007 13.35 8.73837 13.125 8.73837 12.8433C8.73837 12.6462 8.59797 12.3933 8.23167 12.3933H6.90957C6.79707 12.3933 6.79707 12.2808 6.79707 11.8866V9.04621C6.79707 8.79331 6.62787 8.53951 6.31917 8.53951C6.03747 8.53951 5.84127 8.76451 5.84127 9.04621V12.4779C5.84127 13.2375 6.20667 13.35 6.65667 13.35ZM10.3404 12.9567V9.04711C10.3404 8.79421 10.1433 8.54041 9.83367 8.54041C9.58077 8.54041 9.35577 8.76541 9.35577 9.04711V12.9567C9.35577 13.2096 9.55287 13.4067 9.86247 13.4067C10.1154 13.4067 10.3404 13.2096 10.3404 12.9567ZM14.9529 12.4221V8.99041C14.9529 8.73751 14.7558 8.54041 14.4462 8.54041C14.2212 8.54041 13.9683 8.68081 13.9683 8.99041V11.4654L12.3366 9.18751C12.1116 8.79331 11.8299 8.54041 11.4924 8.54041C11.0703 8.54041 11.0424 8.87791 11.0424 9.35581V12.9558C11.0424 13.2087 11.2395 13.4058 11.5203 13.4058C11.7732 13.4058 11.9982 13.2366 11.9982 12.9558V10.3962L13.6299 12.6741C13.9953 13.152 14.0799 13.4058 14.5299 13.4058C14.8395 13.4058 14.952 13.1241 14.952 12.4212L14.9529 12.4221ZM18.1029 10.4817H16.6683V9.66631C16.6683 9.58171 16.6962 9.46921 16.8375 9.46921H18.1029C18.4125 9.46921 18.6096 9.30001 18.6096 8.99131C18.6096 8.62591 18.3279 8.51341 18.075 8.51341H16.4433C15.9366 8.51341 15.6837 8.85091 15.6837 9.30091V12.4788C15.6837 13.0413 15.9087 13.3509 16.4433 13.3509H18.1029C18.4683 13.3509 18.6096 13.1259 18.6096 12.8442C18.6096 12.4788 18.3279 12.3663 18.1029 12.3663H16.8654C16.7529 12.3663 16.6683 12.2817 16.6683 12.1971V11.4096H18.1587C18.5241 11.4096 18.5808 11.1279 18.5808 10.9317C18.5808 10.65 18.3558 10.4817 18.1029 10.4817Z" fill="black"/>
</svg>
