<svg width="24" height="24" viewBox="0 0 24 24" fill="none" xmlns="http://www.w3.org/2000/svg">
<path fill-rule="evenodd" clip-rule="evenodd" d="M19 18H16.1268V13.43C16.1268 12.2338 15.6774 11.4172 14.6891 11.4172C13.9331 11.4172 13.5128 11.9682 13.3171 12.4993C13.2437 12.69 13.2552 12.9555 13.2552 13.221V18H10.4087C10.4087 18 10.4454 9.90465 10.4087 9.16879H13.2552V10.5548C13.4233 9.94877 14.3329 9.08388 15.7844 9.08388C17.5852 9.08388 19 10.3542 19 13.0895V18ZM7.53022 8.06416H7.51188C6.59466 8.06416 6 7.38906 6 6.53333C6 5.66095 6.61224 5 7.5478 5C8.4826 5 9.05738 5.65928 9.07573 6.53083C9.07573 7.38657 8.4826 8.06416 7.53022 8.06416ZM6.3279 18H8.86171V9.16879H6.3279V18Z" fill="black"/>
</svg>
