<svg width="24" height="24" viewBox="0 0 24 24" fill="none" xmlns="http://www.w3.org/2000/svg">
<path fill-rule="evenodd" clip-rule="evenodd" d="M22 6C22 4.89543 21.1046 4 20 4H4C2.89543 4 2 4.89543 2 6V18C2 19.1046 2.89543 20 4 20H20C21.1046 20 22 19.1046 22 18V6ZM18.8944 8.55276C18.6474 8.05878 18.0467 7.85856 17.5528 8.10555L12 10.881L6.44719 8.10555L6.33987 8.05941C5.8692 7.88866 5.33489 8.09407 5.10555 8.55276C4.85856 9.04674 5.05878 9.64741 5.55276 9.8944L11.5528 12.8944L11.6762 12.9461C11.9279 13.0323 12.2059 13.0151 12.4472 12.8944L18.4472 9.8944L18.5485 9.83623C18.9675 9.56215 19.1237 9.01146 18.8944 8.55276Z" fill="black"/>
</svg>
