<svg width="24" height="24" viewBox="0 0 24 24" fill="none" xmlns="http://www.w3.org/2000/svg">
<path d="M11 16C10.4477 16 10 16.4477 10 17C10 17.5523 10.4477 18 11 18H13C13.5523 18 14 17.5523 14 17C14 16.4477 13.5523 16 13 16H11Z" fill="black"/>
<path fill-rule="evenodd" clip-rule="evenodd" d="M5 6C5 3.79086 6.79086 2 9 2H15C17.2091 2 19 3.79086 19 6V18C19 20.2091 17.2091 22 15 22H9C6.79086 22 5 20.2091 5 18V6ZM9 4H15C16.1046 4 17 4.89543 17 6V18C17 19.1046 16.1046 20 15 20H9C7.89543 20 7 19.1046 7 18V6C7 4.89543 7.89543 4 9 4Z" fill="black"/>
</svg>
