<svg width="24" height="24" viewBox="0 0 24 24" fill="none" xmlns="http://www.w3.org/2000/svg">
<path fill-rule="evenodd" clip-rule="evenodd" d="M5 3C4.44772 3 4 3.44772 4 4C4 4.55228 4.44772 5 5 5H19C19.5523 5 20 4.55228 20 4C20 3.44772 19.5523 3 19 3H5ZM20 7C21.1046 7 22 7.7835 22 8.75V19.25C22 20.2165 21.1046 21 20 21H4C2.89543 21 2 20.2165 2 19.25V8.75C2 7.7835 2.89543 7 4 7H20ZM9 11.1881C9 10.6578 9.55719 10.3274 10.0009 10.5946L14.6698 13.4065C15.1101 13.6716 15.1101 14.3284 14.6698 14.5935L10.0009 17.4054C9.55719 17.6726 9 17.3422 9 16.8119V11.1881Z" fill="black"/>
</svg>
