<svg width="24" height="24" viewBox="0 0 24 24" fill="none" xmlns="http://www.w3.org/2000/svg">
<path fill-rule="evenodd" clip-rule="evenodd" d="M15.6306 17.9861C14.5721 18.6295 13.3293 19 12 19C8.13401 19 5 15.866 5 12C5 10.4527 5.502 9.02273 6.35202 7.86395L15.6306 17.9861ZM17.1763 16.7124L7.7544 6.43403C8.93204 5.53439 10.4036 5 12 5C15.866 5 19 8.13401 19 12C19 13.815 18.3092 15.4687 17.1763 16.7124ZM21 12C21 16.9706 16.9706 21 12 21C7.02944 21 3 16.9706 3 12C3 7.02944 7.02944 3 12 3C16.9706 3 21 7.02944 21 12Z" fill="black"/>
</svg>
