<svg width="24" height="24" viewBox="0 0 24 24" fill="none" xmlns="http://www.w3.org/2000/svg">
<path d="M14.3396 9.75466C14.9531 8.91033 14.7659 7.72857 13.9216 7.11513C13.0772 6.50168 12.8901 5.31993 13.5035 4.4756L14.6849 2.84954C15.4271 1.82806 16.8568 1.60162 17.8783 2.34377L19.412 3.45813C20.0769 3.94114 20.3799 4.78073 20.1769 5.577C18.5002 12.1524 14.3703 17.8367 8.63486 21.4632C7.9403 21.9024 7.04816 21.8736 6.38335 21.3906L4.84956 20.2762C3.82808 19.5341 3.60164 18.1044 4.34379 17.0829L5.52519 15.4568C6.13863 14.6125 7.32039 14.4253 8.16472 15.0388C9.00905 15.6522 10.1908 15.465 10.8042 14.6207L12.5719 12.1877L14.3396 9.75466Z" fill="black"/>
</svg>
