<svg width="24" height="24" viewBox="0 0 24 24" fill="none" xmlns="http://www.w3.org/2000/svg">
<path d="M10.1608 7.79957C8.39085 7.56972 6.54991 8.0161 5.05587 9.13868C4.79402 9.33543 4.41109 9.89777 5.01806 10.5047L8.54915 14.0358L4.90813 17.6769L4.83042 17.7641C4.5196 18.1566 4.5455 18.7284 4.90813 19.0911C5.29865 19.4816 5.93182 19.4816 6.32234 19.0911L9.96337 15.45L13.501 18.9877L13.6134 19.0914C14.2391 19.621 14.6763 19.1802 14.864 18.9296C15.981 17.4374 16.425 15.6008 16.1958 13.8349L20.442 10.4523L20.4831 10.4134C20.8736 10.0229 20.8736 9.38974 20.4831 8.99922L14.9961 3.51217C14.9694 3.48549 14.9412 3.46035 14.9117 3.43685C14.4796 3.09292 13.8505 3.16441 13.5065 3.59653L10.1608 7.79957Z" fill="black"/>
</svg>
