<svg width="24" height="24" viewBox="0 0 24 24" fill="none" xmlns="http://www.w3.org/2000/svg">
<path fill-rule="evenodd" clip-rule="evenodd" d="M13.9974 3.06247C13.4494 2.99361 13 3.44776 13 4.00005V10C13 10.5523 13.4477 11 14 11L20 11C20.5523 11 21.0064 10.5506 20.9376 10.0026C20.8486 9.29478 20.6652 8.60048 20.391 7.93858C19.989 6.96798 19.3997 6.08606 18.6569 5.34319C17.914 4.60033 17.0321 4.01105 16.0615 3.60901C15.3996 3.33485 14.7053 3.15142 13.9974 3.06247ZM18.9376 13.9975C19.0064 13.4495 18.5523 13 18 13H12C11.4477 13 11 12.5523 11 12V6.00005C11 5.44776 10.5506 4.99361 10.0026 5.06246C8.77376 5.21687 7.59276 5.65518 6.55544 6.34829C5.23985 7.22734 4.21447 8.47677 3.60897 9.93858C3.00347 11.4004 2.84504 13.0089 3.15372 14.5608C3.4624 16.1126 4.22433 17.5381 5.34315 18.6569C6.46197 19.7757 7.88743 20.5376 9.43928 20.8463C10.9911 21.155 12.5997 20.9966 14.0615 20.3911C15.5233 19.7856 16.7727 18.7602 17.6518 17.4446C18.3449 16.4073 18.7832 15.2263 18.9376 13.9975Z" fill="black"/>
</svg>
