<svg width="25" height="25" viewBox="0 0 25 25" fill="none" xmlns="http://www.w3.org/2000/svg">
<path d="M13.8675 9.83079V12.1087H11.1332V9.83079C11.1332 9.57907 11.3372 9.375 11.5889 9.375H13.4118C13.6635 9.375 13.8675 9.57907 13.8675 9.83079Z" fill="black"/>
<path fill-rule="evenodd" clip-rule="evenodd" d="M11.6539 2.73046C12.1926 2.49105 12.8075 2.49105 13.3462 2.73046L19.5636 5.49377C20.316 5.82815 20.8008 6.57424 20.8008 7.39755V11.5775C20.8008 16.5187 17.5007 21.1506 12.9909 22.5113C12.6709 22.6079 12.3292 22.6079 12.0092 22.5113C7.49947 21.1506 4.19928 16.5187 4.19928 11.5775V7.39755C4.19928 6.57424 4.68414 5.82815 5.43649 5.49377L11.6539 2.73046ZM10.2217 9.83079C10.2217 9.07561 10.8338 8.46342 11.5889 8.46342H13.4118C14.1669 8.46342 14.779 9.07561 14.779 9.83079V12.1087H15.1042C15.6795 12.1087 16.1459 12.5751 16.1459 13.1503V15.6249C16.1459 16.2002 15.6795 16.6666 15.1042 16.6666H9.89588C9.32059 16.6666 8.85422 16.2002 8.85422 15.6249V13.1503C8.85422 12.5751 9.32059 12.1087 9.89588 12.1087H10.2217V9.83079Z" fill="black"/>
</svg>
