<svg width="24" height="24" viewBox="0 0 24 24" fill="none" xmlns="http://www.w3.org/2000/svg">
<path d="M15.2344 17C16.4753 17 17.5258 17.828 17.876 18.9678L17.8857 19C17.9602 19.2534 18 19.5219 18 19.7998V21H6.93848V19.7998C6.9385 19.522 6.97828 19.2534 7.05273 19C7.39277 17.8435 8.45142 17 9.7041 17H15.2344ZM8.28613 15.2178C6.60433 15.7506 5.3254 17.207 5.02832 19H2V17.7998C2.0002 16.2536 3.23841 15 4.76562 15H8.14062C8.18731 15.0738 8.23592 15.1466 8.28613 15.2178ZM12.4688 9C14.2143 9 15.6299 10.4329 15.6299 12.2002C15.6298 13.9675 14.2142 15.4004 12.4688 15.4004C10.7234 15.4003 9.30865 13.9674 9.30859 12.2002C9.30859 10.4329 10.7233 9.00013 12.4688 9ZM7.53125 7C8.35471 7.00007 9.10454 7.31931 9.66699 7.8418C8.2621 8.76972 7.33301 10.3752 7.33301 12.2002C7.33302 12.6129 7.38094 13.0144 7.4707 13.3994C5.75304 13.3669 4.37019 11.9471 4.37012 10.2002C4.37012 8.43286 5.78573 7 7.53125 7ZM19 4C19.5523 4 20 4.44772 20 5V6H21C21.5523 6 22 6.44772 22 7C22 7.55228 21.5523 8 21 8H20V9C20 9.55228 19.5523 10 19 10C18.4477 10 18 9.55228 18 9V8H17C16.4477 8 16 7.55228 16 7C16 6.44772 16.4477 6 17 6H18V5C18 4.44772 18.4477 4 19 4Z" fill="black"/>
</svg>
