<svg width="24" height="24" viewBox="0 0 24 24" fill="none" xmlns="http://www.w3.org/2000/svg">
<path fill-rule="evenodd" clip-rule="evenodd" d="M20 12C20 13.4511 19.6137 14.8119 18.9382 15.9853L19.7501 19.0153C19.8697 19.4614 19.4614 19.8697 19.0153 19.7502L15.9852 18.9383C14.8119 19.6137 13.4511 20 12 20C7.58172 20 4 16.4183 4 12C4 7.58172 7.58172 4 12 4C16.4183 4 20 7.58172 20 12ZM12.4632 13.3978C12.6711 13.3978 12.8395 13.2367 12.8395 13.038V12.9276C12.8735 12.6801 12.9564 12.4738 13.0881 12.3088C13.2198 12.1438 13.3707 11.9974 13.5406 11.8695C13.7106 11.7416 13.8912 11.6138 14.0824 11.4859C14.2736 11.358 14.4478 11.2033 14.605 11.0218C14.7623 10.8403 14.894 10.6217 15.0002 10.366C15.1064 10.1102 15.1596 9.78434 15.1596 9.38835C15.1596 9.1491 15.1064 8.89129 15.0002 8.61492C14.894 8.33855 14.7177 8.08074 14.4712 7.84149C14.2248 7.60224 13.8997 7.40218 13.496 7.24131C13.0924 7.08044 12.5888 7 11.9855 7C11.5181 7 11.0953 7.07631 10.7171 7.22893C10.3389 7.38156 10.016 7.59399 9.74829 7.86624C9.48059 8.13849 9.27238 8.46023 9.12366 8.83148C9.01659 9.09875 8.94586 9.38527 8.91147 9.69103C8.88897 9.89113 9.06055 10.0566 9.27107 10.0566H10.6363C10.7055 10.0566 10.7614 10.0029 10.7642 9.9367C10.7718 9.75868 10.7965 9.59033 10.8382 9.43166C10.8892 9.23778 10.9678 9.06866 11.074 8.92429C11.1802 8.77992 11.3162 8.66442 11.4819 8.57779C11.6477 8.49117 11.8452 8.44786 12.0747 8.44786C12.4146 8.44786 12.6802 8.53861 12.8714 8.7201C13.0626 8.9016 13.1582 9.1821 13.1582 9.56159C13.1667 9.78434 13.1263 9.96996 13.0371 10.1185C12.9479 10.267 12.831 10.4031 12.6866 10.5268C12.5421 10.6506 12.3849 10.7743 12.2149 10.8981C12.0449 11.0218 11.8835 11.1683 11.7305 11.3374C11.5775 11.5065 11.4437 11.7107 11.329 11.9499C11.2142 12.1892 11.1441 12.4862 11.1186 12.8409V13.038C11.1186 13.2367 11.2871 13.3978 11.4949 13.3978H12.4632ZM11.9408 17.0001C12.4913 17.0001 12.9415 16.5735 12.9415 16.0473C12.9415 15.521 12.4913 15.0944 11.9408 15.0944C11.3904 15.0944 10.9402 15.521 10.9402 16.0473C10.9402 16.5735 11.3904 17.0001 11.9408 17.0001Z" fill="black"/>
</svg>
