<svg width="24" height="24" viewBox="0 0 24 24" fill="none" xmlns="http://www.w3.org/2000/svg">
<path d="M16.2559 13.165C16.4713 12.7034 17.1283 12.7034 17.3438 13.165L18.2354 15.0752C18.295 15.2028 18.3978 15.3057 18.5254 15.3652L20.4346 16.2559C20.8962 16.4713 20.8962 17.1283 20.4346 17.3438L18.5254 18.2354C18.3977 18.295 18.295 18.3977 18.2354 18.5254L17.3438 20.4346C17.1283 20.8962 16.4713 20.8962 16.2559 20.4346L15.3652 18.5254C15.3057 18.3978 15.2028 18.295 15.0752 18.2354L13.165 17.3438C12.7034 17.1283 12.7034 16.4713 13.165 16.2559L15.0752 15.3652C15.2028 15.3056 15.3056 15.2028 15.3652 15.0752L16.2559 13.165ZM9 13.2002C9.9941 13.2002 10.7998 14.0059 10.7998 15V18.5996C10.7998 19.5937 9.9941 20.4004 9 20.4004H5.40039C4.40628 20.4004 3.59961 19.5937 3.59961 18.5996V15C3.59961 14.0059 4.40628 13.2002 5.40039 13.2002H9ZM9 3.59961C9.9941 3.59962 10.7998 4.40629 10.7998 5.40039V9C10.7998 9.99409 9.99409 10.7998 9 10.7998H5.40039C4.40629 10.7998 3.59962 9.9941 3.59961 9V5.40039C3.59961 4.40628 4.40628 3.59961 5.40039 3.59961H9ZM18.5996 3.59961C19.5937 3.59961 20.4004 4.40628 20.4004 5.40039V9C20.4004 9.9941 19.5937 10.7998 18.5996 10.7998H15C14.0059 10.7998 13.2002 9.9941 13.2002 9V5.40039C13.2002 4.40628 14.0059 3.59962 15 3.59961H18.5996Z" fill="black"/>
</svg>
