<svg width="24" height="24" viewBox="0 0 24 24" fill="none" xmlns="http://www.w3.org/2000/svg">
<path d="M14.6595 4.01221L14.4779 4C13.8184 4.00048 13.2444 4.48946 13.1538 5.1628C13.0549 5.89737 13.5688 6.57319 14.3015 6.67229C17.1599 7.05889 19.3224 9.52961 19.3224 12.4679C19.3224 15.699 16.7237 18.3158 13.521 18.3158C10.3183 18.3158 7.71961 15.699 7.71961 12.4679C7.71961 11.7074 7.86359 10.9705 8.13561 10.288L8.88267 12.3389L8.95629 12.5059C9.26256 13.0916 9.95476 13.3769 10.5834 13.1481C11.2691 12.8985 11.6196 12.1316 11.366 11.435L9.52995 6.39042L9.45633 6.22342C9.15006 5.63777 8.45786 5.35241 7.82924 5.58121L2.8625 7.38895L2.6982 7.46179C2.12252 7.76589 1.84745 8.46357 2.07983 9.10205L2.15346 9.26905C2.45972 9.8547 3.15193 10.1401 3.78054 9.91126L5.67823 9.22001C5.26264 10.2356 5.04204 11.3352 5.04204 12.4679C5.04204 17.1787 8.83686 21 13.521 21C18.2052 21 22 17.1787 22 12.4679C22 8.18374 18.8442 4.57819 14.6595 4.01221Z" fill="black"/>
</svg>
