<svg width="24" height="24" viewBox="0 0 24 24" fill="none" xmlns="http://www.w3.org/2000/svg">
<path d="M5.22046 10.2493C5.99759 7.2299 8.73964 5 12 5C14.7135 5 17.068 6.54463 18.2295 8.80346L16.1392 8.50973C15.5922 8.43288 15.0866 8.81394 15.0097 9.36085C14.9329 9.90776 15.3139 10.4134 15.8609 10.4903L19.6308 11.02C20.0854 11.0839 20.5251 10.83 20.6971 10.4044L22.1233 6.87463C22.3302 6.36256 22.0828 5.77973 21.5708 5.57282C21.0587 5.36592 20.4759 5.61331 20.269 6.12537L19.7471 7.41708C18.1797 4.77303 15.2977 3 12 3C7.80498 3 4.28262 5.86919 3.28358 9.75074C3.14592 10.2856 3.46791 10.8308 4.00276 10.9684C4.53761 11.1061 5.0828 10.7841 5.22046 10.2493Z" fill="black"/>
<path d="M12.002 19C15.2624 19 18.0044 16.7701 18.7816 13.7507C18.9192 13.2159 19.4644 12.8939 19.9993 13.0316C20.5341 13.1692 20.8561 13.7144 20.7184 14.2493C19.7194 18.1308 16.1971 21 12.002 21C8.70434 21 5.82232 19.227 4.25496 16.5829L3.73304 17.8746C3.52614 18.3867 2.94331 18.6341 2.43124 18.4272C1.91918 18.2203 1.67179 17.6374 1.87869 17.1254L3.30489 13.5956C3.47688 13.17 3.9166 12.9161 4.37122 12.98L8.14117 13.5097C8.68808 13.5866 9.06914 14.0922 8.99229 14.6392C8.91544 15.1861 8.40978 15.5671 7.86287 15.4903L5.77253 15.1965C6.93401 17.4554 9.28852 19 12.002 19Z" fill="black"/>
</svg>
