<svg width="24" height="24" viewBox="0 0 24 24" fill="none" xmlns="http://www.w3.org/2000/svg">
<path fill-rule="evenodd" clip-rule="evenodd" d="M8.65 13C10.7487 13 12.45 11.2091 12.45 9C12.45 6.79086 10.7487 5 8.65 5C6.55132 5 4.85 6.79086 4.85 9C4.85 11.2091 6.55132 13 8.65 13ZM5.325 15C3.48865 15 2 16.567 2 18.5V20H15.3V18.5C15.3 16.567 13.8113 15 11.975 15H5.325ZM18.8925 6.91401C19.283 6.52349 19.9003 6.50766 20.2713 6.87866C20.6423 7.24966 20.6265 7.86699 20.236 8.25752L19.5289 8.96462L20.2006 9.63637C20.5716 10.0074 20.5558 10.6247 20.1653 11.0152C19.7747 11.4058 19.1574 11.4216 18.7864 11.0506L18.1147 10.3788L17.4075 11.0859C17.017 11.4765 16.3997 11.4923 16.0287 11.1213C15.6577 10.7503 15.6735 10.133 16.064 9.74244L16.7711 9.03533L16.0994 8.36358C15.7284 7.99258 15.7442 7.37525 16.1348 6.98472C16.5253 6.5942 17.1426 6.57837 17.5136 6.94937L18.1854 7.62112L18.8925 6.91401Z" fill="black"/>
</svg>
