<svg width="24" height="24" viewBox="0 0 24 24" fill="none" xmlns="http://www.w3.org/2000/svg">
<path fill-rule="evenodd" clip-rule="evenodd" d="M12 21C16.9706 21 21 16.9706 21 12C21 7.02944 16.9706 3 12 3C7.02944 3 3 7.02944 3 12C3 16.9706 7.02944 21 12 21ZM12.9557 7.62345L13.6196 9.04788C13.802 9.43922 14.1601 9.70991 14.574 9.76937L16.084 9.98629C16.6644 10.0697 17.07 10.6271 16.9899 11.2314C16.9573 11.4776 16.8459 11.7052 16.6737 11.8773L15.5765 12.9738C15.2748 13.2754 15.1378 13.714 15.2115 14.1426L15.4792 15.6999C15.5825 16.3007 15.1984 16.8749 14.6213 16.9824C14.3865 17.0262 14.1444 16.9863 13.9341 16.8693L12.5893 16.1213C12.221 15.9164 11.7788 15.9164 11.4105 16.1213L10.0654 16.8694C9.54835 17.157 8.90527 16.9537 8.62904 16.4155C8.51665 16.1964 8.47839 15.9444 8.52044 15.6999L8.78832 14.1427C8.86206 13.714 8.72509 13.2753 8.42333 12.9738L7.32621 11.8773C6.90352 11.4548 6.88981 10.7556 7.29559 10.3155C7.4609 10.1363 7.67945 10.0203 7.91592 9.98629L9.42592 9.76937C9.83981 9.70991 10.1979 9.43922 10.3803 9.04788L11.0441 7.62345C11.3003 7.07388 11.9358 6.84454 12.4637 7.11121C12.6783 7.21961 12.8516 7.40004 12.9557 7.62345Z" fill="black"/>
</svg>
