<svg width="24" height="24" viewBox="0 0 24 24" fill="none" xmlns="http://www.w3.org/2000/svg">
<path d="M12.5 3C13.3284 3 14 3.67157 14 4.5V19.5C14 20.3284 13.3284 21 12.5 21C11.6716 21 11 20.3284 11 19.5V4.5C11 3.67157 11.6716 3 12.5 3ZM6.5 8C7.32843 8 8 8.67157 8 9.5V15.5C8 16.3284 7.32843 17 6.5 17C5.67157 17 5 16.3284 5 15.5V9.5C5 8.67157 5.67157 8 6.5 8ZM18.5 8C19.3284 8 20 8.67157 20 9.5V15.5C20 16.3284 19.3284 17 18.5 17C17.6716 17 17 16.3284 17 15.5V9.5C17 8.67157 17.6716 8 18.5 8Z" fill="black"/>
</svg>
