<svg width="24" height="24" viewBox="0 0 24 24" fill="none" xmlns="http://www.w3.org/2000/svg">
<path fill-rule="evenodd" clip-rule="evenodd" d="M14 6.91475C14 5.6947 12.6209 4.98501 11.6281 5.69415L7.39116 8.72057C7.13676 8.90228 6.83194 8.99997 6.5193 8.99997H3.5C2.67157 8.99997 2 9.67154 2 10.5V13.5C2 14.3284 2.67157 15 3.5 15H6.5193C6.83194 15 7.13676 15.0977 7.39116 15.2794L11.6281 18.3058C12.6209 19.0149 14 18.3052 14 17.0852V6.91475ZM20.4142 9.17157C20.8047 8.78104 21.4379 8.78104 21.8284 9.17157C22.219 9.56209 22.219 10.1953 21.8284 10.5858L20.4142 12L21.8284 13.4142C22.219 13.8047 22.219 14.4379 21.8284 14.8284C21.4379 15.2189 20.8047 15.2189 20.4142 14.8284L19 13.4142L17.5858 14.8284C17.1953 15.2189 16.5621 15.2189 16.1716 14.8284C15.781 14.4379 15.781 13.8047 16.1716 13.4142L17.5858 12L16.1716 10.5858C15.781 10.1953 15.781 9.56209 16.1716 9.17157C16.5621 8.78104 17.1953 8.78104 17.5858 9.17157L19 10.5858L20.4142 9.17157Z" fill="black"/>
</svg>
