<svg width="24" height="24" viewBox="0 0 24 24" fill="none" xmlns="http://www.w3.org/2000/svg">
<path d="M18 3C18 2.44772 18.4477 2 19 2C19.5523 2 20 2.44772 20 3V4H21C21.5523 4 22 4.44772 22 5C22 5.55228 21.5523 6 21 6H20V7C20 7.55228 19.5523 8 19 8C18.4477 8 18 7.55228 18 7V6H17C16.4477 6 16 5.55228 16 5C16 4.44772 16.4477 4 17 4H18V3Z" fill="black"/>
<path d="M10.0188 22C11.8597 22.0054 13.3475 20.7619 13.3419 19.0179H6.68147C6.78823 20.6758 8.24359 21.9948 10.0188 22Z" fill="black"/>
<path d="M15.0085 9.30388C14.6645 6.84776 12.5074 5.00771 9.96311 5.00002C7.41883 4.99233 5.27333 6.81938 4.94482 9.27347L4.12924 15.3662L3.32924 15.3637C2.59286 15.3615 1.99774 15.9408 2.00001 16.6577C2.00227 17.3745 2.60106 17.9575 3.33744 17.9597L16.6708 18C17.4071 18.0022 18.0023 17.4229 18 16.706C17.9977 15.9892 17.3989 15.4063 16.6626 15.404L15.8626 15.4016L15.0085 9.30388Z" fill="black"/>
</svg>
