<svg width="24" height="24" viewBox="0 0 24 24" fill="none" xmlns="http://www.w3.org/2000/svg">
<path d="M6.80011 19.1155H12.1158C15.117 19.1155 17 17.6052 17 15.0944C17 13.5056 16.1369 12.3287 14.5677 11.7794C15.5681 11.2694 16.1762 10.3083 16.1762 9.09216C16.1762 6.75795 14.352 5.38489 11.8216 5.38489H6.80011V19.1155ZM9.68354 16.644V13.231H11.9393C13.175 13.231 14.0185 13.839 14.0185 14.9375C14.0185 16.0556 13.1947 16.644 11.9393 16.644H9.68354ZM9.68354 10.8575V7.83679H11.5274C12.5474 7.83679 13.2927 8.34678 13.2927 9.34716C13.2927 10.3279 12.5474 10.8575 11.5274 10.8575H9.68354Z" fill="black"/>
</svg>
