<svg width="24" height="24" viewBox="0 0 24 24" fill="none" xmlns="http://www.w3.org/2000/svg">
<path fill-rule="evenodd" clip-rule="evenodd" d="M12 21C16.9706 21 21 16.9706 21 12C21 7.02944 16.9706 3 12 3C7.02944 3 3 7.02944 3 12C3 16.9706 7.02944 21 12 21ZM12.9933 6.88338C12.9355 6.38604 12.5128 6 12 6C11.4477 6 11 6.44772 11 7V12L11.0077 12.1241C11.0435 12.4104 11.2019 12.6698 11.4453 12.8321L14.4453 14.8321L14.5461 14.8911C14.9919 15.119 15.5476 14.9814 15.8321 14.5547L15.8911 14.4539C16.119 14.0081 15.9814 13.4524 15.5547 13.1679L13 11.464V7L12.9933 6.88338Z" fill="black"/>
</svg>
