<svg width="24" height="24" viewBox="0 0 24 24" fill="none" xmlns="http://www.w3.org/2000/svg">
<path d="M4 4C3.44772 4 3 4.44772 3 5C3 5.55228 3.44772 6 4 6H17.5C18.8807 6 20 7.11929 20 8.5C20 9.88071 18.8807 11 17.5 11H6.5C4.01472 11 2 13.0147 2 15.5C2 17.9853 4.01472 20 6.5 20H17V21.0962C17 21.8169 17.8114 22.2467 18.4172 21.8469L21.5941 19.7507C22.1353 19.3936 22.1353 18.6064 21.5941 18.2493L18.4172 16.1531C17.8114 15.7533 17 16.1831 17 16.9038V18H6.5C5.11929 18 4 16.8807 4 15.5C4 14.1193 5.11929 13 6.5 13H17.5C19.9853 13 22 10.9853 22 8.5C22 6.01472 19.9853 4 17.5 4H4Z" fill="black"/>
</svg>
