<svg width="24" height="24" viewBox="0 0 24 24" fill="none" xmlns="http://www.w3.org/2000/svg">
<path d="M18.2168 20.1417L11.9789 13.9039L9.93822 15.9445C10.0469 16.1649 10.1228 16.3972 10.1658 16.6414C10.2088 16.8857 10.2303 17.13 10.2303 17.3743C10.2303 18.3738 9.87592 19.228 9.16713 19.9368C8.45835 20.6456 7.60417 20.9999 6.6046 20.9999C5.60504 20.9999 4.75177 20.6456 4.04476 19.9368C3.33778 19.228 2.98428 18.3738 2.98428 17.3743C2.98428 16.3747 3.33778 15.5205 4.04476 14.8117C4.75177 14.103 5.60504 13.7486 6.6046 13.7486C6.84888 13.7486 7.09315 13.7701 7.33741 13.8131C7.58167 13.8561 7.81398 13.9319 8.03434 14.0406L10.075 12L8.03434 9.95931C7.81398 10.068 7.58167 10.1439 7.33741 10.1869C7.09315 10.2299 6.84888 10.2514 6.6046 10.2514C5.60504 10.2514 4.75177 9.897 4.04476 9.18822C3.33778 8.47944 2.98428 7.62526 2.98428 6.62569C2.98428 5.62612 3.33778 4.77195 4.04476 4.06317C4.75177 3.35439 5.60504 3 6.6046 3C7.60417 3 8.45835 3.35439 9.16713 4.06317C9.87592 4.77195 10.2303 5.62612 10.2303 6.62569C10.2303 6.86995 10.2088 7.11422 10.1658 7.3585C10.1228 7.60276 10.0469 7.83507 9.93822 8.05543L21.0163 19.1336V20.1417H18.2168ZM14.7838 11.1043L12.8746 9.20038L18.2168 3.85823H21.0217V4.8664L14.7838 11.1043ZM6.60574 8.37428C7.08692 8.37428 7.49935 8.20295 7.84304 7.8603C8.18672 7.51764 8.35857 7.10573 8.35857 6.62455C8.35857 6.14337 8.18686 5.73184 7.84346 5.38994C7.50006 5.04805 7.08725 4.8771 6.60503 4.8771C6.12282 4.8771 5.71077 5.04843 5.36887 5.39109C5.02698 5.73374 4.85603 6.14566 4.85603 6.62684C4.85603 7.10801 5.02735 7.51955 5.36999 7.86144C5.71265 8.20334 6.12457 8.37428 6.60574 8.37428ZM11.9789 12.571C12.134 12.571 12.268 12.5146 12.3807 12.4018C12.4935 12.2891 12.5499 12.1551 12.5499 12C12.5499 11.8449 12.4935 11.7109 12.3807 11.5981C12.268 11.4853 12.134 11.429 11.9789 11.429C11.8238 11.429 11.6898 11.4853 11.577 11.5981C11.4643 11.7109 11.4079 11.8449 11.4079 12C11.4079 12.1551 11.4643 12.2891 11.577 12.4018C11.6898 12.5146 11.8238 12.571 11.9789 12.571ZM6.60574 19.1228C7.08692 19.1228 7.49935 18.9515 7.84304 18.6089C8.18672 18.2662 8.35857 17.8543 8.35857 17.3731C8.35857 16.8919 8.18686 16.4804 7.84346 16.1385C7.50006 15.7966 7.08725 15.6257 6.60503 15.6257C6.12282 15.6257 5.71077 15.797 5.36887 16.1397C5.02698 16.4823 4.85603 16.8942 4.85603 17.3754C4.85603 17.8566 5.02735 18.2681 5.36999 18.61C5.71265 18.9519 6.12457 19.1228 6.60574 19.1228Z" fill="black"/>
</svg>
