<svg width="24" height="24" viewBox="0 0 24 24" fill="none" xmlns="http://www.w3.org/2000/svg">
<path d="M6.11533 14.4666L4.0685 10.7741C3.80075 10.291 3.97527 9.6824 4.45831 9.41465C4.94135 9.14689 5.54999 9.32142 5.81774 9.80446L6.58636 11.1911C7.66857 8.72358 10.133 7 13 7C16.866 7 20 10.134 20 14C20 14.5523 19.5523 15 19 15C18.4477 15 18 14.5523 18 14C18 11.2386 15.7614 9 13 9C10.9136 9 9.12564 10.2779 8.37622 12.0938L10.2259 11.0685C10.7089 10.8007 11.3176 10.9752 11.5853 11.4583C11.8531 11.9413 11.6785 12.55 11.1955 12.8177L7.50214 14.865C7.41718 14.9144 7.32428 14.9517 7.22581 14.9744C7.12066 14.9988 7.01361 15.0056 6.90869 14.9959C6.75237 14.9817 6.60643 14.9316 6.47922 14.8539C6.32581 14.7601 6.19963 14.6261 6.11533 14.4666Z" fill="black"/>
</svg>
