<svg width="24" height="24" viewBox="0 0 24 24" fill="none" xmlns="http://www.w3.org/2000/svg">
<path fill-rule="evenodd" clip-rule="evenodd" d="M15.8034 17.2176L18.2929 19.7071C18.6834 20.0976 19.3166 20.0976 19.7071 19.7071C20.0976 19.3166 20.0976 18.6834 19.7071 18.2929L5.70711 4.29289C5.31658 3.90237 4.68342 3.90237 4.29289 4.29289C3.90237 4.68342 3.90237 5.31658 4.29289 5.70711L6.77768 8.19189C6.17198 8.42054 5.59162 8.73613 5.05587 9.13868C4.79402 9.33543 4.41109 9.89777 5.01806 10.5047L8.54915 14.0358L4.90813 17.6769L4.83042 17.7641C4.5196 18.1566 4.5455 18.7284 4.90813 19.0911C5.29865 19.4816 5.93182 19.4816 6.32234 19.0911L9.96337 15.45L13.501 18.9877L13.6134 19.0914C14.2391 19.621 14.6763 19.1802 14.864 18.9296C15.263 18.3966 15.5761 17.8196 15.8034 17.2176ZM20.442 10.4523L17.2273 13.0131L10.9821 6.76784L13.5065 3.59653C13.8505 3.16441 14.4796 3.09292 14.9117 3.43685C14.9412 3.46035 14.9694 3.48549 14.9961 3.51217L20.4831 8.99922C20.8736 9.38974 20.8736 10.0229 20.4831 10.4134L20.442 10.4523Z" fill="black"/>
</svg>
