<svg width="24" height="24" viewBox="0 0 24 24" fill="none" xmlns="http://www.w3.org/2000/svg">
<path fill-rule="evenodd" clip-rule="evenodd" d="M11.0067 14.1166C11.0645 14.614 11.4872 15 12 15C12.5523 15 13 14.5523 13 14L13 6.41476L15.2929 8.7071L15.3871 8.79029C15.7794 9.09532 16.3466 9.06759 16.7071 8.70711C17.0976 8.3166 17.0976 7.68343 16.7071 7.2929L12.7072 3.2929L12.7064 3.29221C12.6775 3.2633 12.6467 3.23615 12.6144 3.21095L12.613 3.20971C12.5298 3.14505 12.4388 3.09534 12.3436 3.06059C12.241 3.02307 12.1306 3.00187 12.0155 3.00012L12 3C11.8455 3 11.6991 3.03505 11.5685 3.09764C11.5035 3.12874 11.4411 3.16726 11.3827 3.21322C11.3482 3.24032 11.3155 3.26965 11.2849 3.30098L7.2929 7.29289L7.20971 7.38709C6.90468 7.77938 6.9324 8.34661 7.29288 8.7071L7.38709 8.79029C7.77938 9.09532 8.34661 9.0676 8.7071 8.70712L11 6.41476L11 14L11.0067 14.1166ZM5 13C5 12.4477 4.55228 12 4 12C3.44772 12 3 12.4477 3 13V17C3 17.7601 3.26733 18.5094 3.77329 19.0786C4.28265 19.6516 5.00051 20 5.77778 20H18.2222C18.9995 20 19.7173 19.6516 20.2267 19.0786C20.7327 18.5094 21 17.7601 21 17V13C21 12.4477 20.5523 12 20 12C19.4477 12 19 12.4477 19 13V17C19 17.3008 18.8927 17.5689 18.7319 17.7498C18.5745 17.927 18.3879 18 18.2222 18H5.77778C5.61206 18 5.42554 17.927 5.26811 17.7498C5.10727 17.5689 5 17.3008 5 17V13Z" fill="black"/>
</svg>
