<svg width="24" height="24" viewBox="0 0 24 24" fill="none" xmlns="http://www.w3.org/2000/svg">
<path fill-rule="evenodd" clip-rule="evenodd" d="M12 5C16.5455 5 20.4273 7.61 22 12C20.4273 16.39 16.5455 19 12 19C7.45455 19 3.57273 16.39 2 12C3.57273 7.61 7.45455 5 12 5ZM12 7C9.24444 7 7 9.24444 7 12C7 14.7556 9.24444 17 12 17C14.7556 17 17 14.7556 17 12C17 9.24444 14.7556 7 12 7ZM15 12C15 10.3467 13.6533 9 12 9C10.3467 9 9 10.3467 9 12C9 13.6533 10.3467 15 12 15C13.6533 15 15 13.6533 15 12Z" fill="black"/>
</svg>
