<svg width="24" height="24" viewBox="0 0 24 24" fill="none" xmlns="http://www.w3.org/2000/svg">
<path d="M18.7973 19.6214C20.7276 17.5911 21.825 14.8923 21.825 12.0216C21.825 9.11586 20.7006 6.38697 18.7283 4.34978C18.4402 4.05219 17.9653 4.0445 17.6677 4.33262C17.3701 4.62073 17.3625 5.09554 17.6506 5.39314C19.3543 7.15292 20.325 9.50869 20.325 12.0216C20.325 14.5042 19.3776 16.834 17.7102 18.5879C17.4248 18.888 17.4368 19.3628 17.737 19.6482C18.0371 19.9336 18.5119 19.9216 18.7973 19.6214Z" fill="black"/>
<path fill-rule="evenodd" clip-rule="evenodd" d="M5.25 8.25005L10.6825 5.23199C11.4101 4.82775 12 5.17371 12 5.99315V18.007C12 18.8316 11.4128 19.1738 10.6825 18.7681L5.25 15.7501H2.2522C1.83677 15.7501 1.5 15.4083 1.5 15.0035V8.9966C1.5 8.58429 1.82841 8.25005 2.2522 8.25005H5.25ZM6.75 9.13266V14.8674L10.5 16.9508V7.04932L6.75 9.13266ZM5.25 9.75005H3V14.2501H5.25V9.75005Z" fill="black"/>
<path d="M18.1572 11.7654C18.1572 13.9532 17.2312 15.9923 15.643 17.4193C15.3349 17.6961 14.8607 17.6708 14.5839 17.3627C14.307 17.0546 14.3324 16.5804 14.6405 16.3035C15.9148 15.1586 16.6572 13.5237 16.6572 11.7654C16.6572 10.1204 16.008 8.5818 14.8742 7.44877C14.5812 7.15598 14.5811 6.68111 14.8739 6.38811C15.1667 6.09512 15.6415 6.09496 15.9345 6.38776C17.3474 7.7997 18.1572 9.71887 18.1572 11.7654Z" fill="black"/>
</svg>
