<svg width="24" height="24" viewBox="0 0 24 24" fill="none" xmlns="http://www.w3.org/2000/svg">
<path fill-rule="evenodd" clip-rule="evenodd" d="M2.25653 18.017L10.3633 3.95728C10.534 3.66505 10.7742 3.42345 11.0609 3.25577C11.3476 3.08809 11.671 3 12 3C12.329 3 12.6524 3.08809 12.9391 3.25577C13.2258 3.42345 13.466 3.66505 13.6367 3.95728L21.7435 18.017C21.9106 18.3177 21.9991 18.6587 22 19.0059C22.0009 19.3531 21.9143 19.6946 21.7488 19.9963C21.5833 20.2979 21.3446 20.5493 21.0565 20.7254C20.7685 20.9015 20.441 20.9962 20.1068 21H3.8932C3.55897 20.9962 3.23153 20.9015 2.94346 20.7254C2.65538 20.5493 2.41671 20.2979 2.25119 19.9963C2.08567 19.6946 1.99907 19.3531 2.00001 19.0059C2.00094 18.6587 2.08938 18.3177 2.25653 18.017ZM11 9C11 8.44772 11.4477 8 12 8C12.5523 8 13 8.44772 13 9V13C13 13.5523 12.5523 14 12 14C11.4477 14 11 13.5523 11 13V9ZM13 17C13 17.5523 12.5523 18 12 18C11.4477 18 11 17.5523 11 17C11 16.4477 11.4477 16 12 16C12.5523 16 13 16.4477 13 17Z" fill="black"/>
</svg>
