<svg width="24" height="24" viewBox="0 0 24 24" fill="none" xmlns="http://www.w3.org/2000/svg">
<g clip-path="url(#clip0_11097_8160)">
<path d="M7.36035 3.74219C7.79492 2.94529 8.6609 2.58803 9.47949 2.92871C10.2155 3.23553 10.7913 3.77572 11.2988 4.36523C11.4106 4.49514 11.4551 4.6591 11.4492 4.81055C11.4448 4.92323 11.4116 5.03955 11.3467 5.1377L11.2715 5.22949C11.1566 5.34119 11.0118 5.40019 10.8584 5.39453C10.7081 5.38889 10.5684 5.32182 10.4531 5.21875H10.4521C10.0621 4.86825 9.73108 4.51614 9.33887 4.24316V4.24414C9.02732 4.02764 8.78372 4.02071 8.61621 4.1084C8.43936 4.20105 8.2751 4.43542 8.20996 4.85156C8.09596 5.57781 8.1173 6.30876 8.20117 7.04883C8.22552 7.26305 8.25326 7.47692 8.28125 7.69238C8.30918 7.90744 8.33716 8.12443 8.3623 8.3418C8.36249 8.3434 8.36212 8.34516 8.3623 8.34668C8.61602 8.32529 8.86987 8.30867 9.12109 8.29199C9.37978 8.27482 9.63625 8.25785 9.8916 8.23438L9.89551 8.23242C9.90265 8.22942 9.91254 8.22359 9.92383 8.21582C9.94741 8.19957 9.96855 8.17887 9.98047 8.16211C10.7325 7.1023 11.5573 6.11015 12.4932 5.22949C13.2478 4.51969 14.0647 3.87068 15.0391 3.48047C15.5253 3.28564 16.0433 3.18462 16.585 3.30273C17.3729 3.47477 17.9095 4.08887 18.0527 4.92188C18.2016 5.79344 17.9979 6.58509 17.6084 7.31543C17.5295 7.46338 17.4148 7.57979 17.2666 7.63184C17.153 7.67169 17.0364 7.66713 16.9277 7.62988L16.8213 7.58203C16.5223 7.40962 16.4611 7.07073 16.5674 6.75977V6.75879C16.6913 6.40032 16.828 6.10612 16.8828 5.78125C16.9615 5.3133 16.9294 4.92017 16.6016 4.64062C16.3777 4.4495 16.1279 4.47607 15.79 4.55273C15.0779 4.71527 14.4779 5.15091 13.874 5.64648C12.9691 6.38899 12.1727 7.26208 11.4434 8.21484C11.6696 8.22442 11.8923 8.23484 12.1113 8.25586C13.0671 8.34791 14.0351 8.42788 14.9961 8.55566C16.1774 8.71303 17.3286 9.01906 18.4482 9.4541C19.1633 9.73177 19.8648 10.076 20.4766 10.6162C21.001 11.0789 21.4203 11.6613 21.4004 12.4883C21.383 13.2127 21.0302 13.7577 20.5928 14.2119C20.1304 14.692 19.5839 15.0145 19.0137 15.2666C18.8598 15.3345 18.6954 15.3454 18.5469 15.2881C18.3979 15.2304 18.2853 15.1117 18.2217 14.9609C18.0892 14.6465 18.2017 14.289 18.5322 14.1289C18.992 13.9064 19.4148 13.6719 19.7666 13.3174C20.0119 13.0701 20.1849 12.8201 20.21 12.4951C20.2403 12.1006 20.0199 11.8446 19.707 11.5713C18.9715 10.93 18.0895 10.6114 17.1621 10.3203C16.1251 9.99424 15.0609 9.78937 13.9834 9.6582C12.8501 9.52004 11.7162 9.44554 10.5801 9.48242C10.5788 9.48272 10.5769 9.48352 10.5742 9.48438C10.5671 9.48667 10.558 9.48995 10.5488 9.49512C10.5398 9.50023 10.5323 9.50535 10.5273 9.50977C10.522 9.51453 10.5219 9.5158 10.5244 9.51172V9.5127C10.0921 10.2221 9.67197 10.9387 9.24414 11.6553C9.22167 11.6931 9.21443 11.7215 9.21289 11.7461C9.21131 11.7726 9.21614 11.8082 9.23438 11.8623L9.37207 12.2539C10.0817 14.1998 11.0689 15.9697 12.3105 17.5742C12.9102 18.3491 13.5689 19.0422 14.3682 19.54L14.6367 19.6992C14.9019 19.8444 15.1597 19.9413 15.4424 19.9375C15.6229 19.935 15.7239 19.9153 15.7891 19.877C15.8424 19.8455 15.8985 19.7847 15.9404 19.623C16.0349 19.2584 16.052 18.8569 16.0742 18.4473C16.1196 17.6112 15.9864 16.7845 15.835 15.9404C15.5604 14.4116 15.0815 12.9491 14.5312 11.5029C14.497 11.4126 14.445 11.2831 14.4346 11.1465C14.4248 11.0196 14.4449 10.8937 14.5049 10.7822C14.5655 10.6696 14.6608 10.583 14.7803 10.5273C15.0385 10.4065 15.3289 10.5015 15.4824 10.7314C15.5307 10.8037 15.5676 10.8826 15.5957 10.9551V10.9561C16.1301 12.3391 16.5912 13.753 16.9014 15.2246C17.0993 16.1647 17.2458 17.1228 17.2656 18.0977C17.2798 18.7867 17.244 19.5042 16.9502 20.1826C16.7721 20.5935 16.5279 20.8804 16.209 21.043C15.8924 21.2043 15.5286 21.2302 15.1367 21.1719V21.1709C14.2421 21.0372 13.5208 20.5129 12.874 19.9434H12.873C11.408 18.6522 10.3387 17.0207 9.4248 15.2832C9.07821 14.6238 8.78348 13.9229 8.48047 13.252C8.01199 14.3815 7.595 15.5148 7.4082 16.7266C7.30583 17.39 7.24246 18.0289 7.38281 18.6641C7.45686 18.9994 7.62337 19.2542 7.87695 19.4482C7.99753 19.5399 8.1364 19.5363 8.35254 19.4912L8.48145 19.459C8.77949 19.3733 9.05466 19.2129 9.32227 19.0059L9.51074 18.8564C9.57729 18.8045 9.6469 18.7523 9.71777 18.7061C9.84816 18.6209 9.99715 18.5864 10.1416 18.6123C10.25 18.6319 10.347 18.6841 10.4248 18.7607L10.4961 18.8447L10.5527 18.9443C10.665 19.1876 10.6367 19.5063 10.4102 19.7021C9.78631 20.2411 9.08126 20.7235 8.19727 20.7686C7.45283 20.8065 6.92782 20.3778 6.56348 19.7852C6.12873 19.0777 6.08662 18.2838 6.13574 17.5156L6.16406 17.1523C6.33911 15.3461 6.95122 13.6924 7.7002 12.1084C7.86292 11.7638 7.90178 11.4961 7.78223 11.1533C7.62106 10.692 7.52364 10.2 7.41895 9.74219C6.45094 9.92896 5.52499 10.1264 4.69727 10.6504C4.55223 10.7422 4.41212 10.8603 4.27832 10.9902C4.08286 11.1805 3.99698 11.3752 3.99023 11.5586C3.9852 11.6966 4.02392 11.846 4.12012 12L4.23633 12.1553L4.37598 12.3105C4.70691 12.6615 5.07957 12.9416 5.50391 13.1387H5.50488C5.58723 13.1771 5.69737 13.2264 5.7959 13.2969C6.00768 13.4484 6.08319 13.722 6.02539 13.96L5.99219 14.0596C5.89447 14.29 5.62841 14.5176 5.32129 14.3955C4.38246 14.023 3.55147 13.4535 3.01855 12.4629C2.61213 11.7076 2.81122 10.8241 3.2959 10.249C3.74868 9.71165 4.32614 9.39966 4.90723 9.1543C5.64716 8.84139 6.41327 8.63619 7.19531 8.51562C7.10428 7.70326 6.98484 6.86941 6.9502 6.03516C6.91854 5.27309 6.96865 4.47027 7.36035 3.74316V3.74219ZM8.60449 9.58398C8.64832 9.7622 8.69132 9.93655 8.73535 10.1152C8.84855 9.92245 8.95934 9.73375 9.07324 9.54004C8.91415 9.55496 8.76027 9.56918 8.60449 9.58398Z" fill="black" stroke="black" stroke-width="0.4"/>
<path d="M13.6969 12.0315C13.6516 12.8967 13.0218 13.5079 12.1626 13.5194C11.3342 13.5309 10.6283 12.8098 10.6563 12.0076C10.6862 11.1423 11.3275 10.5311 12.1867 10.5197C13.0141 10.5082 13.7085 11.2283 13.6959 12.0315H13.6969Z" fill="black"/>
</g>
<defs>
<clipPath id="clip0_11097_8160">
<rect width="20" height="20" fill="white" transform="translate(2 2)"/>
</clipPath>
</defs>
</svg>
